<svg width="384" height="363" viewBox="0 0 384 363" fill="none" xmlns="http://www.w3.org/2000/svg">
<rect width="383.333" height="363" fill="#F5F5F5"/>
<path d="M45.136 268.304C47.616 268.304 49.504 269.648 49.52 271.952H47.52V271.936C47.392 270.592 46.592 269.936 45.056 269.936C43.856 269.936 42.96 270.464 42.96 271.424C42.96 272.176 43.44 272.672 44.416 272.928L47.472 273.728C48.448 273.984 49.84 274.912 49.84 276.688C49.84 278.944 47.984 280.272 45.296 280.272C42.432 280.272 40.576 278.816 40.528 276.192H42.528C42.544 277.824 43.68 278.64 45.424 278.64C46.96 278.64 47.84 277.92 47.84 276.912C47.84 276.192 47.488 275.696 46.896 275.504C46.256 275.296 45.76 275.152 43.632 274.608C41.824 274.16 40.96 273.152 40.96 271.664C40.96 269.344 43.056 268.304 45.136 268.304ZM55.127 271.504C57.719 271.504 59.303 273.328 59.303 275.856C59.303 278.432 57.719 280.224 55.127 280.224C52.535 280.224 50.951 278.448 50.951 275.856C50.951 273.328 52.535 271.504 55.127 271.504ZM52.775 275.856C52.775 277.28 53.511 278.784 55.127 278.784C56.743 278.784 57.479 277.296 57.479 275.856C57.479 274.384 56.759 272.944 55.111 272.944C53.527 272.944 52.775 274.4 52.775 275.856ZM60.8674 268.576H62.6914V280H60.8674V268.576ZM64.6788 271.728H66.5028V276.864C66.5028 278.096 66.9668 278.784 68.0868 278.784C69.4468 278.784 70.1188 277.968 70.1188 276.592V271.728H71.9427V280H70.1508V278.848H70.1188C69.6388 279.696 68.6948 280.224 67.7508 280.224C65.6388 280.224 64.6788 279.152 64.6788 277.056V271.728ZM74.4103 269.248H76.2343V271.728H77.8823V273.088H76.2343V277.6C76.2343 278.464 76.4423 278.64 77.1463 278.64C77.4823 278.64 77.8183 278.608 77.8823 278.576V279.984C77.1623 280.064 76.9543 280.08 76.6983 280.08C74.9543 280.08 74.4103 279.52 74.4103 277.856V273.088H73.0343V271.728H74.4103V269.248ZM79.2424 268.576H81.0664V270.304H79.2424V268.576ZM79.2424 271.728H81.0664V280H79.2424V271.728ZM86.8458 271.504C89.4378 271.504 91.0218 273.328 91.0218 275.856C91.0218 278.432 89.4378 280.224 86.8458 280.224C84.2538 280.224 82.6698 278.448 82.6698 275.856C82.6698 273.328 84.2538 271.504 86.8458 271.504ZM84.4938 275.856C84.4938 277.28 85.2298 278.784 86.8458 278.784C88.4618 278.784 89.1978 277.296 89.1978 275.856C89.1978 274.384 88.4778 272.944 86.8298 272.944C85.2458 272.944 84.4938 274.4 84.4938 275.856ZM96.8901 271.504C98.7941 271.504 99.8021 272.592 99.8021 274.256V280H97.9781V274.832C97.9781 273.776 97.6101 272.944 96.3621 272.944C95.0821 272.944 94.3621 274 94.3621 275.072V280H92.5381V271.728H94.2661V272.944L94.2981 272.976C94.8901 272.016 95.8341 271.504 96.8901 271.504ZM104.91 271.504C106.878 271.504 108.19 272.4 108.366 274.048H106.462C106.318 273.296 105.774 272.944 104.782 272.944C103.886 272.944 103.278 273.248 103.278 273.792C103.278 274.368 103.774 274.688 105.374 274.992C107.918 275.456 108.638 276.256 108.638 277.536C108.638 279.264 107.054 280.224 104.942 280.224C102.766 280.224 101.326 279.248 101.278 277.344H103.102C103.214 278.32 103.838 278.784 104.974 278.784C106.094 278.784 106.814 278.464 106.814 277.744C106.814 277.168 106.446 276.736 104.142 276.336C102.766 276.096 101.454 275.488 101.454 273.872C101.454 272.32 102.974 271.504 104.91 271.504ZM116.844 280H115.02V273.088H113.66V271.728H115.02V270.976C115.02 269.28 115.772 268.576 117.324 268.576C117.868 268.576 118.3 268.608 118.588 268.688V270.112C118.396 270.048 118.044 270.016 117.756 270.016C117.116 270.016 116.844 270.336 116.844 270.8V271.728H118.396V273.088H116.844V280ZM123.315 271.504C125.907 271.504 127.491 273.328 127.491 275.856C127.491 278.432 125.907 280.224 123.315 280.224C120.723 280.224 119.139 278.448 119.139 275.856C119.139 273.328 120.723 271.504 123.315 271.504ZM120.963 275.856C120.963 277.28 121.699 278.784 123.315 278.784C124.931 278.784 125.667 277.296 125.667 275.856C125.667 274.384 124.947 272.944 123.299 272.944C121.715 272.944 120.963 274.4 120.963 275.856ZM133.167 271.504C133.519 271.504 133.583 271.504 133.855 271.552V273.312C133.583 273.264 133.327 273.232 133.071 273.232C131.711 273.232 130.831 274.416 130.831 276V280H129.007V271.728H130.719V273.328H130.751C131.007 272.272 132.239 271.504 133.167 271.504ZM139.629 269.248H141.453V271.728H143.101V273.088H141.453V277.6C141.453 278.464 141.661 278.64 142.365 278.64C142.701 278.64 143.037 278.608 143.101 278.576V279.984C142.381 280.064 142.173 280.08 141.917 280.08C140.173 280.08 139.629 279.52 139.629 277.856V273.088H138.253V271.728H139.629V269.248ZM144.413 268.576H146.237V272.816H146.269C146.797 271.984 147.725 271.504 148.765 271.504C150.669 271.504 151.677 272.608 151.677 274.256V280H149.853V274.88C149.853 273.824 149.533 272.944 148.237 272.944C146.973 272.944 146.237 273.984 146.237 275.072V280H144.413V268.576ZM157.201 271.504C159.537 271.504 161.137 273.424 161.137 275.712C161.137 275.92 161.121 276.128 161.105 276.336H155.025C155.025 277.696 155.809 278.784 157.249 278.784C158.257 278.784 158.929 278.368 159.265 277.408H160.993C160.625 279.184 159.057 280.224 157.249 280.224C154.641 280.224 153.201 278.4 153.201 275.888C153.201 273.504 154.737 271.504 157.201 271.504ZM155.025 275.136H159.281C159.185 273.984 158.433 272.944 157.185 272.944C155.905 272.944 155.089 273.92 155.025 275.136ZM170.544 271.504C172.88 271.504 174.48 273.424 174.48 275.712C174.48 275.92 174.464 276.128 174.448 276.336H168.368C168.368 277.696 169.152 278.784 170.592 278.784C171.6 278.784 172.272 278.368 172.608 277.408H174.336C173.968 279.184 172.4 280.224 170.592 280.224C167.984 280.224 166.544 278.4 166.544 275.888C166.544 273.504 168.08 271.504 170.544 271.504ZM168.368 275.136H172.624C172.528 273.984 171.776 272.944 170.528 272.944C169.248 272.944 168.432 273.92 168.368 275.136ZM175.019 271.728H177.003L179.099 278.08H179.131L181.147 271.728H183.035L180.075 280H178.027L175.019 271.728ZM187.732 271.504C190.068 271.504 191.668 273.424 191.668 275.712C191.668 275.92 191.652 276.128 191.636 276.336H185.556C185.556 277.696 186.34 278.784 187.78 278.784C188.788 278.784 189.46 278.368 189.796 277.408H191.524C191.156 279.184 189.588 280.224 187.78 280.224C185.172 280.224 183.732 278.4 183.732 275.888C183.732 273.504 185.268 271.504 187.732 271.504ZM185.556 275.136H189.812C189.716 273.984 188.964 272.944 187.716 272.944C186.436 272.944 185.62 273.92 185.556 275.136ZM197.183 271.504C197.535 271.504 197.599 271.504 197.871 271.552V273.312C197.599 273.264 197.343 273.232 197.087 273.232C195.727 273.232 194.847 274.416 194.847 276V280H193.023V271.728H194.735V273.328H194.767C195.023 272.272 196.255 271.504 197.183 271.504ZM197.892 271.728H199.892L202.052 277.904H202.084L204.18 271.728H206.084L202.9 280.368C202.564 281.312 202.244 281.936 201.988 282.288C201.492 283.008 200.852 283.28 199.924 283.28C199.54 283.28 199.124 283.248 198.676 283.184V281.648C198.948 281.68 199.172 281.76 199.54 281.76C200.132 281.76 200.5 281.504 200.676 281.008L201.028 279.968L197.892 271.728ZM213.069 268.576H214.893V280H213.165V278.88H213.133C212.637 279.792 211.693 280.224 210.573 280.224C208.205 280.224 206.701 278.544 206.701 275.808C206.701 273.072 208.237 271.504 210.285 271.504C211.469 271.504 212.541 272 213.037 272.8H213.069V268.576ZM208.525 275.952C208.525 277.552 209.389 278.784 210.813 278.784C212.269 278.784 213.133 277.504 213.133 275.856C213.133 274.064 212.285 272.944 210.829 272.944C209.373 272.944 208.525 274.192 208.525 275.952ZM220.498 271.504C222.498 271.504 223.81 272.448 223.81 273.856V278.208C223.81 278.64 223.906 278.784 224.306 278.784C224.402 278.784 224.562 278.784 224.69 278.752V280.016C224.226 280.144 223.746 280.224 223.538 280.224C222.738 280.224 222.258 279.904 222.13 279.216C221.474 279.872 220.274 280.224 219.266 280.224C217.634 280.224 216.434 279.328 216.434 277.808C216.434 276.256 217.346 275.648 218.578 275.392C219.202 275.264 219.89 275.184 220.658 275.088C221.762 274.96 222.098 274.704 222.098 274.064C222.098 273.344 221.522 272.944 220.386 272.944C219.266 272.944 218.642 273.424 218.562 274.256H216.738C216.866 272.448 218.178 271.504 220.498 271.504ZM218.258 277.648C218.258 278.336 218.834 278.784 219.826 278.784C221.074 278.784 221.986 278.16 221.986 277.264V275.856C221.49 276.16 221.25 276.16 219.986 276.32C218.786 276.464 218.258 276.896 218.258 277.648ZM224.861 271.728H226.861L229.021 277.904H229.053L231.149 271.728H233.053L229.869 280.368C229.533 281.312 229.213 281.936 228.957 282.288C228.461 283.008 227.821 283.28 226.893 283.28C226.509 283.28 226.093 283.248 225.645 283.184V281.648C225.917 281.68 226.141 281.76 226.509 281.76C227.101 281.76 227.469 281.504 227.645 281.008L227.997 279.968L224.861 271.728ZM242.139 271.504C244.139 271.504 245.451 272.448 245.451 273.856V278.208C245.451 278.64 245.547 278.784 245.947 278.784C246.043 278.784 246.203 278.784 246.331 278.752V280.016C245.867 280.144 245.387 280.224 245.179 280.224C244.379 280.224 243.899 279.904 243.771 279.216C243.115 279.872 241.915 280.224 240.907 280.224C239.275 280.224 238.075 279.328 238.075 277.808C238.075 276.256 238.987 275.648 240.219 275.392C240.843 275.264 241.531 275.184 242.299 275.088C243.403 274.96 243.739 274.704 243.739 274.064C243.739 273.344 243.163 272.944 242.027 272.944C240.907 272.944 240.283 273.424 240.203 274.256H238.379C238.507 272.448 239.819 271.504 242.139 271.504ZM239.899 277.648C239.899 278.336 240.475 278.784 241.467 278.784C242.715 278.784 243.627 278.16 243.627 277.264V275.856C243.131 276.16 242.891 276.16 241.627 276.32C240.427 276.464 239.899 276.896 239.899 277.648ZM251.765 271.504C253.669 271.504 254.677 272.592 254.677 274.256V280H252.853V274.832C252.853 273.776 252.485 272.944 251.237 272.944C249.957 272.944 249.237 274 249.237 275.072V280H247.413V271.728H249.141V272.944L249.173 272.976C249.765 272.016 250.709 271.504 251.765 271.504ZM262.569 268.576H264.393V280H262.665V278.88H262.633C262.137 279.792 261.193 280.224 260.073 280.224C257.705 280.224 256.201 278.544 256.201 275.808C256.201 273.072 257.737 271.504 259.785 271.504C260.969 271.504 262.041 272 262.537 272.8H262.569V268.576ZM258.025 275.952C258.025 277.552 258.889 278.784 260.313 278.784C261.769 278.784 262.633 277.504 262.633 275.856C262.633 274.064 261.785 272.944 260.329 272.944C258.873 272.944 258.025 274.192 258.025 275.952ZM271.379 269.248H273.203V271.728H274.851V273.088H273.203V277.6C273.203 278.464 273.411 278.64 274.115 278.64C274.451 278.64 274.787 278.608 274.851 278.576V279.984C274.131 280.064 273.923 280.08 273.667 280.08C271.923 280.08 271.379 279.52 271.379 277.856V273.088H270.003V271.728H271.379V269.248ZM276.163 268.576H277.987V272.816H278.019C278.547 271.984 279.475 271.504 280.515 271.504C282.419 271.504 283.427 272.608 283.427 274.256V280H281.603V274.88C281.603 273.824 281.283 272.944 279.987 272.944C278.723 272.944 277.987 273.984 277.987 275.072V280H276.163V268.576ZM288.951 271.504C291.287 271.504 292.887 273.424 292.887 275.712C292.887 275.92 292.871 276.128 292.855 276.336H286.775C286.775 277.696 287.559 278.784 288.999 278.784C290.007 278.784 290.679 278.368 291.015 277.408H292.743C292.375 279.184 290.807 280.224 288.999 280.224C286.391 280.224 284.951 278.4 284.951 275.888C284.951 273.504 286.487 271.504 288.951 271.504ZM286.775 275.136H291.031C290.935 273.984 290.183 272.944 288.935 272.944C287.655 272.944 286.839 273.92 286.775 275.136ZM302.294 271.504C304.63 271.504 306.23 273.424 306.23 275.712C306.23 275.92 306.214 276.128 306.198 276.336H300.118C300.118 277.696 300.902 278.784 302.342 278.784C303.35 278.784 304.022 278.368 304.358 277.408H306.086C305.718 279.184 304.15 280.224 302.342 280.224C299.734 280.224 298.294 278.4 298.294 275.888C298.294 273.504 299.83 271.504 302.294 271.504ZM300.118 275.136H304.374C304.278 273.984 303.526 272.944 302.278 272.944C300.998 272.944 300.182 273.92 300.118 275.136ZM306.664 271.728H308.872L310.6 274.272L312.408 271.728H314.52L311.704 275.552L314.872 280H312.68L310.584 276.944L308.552 280H306.408L309.528 275.648L306.664 271.728ZM316.442 269.248H318.266V271.728H319.914V273.088H318.266V277.6C318.266 278.464 318.474 278.64 319.178 278.64C319.514 278.64 319.85 278.608 319.914 278.576V279.984C319.194 280.064 318.986 280.08 318.73 280.08C316.986 280.08 316.442 279.52 316.442 277.856V273.088H315.066V271.728H316.442V269.248ZM325.386 271.504C325.738 271.504 325.802 271.504 326.074 271.552V273.312C325.802 273.264 325.546 273.232 325.29 273.232C323.93 273.232 323.05 274.416 323.05 276V280H321.226V271.728H322.938V273.328H322.97C323.226 272.272 324.458 271.504 325.386 271.504ZM330.154 271.504C332.154 271.504 333.466 272.448 333.466 273.856V278.208C333.466 278.64 333.562 278.784 333.962 278.784C334.058 278.784 334.218 278.784 334.346 278.752V280.016C333.882 280.144 333.402 280.224 333.194 280.224C332.394 280.224 331.914 279.904 331.786 279.216C331.13 279.872 329.93 280.224 328.922 280.224C327.29 280.224 326.09 279.328 326.09 277.808C326.09 276.256 327.002 275.648 328.234 275.392C328.858 275.264 329.546 275.184 330.314 275.088C331.418 274.96 331.754 274.704 331.754 274.064C331.754 273.344 331.178 272.944 330.042 272.944C328.922 272.944 328.298 273.424 328.218 274.256H326.394C326.522 272.448 327.834 271.504 330.154 271.504ZM327.914 277.648C327.914 278.336 328.49 278.784 329.482 278.784C330.73 278.784 331.642 278.16 331.642 277.264V275.856C331.146 276.16 330.906 276.16 329.642 276.32C328.442 276.464 327.914 276.896 327.914 277.648ZM44.64 295.504C46.784 295.504 48.192 296.608 48.368 298.496H46.544C46.4 297.504 45.712 296.944 44.656 296.944C43.248 296.944 42.384 297.952 42.384 299.952C42.384 301.552 43.152 302.784 44.576 302.784C45.616 302.784 46.352 302.144 46.544 300.896H48.368C48.016 303.072 46.672 304.224 44.576 304.224C42.16 304.224 40.56 302.592 40.56 299.952C40.56 297.312 42.032 295.504 44.64 295.504ZM49.8506 292.576H51.6746V296.816H51.7066C52.2346 295.984 53.1626 295.504 54.2026 295.504C56.1066 295.504 57.1146 296.608 57.1146 298.256V304H55.2906V298.88C55.2906 297.824 54.9706 296.944 53.6746 296.944C52.4106 296.944 51.6746 297.984 51.6746 299.072V304H49.8506V292.576ZM62.6541 295.504C64.6541 295.504 65.9661 296.448 65.9661 297.856V302.208C65.9661 302.64 66.0621 302.784 66.4621 302.784C66.5581 302.784 66.7181 302.784 66.8461 302.752V304.016C66.3821 304.144 65.9021 304.224 65.6941 304.224C64.8941 304.224 64.4141 303.904 64.2861 303.216C63.6301 303.872 62.4301 304.224 61.4221 304.224C59.7901 304.224 58.5901 303.328 58.5901 301.808C58.5901 300.256 59.5021 299.648 60.7341 299.392C61.3581 299.264 62.0461 299.184 62.8141 299.088C63.9181 298.96 64.2541 298.704 64.2541 298.064C64.2541 297.344 63.6781 296.944 62.5421 296.944C61.4221 296.944 60.7981 297.424 60.7181 298.256H58.8941C59.0221 296.448 60.3341 295.504 62.6541 295.504ZM60.4141 301.648C60.4141 302.336 60.9901 302.784 61.9821 302.784C63.2301 302.784 64.1421 302.16 64.1421 301.264V299.856C63.6461 300.16 63.4061 300.16 62.1421 300.32C60.9421 300.464 60.4141 300.896 60.4141 301.648ZM67.9768 292.576H69.8008V304H67.9768V292.576ZM71.8361 292.576H73.6601V304H71.8361V292.576ZM79.2475 295.504C81.5835 295.504 83.1835 297.424 83.1835 299.712C83.1835 299.92 83.1675 300.128 83.1515 300.336H77.0715C77.0715 301.696 77.8555 302.784 79.2955 302.784C80.3035 302.784 80.9755 302.368 81.3115 301.408H83.0395C82.6715 303.184 81.1035 304.224 79.2955 304.224C76.6875 304.224 75.2475 302.4 75.2475 299.888C75.2475 297.504 76.7835 295.504 79.2475 295.504ZM77.0715 299.136H81.3275C81.2315 297.984 80.4795 296.944 79.2315 296.944C77.9515 296.944 77.1355 297.92 77.0715 299.136ZM88.8901 295.504C90.7941 295.504 91.8021 296.592 91.8021 298.256V304H89.9781V298.832C89.9781 297.776 89.6101 296.944 88.3621 296.944C87.0821 296.944 86.3621 298 86.3621 299.072V304H84.5381V295.728H86.2661V296.944L86.2981 296.976C86.8901 296.016 87.8341 295.504 88.8901 295.504ZM97.0696 295.504C98.1896 295.504 99.0856 295.968 99.5176 296.864H99.5496V295.728H101.374V303.648C101.374 305.952 100.03 307.28 97.3256 307.28C95.2456 307.28 93.7576 306.352 93.6136 304.704H95.4376C95.5976 305.504 96.1416 305.92 97.4216 305.92C98.8456 305.92 99.5496 305.184 99.5496 303.856V302.544H99.5176C98.9736 303.472 98.0776 304 97.0376 304C94.7016 304 93.3256 302.384 93.3256 299.664C93.3256 297.28 94.8616 295.504 97.0696 295.504ZM95.1496 299.824C95.1496 301.392 95.9816 302.56 97.3256 302.56C98.7016 302.56 99.5496 301.424 99.5496 299.68C99.5496 298.032 98.7176 296.944 97.3256 296.944C95.9496 296.944 95.1496 298.112 95.1496 299.824ZM103.258 292.576H105.082V294.304H103.258V292.576ZM103.258 295.728H105.082V304H103.258V295.728ZM111.421 295.504C113.325 295.504 114.333 296.592 114.333 298.256V304H112.509V298.832C112.509 297.776 112.141 296.944 110.893 296.944C109.613 296.944 108.893 298 108.893 299.072V304H107.069V295.728H108.797V296.944L108.829 296.976C109.421 296.016 110.365 295.504 111.421 295.504ZM119.601 295.504C120.721 295.504 121.617 295.968 122.049 296.864H122.081V295.728H123.905V303.648C123.905 305.952 122.561 307.28 119.857 307.28C117.777 307.28 116.289 306.352 116.145 304.704H117.969C118.129 305.504 118.673 305.92 119.953 305.92C121.377 305.92 122.081 305.184 122.081 303.856V302.544H122.049C121.505 303.472 120.609 304 119.569 304C117.233 304 115.857 302.384 115.857 299.664C115.857 297.28 117.393 295.504 119.601 295.504ZM117.681 299.824C117.681 301.392 118.513 302.56 119.857 302.56C121.233 302.56 122.081 301.424 122.081 299.68C122.081 298.032 121.249 296.944 119.857 296.944C118.481 296.944 117.681 298.112 117.681 299.824Z" fill="black"/>
<path d="M60.1813 103.184C60.1813 107.778 58.2187 112.587 52.9707 112.587C48.0427 112.587 45.9093 108.1 45.9093 103.657C45.9093 99.1699 47.7227 94.254 52.9707 94.254C58.112 94.2755 60.1813 98.5474 60.1813 103.184ZM66.0907 115.871V90.3041H60.1813V94.0179H60.0747C58.56 90.9911 55.5093 89.5742 52.1387 89.5742C44.5227 89.5742 40 95.8426 40 103.098C40 110.826 43.52 117.288 52.032 117.288C55.36 117.288 58.4107 115.506 60.0747 112.544H60.1813V116.665C60.1813 121.109 58.048 123.556 53.2907 123.556C50.2827 123.556 47.5947 122.977 46.848 119.585H40.9387C41.4507 125.896 47.5307 128 52.928 128C61.376 127.979 66.0907 123.964 66.0907 115.871ZM71.4667 117.288H77.376V90.3041H71.4667V117.288ZM103.936 103.828C103.936 108.53 101.909 113.338 96.512 113.338C91.7333 113.338 88.9813 109.259 88.9813 103.828C88.9813 98.0966 91.52 94.2755 96.512 94.2755C101.397 94.2755 103.936 98.9123 103.936 103.828ZM109.845 103.914C109.845 96.0358 105.749 89.5528 97.3013 89.5528C94.2933 89.5528 90.9227 91.1628 89.3013 93.7818H89.1947V80H83.2853V117.267H88.896V113.574H89.0027C90.7733 117.116 94.656 118.018 98.2827 118.018C106.219 118.018 109.845 111.17 109.845 103.914ZM137.92 99.3202C137.344 92.6869 132.053 89.5528 125.824 89.5528C117.013 89.5528 112.597 95.9284 112.597 104.064C112.597 112.007 117.205 117.996 125.611 117.996C132.501 117.996 136.811 114.132 137.899 107.134H131.989C131.413 110.998 129.024 113.295 125.611 113.295C120.469 113.295 118.507 108.551 118.507 104.064C118.507 95.864 122.816 94.254 125.867 94.254C129.131 94.254 131.52 96.0358 131.989 99.3202H137.92ZM162.091 103.764C162.091 108.465 159.765 113.317 154.475 113.317C149.184 113.317 146.859 108.465 146.859 103.764C146.859 99.127 149.184 94.254 154.475 94.254C159.744 94.2755 162.091 99.127 162.091 103.764ZM168 103.764C168 95.5206 163.072 89.5742 154.453 89.5742C145.835 89.5742 140.907 95.5206 140.907 103.764C140.907 112.072 145.835 118.018 154.453 118.018C163.072 118.018 168 112.072 168 103.764ZM73.2587 80.0215L71.5093 85.6887H77.44L79.2107 80.0215H73.2587Z" fill="#00558A"/>
</svg>
