<svg width="384" height="363" viewBox="0 0 384 363" fill="none" xmlns="http://www.w3.org/2000/svg">
<rect x="0.333008" width="383.333" height="363" fill="#F5F5F5"/>
<path d="M40.333 152.611H43.3146V118.828H40.333V152.611ZM62.5207 143.148C62.5717 147.922 58.5453 150.793 54.0262 150.793C51.2315 150.793 48.5812 148.95 48.5812 145.968C48.5812 141.186 54.8756 141.237 59.9384 140.336C60.7369 140.192 62.062 139.963 62.4867 139.249H62.5802V143.131L62.5207 143.148ZM49.609 135.673C49.7025 131.731 52.4462 130.032 56.1328 130.032C59.6326 130.032 62.5207 131.026 62.5207 135.044C62.5207 137.737 61.1531 138.068 58.6897 138.357C52.2593 139.113 45.5826 139.351 45.5826 146.206C45.5826 151.124 49.2777 153.35 53.7714 153.35C58.4518 153.35 60.567 151.549 62.6651 148.381H62.7586C62.7586 150.929 63.2343 152.628 66.2583 152.628C66.913 152.637 67.5663 152.566 68.2036 152.415V149.91C67.9026 150.026 67.5835 150.09 67.2607 150.096C67.0207 150.123 66.7777 150.095 66.5503 150.014C66.3228 149.932 66.117 149.8 65.9482 149.627C65.7795 149.455 65.6524 149.246 65.5766 149.016C65.5008 148.787 65.4783 148.543 65.5108 148.304V135.341C65.5108 128.809 60.8303 127.484 56.5236 127.484C50.9427 127.484 46.9163 129.947 46.636 135.673H49.609ZM89.1086 140.404C89.1086 145.501 86.7896 150.81 81.1153 150.81C74.7698 150.81 72.5528 145.467 72.5528 140.404C72.5528 135.341 74.7698 130.032 81.1153 130.032C86.7896 130.032 89.1086 135.375 89.1086 140.438M69.5712 152.645H72.3149V147.973H72.4508C73.827 151.286 77.2248 153.316 81.1577 153.316C88.582 153.316 92.1327 147.31 92.1327 140.404C92.1327 133.498 88.5395 127.484 81.1153 127.484C77.4711 127.484 73.9204 129.336 72.6207 132.836H72.5273V118.828H69.5712V152.611V152.645ZM116.622 135.341C116.402 130.032 112.52 127.484 107.652 127.484C103.345 127.484 98.4696 129.378 98.4696 134.348C98.4696 138.51 101.409 139.835 105.265 140.871L109.096 141.721C111.798 142.383 114.448 143.326 114.448 146.164C114.448 149.561 110.566 150.802 107.771 150.802C103.804 150.802 100.823 148.72 100.585 144.702H97.6201C98.0958 150.649 101.978 153.307 107.652 153.307C112.188 153.307 117.446 151.277 117.446 145.977C117.446 141.729 113.896 139.733 110.489 139.181L106.514 138.323C104.484 137.796 101.417 136.854 101.417 134.203C101.417 131.035 104.543 129.998 107.193 129.998C110.591 129.998 113.437 131.646 113.573 135.341H116.622ZM140.186 141.203C140.407 134.348 137.264 127.484 129.407 127.484C121.549 127.484 118.364 133.965 118.364 140.404C118.364 147.353 121.626 153.316 129.407 153.316C135.557 153.316 138.751 150.096 140.05 144.567H137.077C136.126 148.253 133.764 150.81 129.432 150.81C123.715 150.81 121.439 145.56 121.396 141.203H140.186ZM121.405 138.654C121.838 134.28 124.539 130.032 129.407 130.032C134.274 130.032 137.052 134.237 137.171 138.731L121.405 138.654ZM142.072 152.568H145.054V139.597C145.054 134.501 148.749 130.559 154.134 130.848V127.866C152.143 127.714 150.158 128.225 148.489 129.321C146.82 130.417 145.561 132.035 144.909 133.923H144.816V128.198H142.072V152.611V152.568ZM165.067 152.568H168.235L177.367 128.155H174.292L166.723 149.587H166.63L158.985 128.155H155.68L165.041 152.611L165.067 152.568ZM178.216 152.568H181.181V128.198H178.199V152.611L178.216 152.568ZM204.966 135.86C204.303 130.279 200.285 127.484 195.078 127.484C187.603 127.484 183.534 133.43 183.534 140.404C183.534 147.378 187.603 153.316 195.078 153.316C200.514 153.316 204.354 149.723 205.152 143.853H202.162C201.789 147.922 198.765 150.81 195.069 150.81C189.344 150.81 186.507 145.603 186.507 140.404C186.507 135.206 189.344 130.032 195.069 130.032C198.951 130.032 201.169 132.249 201.975 135.894L204.966 135.86ZM227.722 141.203C227.952 134.348 224.834 127.484 216.977 127.484C209.119 127.484 205.934 133.965 205.934 140.404C205.934 147.353 209.196 153.316 216.977 153.316C223.127 153.316 226.321 150.096 227.62 144.567H224.647C223.696 148.253 221.335 150.81 217.002 150.81C211.285 150.81 209.009 145.56 208.966 141.203H227.722ZM208.941 138.654C209.4 134.28 212.101 130.032 216.968 130.032C221.836 130.032 224.613 134.237 224.732 138.731L208.941 138.654ZM247.447 135.257C247.243 130.032 243.369 127.484 238.493 127.484C234.187 127.484 229.319 129.378 229.319 134.348C229.319 138.51 232.25 139.835 236.115 140.871L239.946 141.721C242.639 142.383 245.289 143.326 245.289 146.164C245.289 149.561 241.416 150.802 238.621 150.802C234.645 150.802 231.664 148.72 231.426 144.702H228.453C228.92 150.649 232.802 153.307 238.476 153.307C243.021 153.307 248.271 151.277 248.271 145.977C248.271 141.729 244.72 139.733 241.314 139.181L237.347 138.281C235.308 137.754 232.25 136.811 232.25 134.161C232.25 130.992 235.367 129.956 238.018 129.956C241.416 129.956 244.261 131.604 244.406 135.299L247.447 135.257Z" fill="#55585A"/>
<path d="M182.613 118.854L181.135 123.593H178.179L179.657 118.854H182.613Z" fill="#55585A"/>
<path d="M61.8157 88.5962H56.4217V102.791C56.4217 106.571 54.9011 109.459 50.4075 109.459C47.4769 109.459 45.727 107.896 45.727 103.589V88.5962H40.333V104.116C40.333 110.495 43.0767 113.715 49.4646 113.715C50.8763 113.692 52.2584 113.306 53.4771 112.593C54.6958 111.88 55.71 110.865 56.4217 109.646H56.5151V113.043H61.8157V88.5962Z" fill="#29829E"/>
<path d="M64.125 113.044H69.519V98.603C69.519 95.0013 71.838 92.1641 75.4652 92.1641C78.6337 92.1641 80.1457 93.8206 80.2391 97.6516V113.044H85.6332V96.2585C85.6332 90.771 82.2353 87.9339 76.9772 87.9339C75.4329 87.9219 73.9128 88.3178 72.5704 89.0814C71.2281 89.8451 70.111 90.9495 69.3321 92.2831L69.2387 92.1896V88.5964H64.142V113.044H64.125Z" fill="#29829E"/>
<path d="M87.9165 113.052H93.3105V88.5962H87.9165V113.052Z" fill="#29829E"/>
<path d="M95.123 92.6568H99.1919V107.098C99.2854 111.166 100.322 113.341 105.988 113.341C107.168 113.341 108.307 113.154 109.487 113.052V108.89C108.743 109.052 107.981 109.117 107.219 109.085C104.807 109.085 104.62 107.947 104.62 105.687V92.6568H109.487V88.5964H104.586V82.4634L99.1919 85.1476V88.5964H95.123V92.6568Z" fill="#29829E"/>
<path d="M119.833 112.959L119.213 114.853C118.55 116.934 117.938 118.251 115.433 118.251C114.576 118.207 113.724 118.096 112.884 117.92V122.456C114.121 122.65 115.37 122.747 116.622 122.744C122.254 122.744 123.528 118.769 125.278 114.369L134.792 88.5879H129.16L122.959 106.851H122.865L116.477 88.5879H110.531L119.833 112.959Z" fill="#29829E"/>
<path d="M89.5146 80L87.9092 85.1392L93.3287 85.1477L94.9257 80H89.5146Z" fill="#29829E"/>
<path d="M40.461 268.576H49.709V270.304H46.077V280H44.077V270.304H40.461V268.576ZM50.7774 268.576H52.6014V272.816H52.6334C53.1614 271.984 54.0894 271.504 55.1294 271.504C57.0334 271.504 58.0414 272.608 58.0414 274.256V280H56.2174V274.88C56.2174 273.824 55.8974 272.944 54.6014 272.944C53.3374 272.944 52.6014 273.984 52.6014 275.072V280H50.7774V268.576ZM63.5649 271.504C65.9009 271.504 67.5009 273.424 67.5009 275.712C67.5009 275.92 67.4849 276.128 67.4689 276.336H61.3889C61.3889 277.696 62.1729 278.784 63.6129 278.784C64.6209 278.784 65.2929 278.368 65.6289 277.408H67.3569C66.9889 279.184 65.4209 280.224 63.6129 280.224C61.0049 280.224 59.5649 278.4 59.5649 275.888C59.5649 273.504 61.1009 271.504 63.5649 271.504ZM61.3889 275.136H65.6449C65.5489 273.984 64.7969 272.944 63.5489 272.944C62.2689 272.944 61.4529 273.92 61.3889 275.136ZM73.3566 268.576H75.1806V280H73.3566V268.576ZM80.784 271.504C82.784 271.504 84.096 272.448 84.096 273.856V278.208C84.096 278.64 84.192 278.784 84.592 278.784C84.688 278.784 84.848 278.784 84.976 278.752V280.016C84.512 280.144 84.032 280.224 83.824 280.224C83.024 280.224 82.544 279.904 82.416 279.216C81.76 279.872 80.56 280.224 79.552 280.224C77.92 280.224 76.72 279.328 76.72 277.808C76.72 276.256 77.632 275.648 78.864 275.392C79.488 275.264 80.176 275.184 80.944 275.088C82.048 274.96 82.384 274.704 82.384 274.064C82.384 273.344 81.808 272.944 80.672 272.944C79.552 272.944 78.928 273.424 78.848 274.256H77.024C77.152 272.448 78.464 271.504 80.784 271.504ZM78.544 277.648C78.544 278.336 79.12 278.784 80.112 278.784C81.36 278.784 82.272 278.16 82.272 277.264V275.856C81.776 276.16 81.536 276.16 80.272 276.32C79.072 276.464 78.544 276.896 78.544 277.648ZM86.1066 268.576H87.9306V272.8H87.9626C88.4906 272 89.4666 271.504 90.4266 271.504C93.0026 271.504 94.2986 273.408 94.2986 275.904C94.2986 278.128 93.1946 280.224 90.7306 280.224C89.5946 280.224 88.4586 279.936 87.8666 278.864H87.8346V280H86.1066V268.576ZM87.8666 275.872C87.8666 277.296 88.5706 278.784 90.1866 278.784C91.8346 278.784 92.4746 277.312 92.4746 275.872C92.4746 274.48 91.7546 272.944 90.1706 272.944C88.4746 272.944 87.8666 274.384 87.8666 275.872ZM99.6319 271.504C102.224 271.504 103.808 273.328 103.808 275.856C103.808 278.432 102.224 280.224 99.6319 280.224C97.0399 280.224 95.4559 278.448 95.4559 275.856C95.4559 273.328 97.0399 271.504 99.6319 271.504ZM97.2799 275.856C97.2799 277.28 98.0159 278.784 99.6319 278.784C101.248 278.784 101.984 277.296 101.984 275.856C101.984 274.384 101.264 272.944 99.6159 272.944C98.0319 272.944 97.2799 274.4 97.2799 275.856ZM109.484 271.504C109.836 271.504 109.9 271.504 110.172 271.552V273.312C109.9 273.264 109.644 273.232 109.388 273.232C108.028 273.232 107.148 274.416 107.148 276V280H105.324V271.728H107.036V273.328H107.068C107.324 272.272 108.556 271.504 109.484 271.504ZM114.253 271.504C116.253 271.504 117.565 272.448 117.565 273.856V278.208C117.565 278.64 117.661 278.784 118.061 278.784C118.157 278.784 118.317 278.784 118.445 278.752V280.016C117.981 280.144 117.501 280.224 117.293 280.224C116.493 280.224 116.013 279.904 115.885 279.216C115.229 279.872 114.029 280.224 113.021 280.224C111.389 280.224 110.189 279.328 110.189 277.808C110.189 276.256 111.101 275.648 112.333 275.392C112.957 275.264 113.645 275.184 114.413 275.088C115.517 274.96 115.853 274.704 115.853 274.064C115.853 273.344 115.277 272.944 114.141 272.944C113.021 272.944 112.397 273.424 112.317 274.256H110.493C110.621 272.448 111.933 271.504 114.253 271.504ZM112.013 277.648C112.013 278.336 112.589 278.784 113.581 278.784C114.829 278.784 115.741 278.16 115.741 277.264V275.856C115.245 276.16 115.005 276.16 113.741 276.32C112.541 276.464 112.013 276.896 112.013 277.648ZM120.071 269.248H121.895V271.728H123.543V273.088H121.895V277.6C121.895 278.464 122.103 278.64 122.807 278.64C123.143 278.64 123.479 278.608 123.543 278.576V279.984C122.823 280.064 122.615 280.08 122.359 280.08C120.615 280.08 120.071 279.52 120.071 277.856V273.088H118.695V271.728H120.071V269.248ZM128.507 271.504C131.099 271.504 132.683 273.328 132.683 275.856C132.683 278.432 131.099 280.224 128.507 280.224C125.915 280.224 124.331 278.448 124.331 275.856C124.331 273.328 125.915 271.504 128.507 271.504ZM126.155 275.856C126.155 277.28 126.891 278.784 128.507 278.784C130.123 278.784 130.859 277.296 130.859 275.856C130.859 274.384 130.139 272.944 128.491 272.944C126.907 272.944 126.155 274.4 126.155 275.856ZM138.359 271.504C138.711 271.504 138.775 271.504 139.047 271.552V273.312C138.775 273.264 138.519 273.232 138.263 273.232C136.903 273.232 136.023 274.416 136.023 276V280H134.199V271.728H135.911V273.328H135.943C136.199 272.272 137.431 271.504 138.359 271.504ZM139.069 271.728H141.069L143.229 277.904H143.261L145.357 271.728H147.261L144.077 280.368C143.741 281.312 143.421 281.936 143.165 282.288C142.669 283.008 142.029 283.28 141.101 283.28C140.717 283.28 140.301 283.248 139.853 283.184V281.648C140.125 281.68 140.349 281.76 140.717 281.76C141.309 281.76 141.677 281.504 141.853 281.008L142.205 279.968L139.069 271.728ZM155.915 271.504C157.883 271.504 159.195 272.4 159.371 274.048H157.467C157.323 273.296 156.779 272.944 155.787 272.944C154.891 272.944 154.283 273.248 154.283 273.792C154.283 274.368 154.779 274.688 156.379 274.992C158.923 275.456 159.643 276.256 159.643 277.536C159.643 279.264 158.059 280.224 155.947 280.224C153.771 280.224 152.331 279.248 152.283 277.344H154.107C154.219 278.32 154.843 278.784 155.979 278.784C157.099 278.784 157.819 278.464 157.819 277.744C157.819 277.168 157.451 276.736 155.147 276.336C153.771 276.096 152.459 275.488 152.459 273.872C152.459 272.32 153.979 271.504 155.915 271.504ZM164.627 271.504C166.963 271.504 168.563 273.424 168.563 275.712C168.563 275.92 168.547 276.128 168.531 276.336H162.451C162.451 277.696 163.235 278.784 164.675 278.784C165.683 278.784 166.355 278.368 166.691 277.408H168.419C168.051 279.184 166.483 280.224 164.675 280.224C162.067 280.224 160.627 278.4 160.627 275.888C160.627 273.504 162.163 271.504 164.627 271.504ZM162.451 275.136H166.707C166.611 273.984 165.859 272.944 164.611 272.944C163.331 272.944 162.515 273.92 162.451 275.136ZM174.078 271.504C174.43 271.504 174.494 271.504 174.766 271.552V273.312C174.494 273.264 174.238 273.232 173.982 273.232C172.622 273.232 171.742 274.416 171.742 276V280H169.918V271.728H171.63V273.328H171.662C171.918 272.272 173.15 271.504 174.078 271.504ZM174.868 271.728H176.852L178.948 278.08H178.98L180.996 271.728H182.884L179.924 280H177.876L174.868 271.728ZM184.029 268.576H185.853V270.304H184.029V268.576ZM184.029 271.728H185.853V280H184.029V271.728ZM191.52 271.504C193.664 271.504 195.072 272.608 195.248 274.496H193.424C193.28 273.504 192.592 272.944 191.536 272.944C190.128 272.944 189.264 273.952 189.264 275.952C189.264 277.552 190.032 278.784 191.456 278.784C192.496 278.784 193.232 278.144 193.424 276.896H195.248C194.896 279.072 193.552 280.224 191.456 280.224C189.04 280.224 187.44 278.592 187.44 275.952C187.44 273.312 188.912 271.504 191.52 271.504ZM200.331 271.504C202.667 271.504 204.267 273.424 204.267 275.712C204.267 275.92 204.251 276.128 204.235 276.336H198.155C198.155 277.696 198.939 278.784 200.379 278.784C201.387 278.784 202.059 278.368 202.395 277.408H204.123C203.755 279.184 202.187 280.224 200.379 280.224C197.771 280.224 196.331 278.4 196.331 275.888C196.331 273.504 197.867 271.504 200.331 271.504ZM198.155 275.136H202.411C202.315 273.984 201.563 272.944 200.315 272.944C199.035 272.944 198.219 273.92 198.155 275.136ZM213.69 271.504C215.69 271.504 217.002 272.448 217.002 273.856V278.208C217.002 278.64 217.098 278.784 217.498 278.784C217.594 278.784 217.754 278.784 217.882 278.752V280.016C217.418 280.144 216.938 280.224 216.73 280.224C215.93 280.224 215.45 279.904 215.322 279.216C214.666 279.872 213.466 280.224 212.458 280.224C210.826 280.224 209.626 279.328 209.626 277.808C209.626 276.256 210.538 275.648 211.77 275.392C212.394 275.264 213.082 275.184 213.85 275.088C214.954 274.96 215.29 274.704 215.29 274.064C215.29 273.344 214.714 272.944 213.578 272.944C212.458 272.944 211.834 273.424 211.754 274.256H209.93C210.058 272.448 211.37 271.504 213.69 271.504ZM211.45 277.648C211.45 278.336 212.026 278.784 213.018 278.784C214.266 278.784 215.178 278.16 215.178 277.264V275.856C214.682 276.16 214.442 276.16 213.178 276.32C211.978 276.464 211.45 276.896 211.45 277.648ZM223.317 271.504C225.221 271.504 226.229 272.592 226.229 274.256V280H224.405V274.832C224.405 273.776 224.037 272.944 222.789 272.944C221.509 272.944 220.789 274 220.789 275.072V280H218.965V271.728H220.693V272.944L220.725 272.976C221.317 272.016 222.261 271.504 223.317 271.504ZM234.12 268.576H235.944V280H234.216V278.88H234.184C233.688 279.792 232.744 280.224 231.624 280.224C229.256 280.224 227.752 278.544 227.752 275.808C227.752 273.072 229.288 271.504 231.336 271.504C232.52 271.504 233.592 272 234.088 272.8H234.12V268.576ZM229.576 275.952C229.576 277.552 230.44 278.784 231.864 278.784C233.32 278.784 234.184 277.504 234.184 275.856C234.184 274.064 233.336 272.944 231.88 272.944C230.424 272.944 229.576 274.192 229.576 275.952ZM245.571 271.504C247.539 271.504 248.851 272.4 249.027 274.048H247.123C246.979 273.296 246.435 272.944 245.443 272.944C244.547 272.944 243.939 273.248 243.939 273.792C243.939 274.368 244.435 274.688 246.035 274.992C248.579 275.456 249.299 276.256 249.299 277.536C249.299 279.264 247.715 280.224 245.603 280.224C243.427 280.224 241.987 279.248 241.939 277.344H243.763C243.875 278.32 244.499 278.784 245.635 278.784C246.755 278.784 247.475 278.464 247.475 277.744C247.475 277.168 247.107 276.736 244.803 276.336C243.427 276.096 242.115 275.488 242.115 273.872C242.115 272.32 243.635 271.504 245.571 271.504ZM250.684 271.728H252.508V276.864C252.508 278.096 252.972 278.784 254.092 278.784C255.452 278.784 256.124 277.968 256.124 276.592V271.728H257.948V280H256.156V278.848H256.124C255.644 279.696 254.7 280.224 253.756 280.224C251.644 280.224 250.684 279.152 250.684 277.056V271.728ZM264.239 271.504C266.831 271.504 268.111 273.488 268.111 275.904C268.111 278.08 267.023 280.224 264.543 280.224C263.503 280.224 262.335 279.856 261.775 278.928H261.743V283.056H259.919V271.728H261.647V272.848H261.679C262.207 271.888 263.183 271.504 264.239 271.504ZM261.679 275.872C261.679 277.296 262.383 278.784 263.999 278.784C265.647 278.784 266.287 277.312 266.287 275.872C266.287 274.496 265.599 272.944 263.983 272.944C262.287 272.944 261.679 274.384 261.679 275.872ZM274.02 271.504C276.612 271.504 277.892 273.488 277.892 275.904C277.892 278.08 276.804 280.224 274.324 280.224C273.284 280.224 272.116 279.856 271.556 278.928H271.524V283.056H269.7V271.728H271.428V272.848H271.46C271.988 271.888 272.964 271.504 274.02 271.504ZM271.46 275.872C271.46 277.296 272.164 278.784 273.78 278.784C275.428 278.784 276.068 277.312 276.068 275.872C276.068 274.496 275.38 272.944 273.764 272.944C272.068 272.944 271.46 274.384 271.46 275.872ZM283.226 271.504C285.818 271.504 287.402 273.328 287.402 275.856C287.402 278.432 285.818 280.224 283.226 280.224C280.634 280.224 279.05 278.448 279.05 275.856C279.05 273.328 280.634 271.504 283.226 271.504ZM280.874 275.856C280.874 277.28 281.61 278.784 283.226 278.784C284.842 278.784 285.578 277.296 285.578 275.856C285.578 274.384 284.858 272.944 283.21 272.944C281.626 272.944 280.874 274.4 280.874 275.856ZM293.078 271.504C293.43 271.504 293.494 271.504 293.766 271.552V273.312C293.494 273.264 293.238 273.232 292.982 273.232C291.622 273.232 290.742 274.416 290.742 276V280H288.918V271.728H290.63V273.328H290.662C290.918 272.272 292.15 271.504 293.078 271.504ZM295.275 269.248H297.099V271.728H298.747V273.088H297.099V277.6C297.099 278.464 297.307 278.64 298.011 278.64C298.347 278.64 298.683 278.608 298.747 278.576V279.984C298.027 280.064 297.819 280.08 297.563 280.08C295.819 280.08 295.275 279.52 295.275 277.856V273.088H293.899V271.728H295.275V269.248ZM44.477 295.504C46.445 295.504 47.757 296.4 47.933 298.048H46.029C45.885 297.296 45.341 296.944 44.349 296.944C43.453 296.944 42.845 297.248 42.845 297.792C42.845 298.368 43.341 298.688 44.941 298.992C47.485 299.456 48.205 300.256 48.205 301.536C48.205 303.264 46.621 304.224 44.509 304.224C42.333 304.224 40.893 303.248 40.845 301.344H42.669C42.781 302.32 43.405 302.784 44.541 302.784C45.661 302.784 46.381 302.464 46.381 301.744C46.381 301.168 46.013 300.736 43.709 300.336C42.333 300.096 41.021 299.488 41.021 297.872C41.021 296.32 42.541 295.504 44.477 295.504ZM53.3819 295.504C55.9739 295.504 57.5579 297.328 57.5579 299.856C57.5579 302.432 55.9739 304.224 53.3819 304.224C50.7899 304.224 49.2059 302.448 49.2059 299.856C49.2059 297.328 50.7899 295.504 53.3819 295.504ZM51.0299 299.856C51.0299 301.28 51.7659 302.784 53.3819 302.784C54.9979 302.784 55.7339 301.296 55.7339 299.856C55.7339 298.384 55.0139 296.944 53.3659 296.944C51.7819 296.944 51.0299 298.4 51.0299 299.856ZM59.1223 292.576H60.9463V304H59.1223V292.576ZM62.9336 295.728H64.7576V300.864C64.7576 302.096 65.2216 302.784 66.3416 302.784C67.7016 302.784 68.3736 301.968 68.3736 300.592V295.728H70.1976V304H68.4056V302.848H68.3736C67.8936 303.696 66.9496 304.224 66.0056 304.224C63.8936 304.224 62.9336 303.152 62.9336 301.056V295.728ZM72.6651 293.248H74.4891V295.728H76.1371V297.088H74.4891V301.6C74.4891 302.464 74.6971 302.64 75.4011 302.64C75.7371 302.64 76.0731 302.608 76.1371 302.576V303.984C75.4171 304.064 75.2091 304.08 74.9531 304.08C73.2091 304.08 72.6651 303.52 72.6651 301.856V297.088H71.2891V295.728H72.6651V293.248ZM77.4973 292.576H79.3213V294.304H77.4973V292.576ZM77.4973 295.728H79.3213V304H77.4973V295.728ZM85.1006 295.504C87.6926 295.504 89.2766 297.328 89.2766 299.856C89.2766 302.432 87.6926 304.224 85.1006 304.224C82.5086 304.224 80.9246 302.448 80.9246 299.856C80.9246 297.328 82.5086 295.504 85.1006 295.504ZM82.7486 299.856C82.7486 301.28 83.4846 302.784 85.1006 302.784C86.7166 302.784 87.4526 301.296 87.4526 299.856C87.4526 298.384 86.7326 296.944 85.0846 296.944C83.5006 296.944 82.7486 298.4 82.7486 299.856ZM95.145 295.504C97.049 295.504 98.057 296.592 98.057 298.256V304H96.233V298.832C96.233 297.776 95.865 296.944 94.617 296.944C93.337 296.944 92.617 298 92.617 299.072V304H90.793V295.728H92.521V296.944L92.553 296.976C93.145 296.016 94.089 295.504 95.145 295.504Z" fill="black"/>
</svg>
