<svg width="384" height="363" viewBox="0 0 384 363" fill="none" xmlns="http://www.w3.org/2000/svg">
<rect width="383.333" height="363" fill="#F5F5F5"/>
<path d="M72.5847 87.2979H56.9497L52.4796 91.7818V96.9727H51.1905L47.9956 102.177H52.4796V116.322L57.6913 111.111V102.177H64.0187L67.0265 96.9727H57.6913V92.5026H69.5977L72.5847 87.2979Z" fill="#005DAA"/>
<path d="M42.488 100.32C42.488 96.7918 43.5343 93.3428 45.4944 90.4092C47.4546 87.4756 50.2406 85.1892 53.5003 83.839C56.7599 82.4888 60.3467 82.1356 63.8071 82.8239C67.2675 83.5122 70.4461 85.2112 72.9409 87.706C75.4358 90.2008 77.1348 93.3794 77.8231 96.8398C78.5114 100.3 78.1581 103.887 76.8079 107.147C75.4577 110.406 73.1713 113.192 70.2377 115.153C67.3041 117.113 63.8551 118.159 60.3269 118.159C57.984 118.16 55.6639 117.699 53.4992 116.803C51.3345 115.907 49.3676 114.593 47.7109 112.936C46.0542 111.279 44.7402 109.312 43.8441 107.148C42.9479 104.983 42.4871 102.663 42.488 100.32ZM60.3269 120.64C64.3455 120.639 68.2735 119.446 71.6142 117.212C74.9549 114.978 77.5583 111.804 79.0952 108.091C80.6321 104.378 81.0335 100.293 80.2487 96.3515C79.4639 92.4103 77.528 88.7903 74.686 85.9491C71.8439 83.108 68.2232 81.1734 64.2817 80.3899C60.3402 79.6065 56.2549 80.0093 52.5423 81.5474C48.8297 83.0856 45.6565 85.6901 43.4241 89.0315C41.1916 92.373 40 96.3014 40 100.32C40 102.989 40.5258 105.632 41.5474 108.098C42.569 110.564 44.0664 112.804 45.954 114.691C47.8417 116.578 50.0825 118.074 52.5487 119.095C55.0148 120.116 57.6579 120.641 60.3269 120.64Z" fill="#005DAA"/>
<path d="M123.553 114.493H127.822V103.071C127.822 100.223 129.659 97.9776 132.507 97.9776C135.016 97.9776 136.215 99.2875 136.284 102.323V114.493H140.554V101.173C140.554 96.8272 137.899 94.5817 133.706 94.5817C132.552 94.5644 131.413 94.8425 130.396 95.3896C129.38 95.9366 128.52 96.7345 127.899 97.7073H127.822V87.6582L123.553 89.8413V114.493Z" fill="#005DAA"/>
<path d="M86.4087 98.3173H89.5898V114.493H93.8589V98.3173H96.5202L97.4904 95.1363H93.8589V93.1472C93.8589 91.5394 94.7945 91.1305 95.938 91.1305C96.6058 91.1113 97.2731 91.1859 97.9201 91.3523V88.0049C96.9371 87.7919 95.9313 87.7034 94.9262 87.7415C92.154 87.7415 89.569 88.5662 89.569 93.5076V95.1224H86.4087V98.3035V98.3173Z" fill="#005DAA"/>
<path d="M99.3481 114.493H103.61V95.1362H99.3481V114.493Z" fill="#005DAA"/>
<path d="M104.948 108.276C105.024 112.843 108.656 115.019 113.521 115.019C117.533 115.019 122.177 113.328 122.177 108.727C122.177 104.908 119.03 103.785 115.939 103.071C112.848 102.358 109.654 102.06 109.654 99.9666C109.654 98.2825 111.934 97.9776 113.167 97.9776C115.045 97.9776 116.729 98.5389 117.104 100.563H121.56C121.033 96.2588 117.402 94.6094 113.472 94.6094C109.952 94.6094 105.384 95.9192 105.384 100.154C105.384 104.083 108.455 105.206 111.622 105.878C114.789 106.55 117.859 106.855 117.956 109.101C118.053 111.346 115.26 111.644 113.645 111.644C111.365 111.644 109.487 110.75 109.265 108.276H104.948Z" fill="#005DAA"/>
<path d="M156.11 103.113H146.172C146.283 100.223 148.307 97.9776 151.266 97.9776C154.225 97.9776 155.986 100.41 156.117 103.113H156.11ZM151.259 94.6094C145.493 94.6094 141.896 99.329 141.896 104.832C141.896 110.785 145.306 115.019 151.37 115.019C155.604 115.019 159.194 112.656 160.13 108.429H156.089C155.341 110.563 153.837 111.644 151.37 111.644C147.815 111.644 146.165 108.948 146.165 105.92H160.379C161.072 100.112 157.344 94.6094 151.245 94.6094H151.259Z" fill="#005DAA"/>
<path d="M161.761 114.493H166.03V105.282C166.03 101.013 168.352 98.6565 171.269 98.6565C171.885 98.6807 172.498 98.7432 173.106 98.8436V94.6854C172.573 94.6077 172.036 94.5706 171.498 94.5745C168.871 94.5745 166.328 96.7853 165.843 98.8436H165.767V95.1012H161.761V114.493Z" fill="#005DAA"/>
<path d="M104.948 87.6929L103.666 91.7957L99.3481 91.7887L100.623 87.6929H104.948Z" fill="#005DAA"/>
<path d="M192.752 100.667C192.6 96.4321 189.502 94.3945 185.614 94.3945C182.149 94.3945 178.282 95.9054 178.282 99.8696C178.282 103.196 180.624 104.25 183.722 105.081L186.785 105.774C188.934 106.308 191.048 107.063 191.048 109.33C191.048 112.046 187.957 113.03 185.725 113.03C182.551 113.03 180.181 111.367 179.987 108.179H177.603C177.984 112.933 181.068 115.054 185.614 115.054C189.239 115.054 193.432 113.425 193.432 109.198C193.432 105.795 190.597 104.215 187.887 103.799L184.713 103.106C183.084 102.69 180.673 101.935 180.673 99.821C180.673 97.2914 183.161 96.4598 185.275 96.4598C187.998 96.4598 190.264 97.7835 190.375 100.729L192.752 100.667Z" fill="#58595B"/>
<path d="M211.311 101.082C210.784 96.6261 207.575 94.3945 203.417 94.3945C197.45 94.3945 194.207 99.1141 194.207 104.707C194.207 110.3 197.45 115.033 203.396 115.033C207.742 115.033 210.805 112.157 211.442 107.479H209.065C208.76 110.723 206.342 113.023 203.396 113.023C198.829 113.023 196.563 108.865 196.563 104.707C196.563 100.549 198.829 96.3905 203.396 96.3905C206.494 96.3905 208.248 98.1647 208.941 101.075L211.311 101.082Z" fill="#58595B"/>
<path d="M212.779 114.451H215.156V94.9629H212.779V114.451Z" fill="#58595B"/>
<path d="M231.462 103.349H218.848C219.223 99.7933 221.378 96.4182 225.266 96.4182C229.154 96.4182 231.351 99.7795 231.462 103.349ZM225.266 94.3945C219.077 94.3945 216.471 99.5716 216.471 104.707C216.471 110.251 219.077 115.019 225.266 115.019C230.18 115.019 232.744 112.448 233.77 108.027H231.413C230.658 110.979 228.773 113.017 225.294 113.017C220.726 113.017 218.911 108.824 218.876 105.345H233.873C234.061 99.8696 231.566 94.3945 225.294 94.3945H225.266Z" fill="#58595B"/>
<path d="M235.162 114.451H237.539V103.078C237.615 99.2666 239.881 96.3974 243.658 96.3974C247.436 96.3974 248.607 98.927 248.607 102.288V114.451H250.984V101.914C250.984 97.2637 249.321 94.3945 243.846 94.3945C241.073 94.3945 238.481 95.9816 237.608 98.3241H237.532V94.9351H235.155V114.451H235.162Z" fill="#58595B"/>
<path d="M254.773 91.2343V94.9351H251.377V96.938H254.773V110.293C254.773 113.62 255.833 114.68 259.007 114.68C259.7 114.68 260.393 114.604 261.121 114.604V112.559C260.445 112.636 259.764 112.676 259.084 112.677C257.379 112.559 257.15 111.658 257.15 110.106V96.938H261.121V94.9351H257.15V89.9868L254.773 91.2343Z" fill="#58595B"/>
<path d="M262.512 114.451H264.896V94.9629H262.512V114.451Z" fill="#58595B"/>
<path d="M277.282 114.451H279.666V94.9629H277.282V114.451Z" fill="#58595B"/>
<path d="M269.617 114.451H271.994V96.9655H275.847V94.9349H271.994V93.2647C272.035 91.144 271.959 89.4876 274.6 89.4876C275.184 89.4956 275.766 89.5582 276.339 89.6747V87.6372C275.677 87.5307 275.007 87.4797 274.336 87.4847C270.525 87.4847 269.575 89.8272 269.617 93.1884V94.9349H266.29V96.9378H269.617V114.451Z" fill="#58595B"/>
<path d="M298.356 101.082C297.822 96.6261 294.613 94.3945 290.462 94.3945C284.495 94.3945 281.245 99.1141 281.245 104.707C281.245 110.3 284.495 115.033 290.462 115.033C294.801 115.033 297.864 112.157 298.501 107.479H296.124C295.826 110.723 293.408 113.023 290.462 113.023C285.888 113.023 283.622 108.865 283.622 104.707C283.622 100.549 285.888 96.3905 290.462 96.3905C293.56 96.3905 295.313 98.1647 296.006 101.075L298.356 101.082Z" fill="#58595B"/>
<path d="M280.834 87.4849L279.656 91.2619H277.3L278.478 87.4849H280.834Z" fill="#58595B"/>
<path d="M266.054 87.4849L264.869 91.2619H262.512L263.69 87.4849H266.054Z" fill="#58595B"/>
<path d="M216.312 87.4849L215.127 91.2619H212.771L213.949 87.4849H216.312Z" fill="#58595B"/>
<path d="M40.128 268.576H49.376V270.304H45.744V280H43.744V270.304H40.128V268.576ZM50.4444 268.576H52.2684V272.816H52.3004C52.8284 271.984 53.7564 271.504 54.7964 271.504C56.7004 271.504 57.7084 272.608 57.7084 274.256V280H55.8844V274.88C55.8844 273.824 55.5644 272.944 54.2684 272.944C53.0044 272.944 52.2684 273.984 52.2684 275.072V280H50.4444V268.576ZM63.2319 271.504C65.5679 271.504 67.1679 273.424 67.1679 275.712C67.1679 275.92 67.1519 276.128 67.1359 276.336H61.0559C61.0559 277.696 61.8399 278.784 63.2799 278.784C64.2879 278.784 64.9599 278.368 65.2959 277.408H67.0239C66.6559 279.184 65.0879 280.224 63.2799 280.224C60.6719 280.224 59.2319 278.4 59.2319 275.888C59.2319 273.504 60.7679 271.504 63.2319 271.504ZM61.0559 275.136H65.3119C65.2159 273.984 64.4639 272.944 63.2159 272.944C61.9359 272.944 61.1199 273.92 61.0559 275.136ZM76.1596 271.504C78.1276 271.504 79.4396 272.4 79.6156 274.048H77.7116C77.5676 273.296 77.0236 272.944 76.0316 272.944C75.1356 272.944 74.5276 273.248 74.5276 273.792C74.5276 274.368 75.0236 274.688 76.6236 274.992C79.1676 275.456 79.8876 276.256 79.8876 277.536C79.8876 279.264 78.3036 280.224 76.1916 280.224C74.0156 280.224 72.5756 279.248 72.5276 277.344H74.3516C74.4636 278.32 75.0876 278.784 76.2236 278.784C77.3436 278.784 78.0636 278.464 78.0636 277.744C78.0636 277.168 77.6956 276.736 75.3916 276.336C74.0156 276.096 72.7036 275.488 72.7036 273.872C72.7036 272.32 74.2236 271.504 76.1596 271.504ZM84.9525 271.504C87.0965 271.504 88.5045 272.608 88.6805 274.496H86.8565C86.7125 273.504 86.0245 272.944 84.9685 272.944C83.5605 272.944 82.6965 273.952 82.6965 275.952C82.6965 277.552 83.4645 278.784 84.8885 278.784C85.9285 278.784 86.6645 278.144 86.8565 276.896H88.6805C88.3285 279.072 86.9845 280.224 84.8885 280.224C82.4725 280.224 80.8725 278.592 80.8725 275.952C80.8725 273.312 82.3445 271.504 84.9525 271.504ZM90.2111 268.576H92.0351V270.304H90.2111V268.576ZM90.2111 271.728H92.0351V280H90.2111V271.728ZM97.6225 271.504C99.9585 271.504 101.559 273.424 101.559 275.712C101.559 275.92 101.543 276.128 101.527 276.336H95.4465C95.4465 277.696 96.2305 278.784 97.6705 278.784C98.6785 278.784 99.3505 278.368 99.6865 277.408H101.415C101.047 279.184 99.4785 280.224 97.6705 280.224C95.0625 280.224 93.6225 278.4 93.6225 275.888C93.6225 273.504 95.1585 271.504 97.6225 271.504ZM95.4465 275.136H99.7025C99.6065 273.984 98.8545 272.944 97.6065 272.944C96.3265 272.944 95.5105 273.92 95.4465 275.136ZM107.265 271.504C109.169 271.504 110.177 272.592 110.177 274.256V280H108.353V274.832C108.353 273.776 107.985 272.944 106.737 272.944C105.457 272.944 104.737 274 104.737 275.072V280H102.913V271.728H104.641V272.944L104.673 272.976C105.265 272.016 106.209 271.504 107.265 271.504ZM112.645 269.248H114.469V271.728H116.117V273.088H114.469V277.6C114.469 278.464 114.677 278.64 115.381 278.64C115.717 278.64 116.053 278.608 116.117 278.576V279.984C115.397 280.064 115.189 280.08 114.933 280.08C113.189 280.08 112.645 279.52 112.645 277.856V273.088H111.269V271.728H112.645V269.248ZM117.477 268.576H119.301V270.304H117.477V268.576ZM117.477 271.728H119.301V280H117.477V271.728ZM123.656 280H121.832V273.088H120.472V271.728H121.832V270.976C121.832 269.28 122.584 268.576 124.136 268.576C124.68 268.576 125.112 268.608 125.4 268.688V270.112C125.208 270.048 124.856 270.016 124.568 270.016C123.928 270.016 123.656 270.336 123.656 270.8V271.728H125.208V273.088H123.656V280ZM126.376 268.576H128.2V270.304H126.376V268.576ZM126.376 271.728H128.2V280H126.376V271.728ZM133.859 271.504C136.003 271.504 137.411 272.608 137.587 274.496H135.763C135.619 273.504 134.931 272.944 133.875 272.944C132.467 272.944 131.603 273.952 131.603 275.952C131.603 277.552 132.371 278.784 133.795 278.784C134.835 278.784 135.571 278.144 135.763 276.896H137.587C137.235 279.072 135.891 280.224 133.795 280.224C131.379 280.224 129.779 278.592 129.779 275.952C129.779 273.312 131.251 271.504 133.859 271.504ZM147.843 271.504C148.803 271.504 149.795 271.92 150.163 272.88C150.803 271.968 151.651 271.504 152.771 271.504C154.579 271.504 155.523 272.416 155.523 274.224V280H153.699V275.008C153.699 273.84 153.587 272.944 152.195 272.944C150.867 272.944 150.435 273.904 150.435 275.088V280H148.611V274.624C148.611 273.6 148.291 272.944 147.171 272.944C146.019 272.944 145.347 273.984 145.347 275.04V280H143.523V271.728H145.251V272.88H145.299C145.939 271.936 146.691 271.504 147.843 271.504ZM161.06 271.504C163.06 271.504 164.372 272.448 164.372 273.856V278.208C164.372 278.64 164.468 278.784 164.868 278.784C164.964 278.784 165.124 278.784 165.252 278.752V280.016C164.788 280.144 164.308 280.224 164.1 280.224C163.3 280.224 162.82 279.904 162.692 279.216C162.036 279.872 160.836 280.224 159.828 280.224C158.196 280.224 156.996 279.328 156.996 277.808C156.996 276.256 157.908 275.648 159.14 275.392C159.764 275.264 160.452 275.184 161.22 275.088C162.324 274.96 162.66 274.704 162.66 274.064C162.66 273.344 162.084 272.944 160.948 272.944C159.828 272.944 159.204 273.424 159.124 274.256H157.3C157.428 272.448 158.74 271.504 161.06 271.504ZM158.82 277.648C158.82 278.336 159.396 278.784 160.388 278.784C161.636 278.784 162.548 278.16 162.548 277.264V275.856C162.052 276.16 161.812 276.16 160.548 276.32C159.348 276.464 158.82 276.896 158.82 277.648ZM170.495 271.504C170.847 271.504 170.911 271.504 171.183 271.552V273.312C170.911 273.264 170.655 273.232 170.399 273.232C169.039 273.232 168.159 274.416 168.159 276V280H166.335V271.728H168.047V273.328H168.079C168.335 272.272 169.567 271.504 170.495 271.504ZM172.008 268.576H173.832V275.072L177.128 271.728H179.368L176.2 274.768L179.672 280H177.448L174.92 275.984L173.832 277.04V280H172.008V268.576ZM183.904 271.504C186.24 271.504 187.84 273.424 187.84 275.712C187.84 275.92 187.824 276.128 187.808 276.336H181.728C181.728 277.696 182.512 278.784 183.952 278.784C184.96 278.784 185.632 278.368 185.968 277.408H187.696C187.328 279.184 185.76 280.224 183.952 280.224C181.344 280.224 179.904 278.4 179.904 275.888C179.904 273.504 181.44 271.504 183.904 271.504ZM181.728 275.136H185.984C185.888 273.984 185.136 272.944 183.888 272.944C182.608 272.944 181.792 273.92 181.728 275.136ZM189.738 269.248H191.562V271.728H193.21V273.088H191.562V277.6C191.562 278.464 191.77 278.64 192.474 278.64C192.81 278.64 193.146 278.608 193.21 278.576V279.984C192.49 280.064 192.282 280.08 192.026 280.08C190.282 280.08 189.738 279.52 189.738 277.856V273.088H188.362V271.728H189.738V269.248ZM198.891 271.504C201.483 271.504 202.763 273.488 202.763 275.904C202.763 278.08 201.675 280.224 199.195 280.224C198.155 280.224 196.987 279.856 196.427 278.928H196.395V283.056H194.571V271.728H196.299V272.848H196.331C196.859 271.888 197.835 271.504 198.891 271.504ZM196.331 275.872C196.331 277.296 197.035 278.784 198.651 278.784C200.299 278.784 200.939 277.312 200.939 275.872C200.939 274.496 200.251 272.944 198.635 272.944C196.939 272.944 196.331 274.384 196.331 275.872ZM204.352 268.576H206.176V280H204.352V268.576ZM211.779 271.504C213.779 271.504 215.091 272.448 215.091 273.856V278.208C215.091 278.64 215.187 278.784 215.587 278.784C215.683 278.784 215.843 278.784 215.971 278.752V280.016C215.507 280.144 215.027 280.224 214.819 280.224C214.019 280.224 213.539 279.904 213.411 279.216C212.755 279.872 211.555 280.224 210.547 280.224C208.915 280.224 207.715 279.328 207.715 277.808C207.715 276.256 208.627 275.648 209.859 275.392C210.483 275.264 211.171 275.184 211.939 275.088C213.043 274.96 213.379 274.704 213.379 274.064C213.379 273.344 212.803 272.944 211.667 272.944C210.547 272.944 209.923 273.424 209.843 274.256H208.019C208.147 272.448 209.459 271.504 211.779 271.504ZM209.539 277.648C209.539 278.336 210.115 278.784 211.107 278.784C212.355 278.784 213.267 278.16 213.267 277.264V275.856C212.771 276.16 212.531 276.16 211.267 276.32C210.067 276.464 209.539 276.896 209.539 277.648ZM220.734 271.504C222.878 271.504 224.286 272.608 224.462 274.496H222.638C222.494 273.504 221.806 272.944 220.75 272.944C219.342 272.944 218.478 273.952 218.478 275.952C218.478 277.552 219.246 278.784 220.67 278.784C221.71 278.784 222.446 278.144 222.638 276.896H224.462C224.11 279.072 222.766 280.224 220.67 280.224C218.254 280.224 216.654 278.592 216.654 275.952C216.654 273.312 218.126 271.504 220.734 271.504ZM229.544 271.504C231.88 271.504 233.48 273.424 233.48 275.712C233.48 275.92 233.464 276.128 233.448 276.336H227.368C227.368 277.696 228.152 278.784 229.592 278.784C230.6 278.784 231.272 278.368 231.608 277.408H233.336C232.968 279.184 231.4 280.224 229.592 280.224C226.984 280.224 225.544 278.4 225.544 275.888C225.544 273.504 227.08 271.504 229.544 271.504ZM227.368 275.136H231.624C231.528 273.984 230.776 272.944 229.528 272.944C228.248 272.944 227.432 273.92 227.368 275.136ZM241.656 280H239.832V273.088H238.472V271.728H239.832V270.976C239.832 269.28 240.584 268.576 242.136 268.576C242.68 268.576 243.112 268.608 243.4 268.688V270.112C243.208 270.048 242.856 270.016 242.568 270.016C241.928 270.016 241.656 270.336 241.656 270.8V271.728H243.208V273.088H241.656V280ZM248.127 271.504C250.719 271.504 252.303 273.328 252.303 275.856C252.303 278.432 250.719 280.224 248.127 280.224C245.535 280.224 243.951 278.448 243.951 275.856C243.951 273.328 245.535 271.504 248.127 271.504ZM245.775 275.856C245.775 277.28 246.511 278.784 248.127 278.784C249.743 278.784 250.479 277.296 250.479 275.856C250.479 274.384 249.759 272.944 248.111 272.944C246.527 272.944 245.775 274.4 245.775 275.856ZM257.979 271.504C258.331 271.504 258.395 271.504 258.667 271.552V273.312C258.395 273.264 258.139 273.232 257.883 273.232C256.523 273.232 255.643 274.416 255.643 276V280H253.819V271.728H255.531V273.328H255.563C255.819 272.272 257.051 271.504 257.979 271.504ZM267.578 271.504C269.722 271.504 271.13 272.608 271.306 274.496H269.482C269.338 273.504 268.65 272.944 267.594 272.944C266.186 272.944 265.322 273.952 265.322 275.952C265.322 277.552 266.09 278.784 267.514 278.784C268.554 278.784 269.29 278.144 269.482 276.896H271.306C270.954 279.072 269.61 280.224 267.514 280.224C265.098 280.224 263.498 278.592 263.498 275.952C263.498 273.312 264.97 271.504 267.578 271.504ZM272.788 268.576H274.612V272.816H274.644C275.172 271.984 276.1 271.504 277.14 271.504C279.044 271.504 280.052 272.608 280.052 274.256V280H278.228V274.88C278.228 273.824 277.908 272.944 276.612 272.944C275.348 272.944 274.612 273.984 274.612 275.072V280H272.788V268.576ZM285.768 271.504C288.36 271.504 289.944 273.328 289.944 275.856C289.944 278.432 288.36 280.224 285.768 280.224C283.176 280.224 281.592 278.448 281.592 275.856C281.592 273.328 283.176 271.504 285.768 271.504ZM283.416 275.856C283.416 277.28 284.152 278.784 285.768 278.784C287.384 278.784 288.12 277.296 288.12 275.856C288.12 274.384 287.4 272.944 285.752 272.944C284.168 272.944 283.416 274.4 283.416 275.856ZM291.508 268.576H293.332V270.304H291.508V268.576ZM291.508 271.728H293.332V280H291.508V271.728ZM298.999 271.504C301.143 271.504 302.551 272.608 302.727 274.496H300.903C300.759 273.504 300.071 272.944 299.015 272.944C297.607 272.944 296.743 273.952 296.743 275.952C296.743 277.552 297.511 278.784 298.935 278.784C299.975 278.784 300.711 278.144 300.903 276.896H302.727C302.375 279.072 301.031 280.224 298.935 280.224C296.519 280.224 294.919 278.592 294.919 275.952C294.919 273.312 296.391 271.504 298.999 271.504ZM307.81 271.504C310.146 271.504 311.746 273.424 311.746 275.712C311.746 275.92 311.73 276.128 311.714 276.336H305.634C305.634 277.696 306.418 278.784 307.858 278.784C308.866 278.784 309.538 278.368 309.874 277.408H311.602C311.234 279.184 309.666 280.224 307.858 280.224C305.25 280.224 303.81 278.4 303.81 275.888C303.81 273.504 305.346 271.504 307.81 271.504ZM305.634 275.136H309.89C309.794 273.984 309.042 272.944 307.794 272.944C306.514 272.944 305.698 273.92 305.634 275.136ZM321.17 271.504C323.17 271.504 324.482 272.448 324.482 273.856V278.208C324.482 278.64 324.578 278.784 324.978 278.784C325.074 278.784 325.234 278.784 325.362 278.752V280.016C324.898 280.144 324.418 280.224 324.21 280.224C323.41 280.224 322.93 279.904 322.802 279.216C322.146 279.872 320.946 280.224 319.938 280.224C318.306 280.224 317.106 279.328 317.106 277.808C317.106 276.256 318.018 275.648 319.25 275.392C319.874 275.264 320.562 275.184 321.33 275.088C322.434 274.96 322.77 274.704 322.77 274.064C322.77 273.344 322.194 272.944 321.058 272.944C319.938 272.944 319.314 273.424 319.234 274.256H317.41C317.538 272.448 318.85 271.504 321.17 271.504ZM318.93 277.648C318.93 278.336 319.506 278.784 320.498 278.784C321.746 278.784 322.658 278.16 322.658 277.264V275.856C322.162 276.16 321.922 276.16 320.658 276.32C319.458 276.464 318.93 276.896 318.93 277.648ZM330.796 271.504C332.7 271.504 333.708 272.592 333.708 274.256V280H331.884V274.832C331.884 273.776 331.516 272.944 330.268 272.944C328.988 272.944 328.268 274 328.268 275.072V280H326.444V271.728H328.172V272.944L328.204 272.976C328.796 272.016 329.74 271.504 330.796 271.504ZM341.6 268.576H343.424V280H341.696V278.88H341.664C341.168 279.792 340.224 280.224 339.104 280.224C336.736 280.224 335.232 278.544 335.232 275.808C335.232 273.072 336.768 271.504 338.816 271.504C340 271.504 341.072 272 341.568 272.8H341.6V268.576ZM337.056 275.952C337.056 277.552 337.92 278.784 339.344 278.784C340.8 278.784 341.664 277.504 341.664 275.856C341.664 274.064 340.816 272.944 339.36 272.944C337.904 272.944 337.056 274.192 337.056 275.952ZM44.64 295.504C46.784 295.504 48.192 296.608 48.368 298.496H46.544C46.4 297.504 45.712 296.944 44.656 296.944C43.248 296.944 42.384 297.952 42.384 299.952C42.384 301.552 43.152 302.784 44.576 302.784C45.616 302.784 46.352 302.144 46.544 300.896H48.368C48.016 303.072 46.672 304.224 44.576 304.224C42.16 304.224 40.56 302.592 40.56 299.952C40.56 297.312 42.032 295.504 44.64 295.504ZM53.6426 295.504C56.2346 295.504 57.8186 297.328 57.8186 299.856C57.8186 302.432 56.2346 304.224 53.6426 304.224C51.0506 304.224 49.4666 302.448 49.4666 299.856C49.4666 297.328 51.0506 295.504 53.6426 295.504ZM51.2906 299.856C51.2906 301.28 52.0266 302.784 53.6426 302.784C55.2586 302.784 55.9946 301.296 55.9946 299.856C55.9946 298.384 55.2746 296.944 53.6266 296.944C52.0426 296.944 51.2906 298.4 51.2906 299.856ZM63.687 295.504C65.591 295.504 66.599 296.592 66.599 298.256V304H64.775V298.832C64.775 297.776 64.407 296.944 63.159 296.944C61.879 296.944 61.159 298 61.159 299.072V304H59.335V295.728H61.063V296.944L61.095 296.976C61.687 296.016 62.631 295.504 63.687 295.504ZM67.7065 295.728H69.6905L71.7865 302.08H71.8185L73.8345 295.728H75.7225L72.7625 304H70.7145L67.7065 295.728ZM80.4194 295.504C82.7554 295.504 84.3554 297.424 84.3554 299.712C84.3554 299.92 84.3394 300.128 84.3234 300.336H78.2434C78.2434 301.696 79.0274 302.784 80.4674 302.784C81.4754 302.784 82.1474 302.368 82.4834 301.408H84.2114C83.8434 303.184 82.2754 304.224 80.4674 304.224C77.8594 304.224 76.4194 302.4 76.4194 299.888C76.4194 297.504 77.9554 295.504 80.4194 295.504ZM78.2434 299.136H82.4994C82.4034 297.984 81.6514 296.944 80.4034 296.944C79.1234 296.944 78.3074 297.92 78.2434 299.136ZM90.062 295.504C91.966 295.504 92.974 296.592 92.974 298.256V304H91.15V298.832C91.15 297.776 90.782 296.944 89.534 296.944C88.254 296.944 87.534 298 87.534 299.072V304H85.71V295.728H87.438V296.944L87.47 296.976C88.062 296.016 89.006 295.504 90.062 295.504ZM94.9455 292.576H96.7695V294.304H94.9455V292.576ZM94.9455 295.728H96.7695V304H94.9455V295.728ZM102.357 295.504C104.693 295.504 106.293 297.424 106.293 299.712C106.293 299.92 106.277 300.128 106.261 300.336H100.181C100.181 301.696 100.965 302.784 102.405 302.784C103.413 302.784 104.085 302.368 104.421 301.408H106.149C105.781 303.184 104.213 304.224 102.405 304.224C99.7969 304.224 98.3569 302.4 98.3569 299.888C98.3569 297.504 99.8929 295.504 102.357 295.504ZM100.181 299.136H104.437C104.341 297.984 103.589 296.944 102.341 296.944C101.061 296.944 100.245 297.92 100.181 299.136ZM112 295.504C113.904 295.504 114.911 296.592 114.911 298.256V304H113.088V298.832C113.088 297.776 112.72 296.944 111.472 296.944C110.192 296.944 109.472 298 109.472 299.072V304H107.648V295.728H109.376V296.944L109.408 296.976C110 296.016 110.944 295.504 112 295.504ZM120.515 295.504C122.659 295.504 124.067 296.608 124.243 298.496H122.419C122.275 297.504 121.587 296.944 120.531 296.944C119.123 296.944 118.259 297.952 118.259 299.952C118.259 301.552 119.027 302.784 120.451 302.784C121.491 302.784 122.227 302.144 122.419 300.896H124.243C123.891 303.072 122.547 304.224 120.451 304.224C118.035 304.224 116.435 302.592 116.435 299.952C116.435 297.312 117.907 295.504 120.515 295.504ZM129.326 295.504C131.662 295.504 133.262 297.424 133.262 299.712C133.262 299.92 133.246 300.128 133.23 300.336H127.15C127.15 301.696 127.934 302.784 129.374 302.784C130.382 302.784 131.054 302.368 131.39 301.408H133.118C132.75 303.184 131.182 304.224 129.374 304.224C126.766 304.224 125.326 302.4 125.326 299.888C125.326 297.504 126.862 295.504 129.326 295.504ZM127.15 299.136H131.406C131.31 297.984 130.558 296.944 129.31 296.944C128.03 296.944 127.214 297.92 127.15 299.136Z" fill="black"/>
</svg>
