<svg width="318" height="78" viewBox="0 0 318 78" fill="none" xmlns="http://www.w3.org/2000/svg">
<path d="M28.5 19L38 0V78H0L28.5 19Z" fill="#E71316"/>
<rect width="281" height="78" transform="translate(37)" fill="#E71316"/>
<path d="M103.416 33.076H111.64V34.804H105.416V37.796H111.176V39.428H105.416V42.772H111.752V44.5H103.416V33.076ZM113.238 36.228H115.446L117.174 38.772L118.982 36.228H121.094L118.278 40.052L121.446 44.5H119.254L117.158 41.444L115.126 44.5H112.982L116.102 40.148L113.238 36.228ZM127.48 36.004C130.072 36.004 131.352 37.988 131.352 40.404C131.352 42.58 130.264 44.724 127.784 44.724C126.744 44.724 125.576 44.356 125.016 43.428H124.984V47.556H123.16V36.228H124.888V37.348H124.92C125.448 36.388 126.424 36.004 127.48 36.004ZM124.92 40.372C124.92 41.796 125.624 43.284 127.24 43.284C128.888 43.284 129.528 41.812 129.528 40.372C129.528 38.996 128.84 37.444 127.224 37.444C125.528 37.444 124.92 38.884 124.92 40.372ZM133.581 33.076H135.405V44.5H133.581V33.076ZM141.825 36.004C144.417 36.004 146.001 37.828 146.001 40.356C146.001 42.932 144.417 44.724 141.825 44.724C139.233 44.724 137.649 42.948 137.649 40.356C137.649 37.828 139.233 36.004 141.825 36.004ZM139.473 40.356C139.473 41.78 140.209 43.284 141.825 43.284C143.441 43.284 144.177 41.796 144.177 40.356C144.177 38.884 143.457 37.444 141.809 37.444C140.225 37.444 139.473 38.9 139.473 40.356ZM152.317 36.004C152.669 36.004 152.733 36.004 153.005 36.052V37.812C152.733 37.764 152.477 37.732 152.221 37.732C150.861 37.732 149.981 38.916 149.981 40.5V44.5H148.157V36.228H149.869V37.828H149.901C150.157 36.772 151.389 36.004 152.317 36.004ZM157.835 36.004C160.171 36.004 161.771 37.924 161.771 40.212C161.771 40.42 161.755 40.628 161.739 40.836H155.659C155.659 42.196 156.443 43.284 157.883 43.284C158.891 43.284 159.563 42.868 159.899 41.908H161.627C161.259 43.684 159.691 44.724 157.883 44.724C155.275 44.724 153.835 42.9 153.835 40.388C153.835 38.004 155.371 36.004 157.835 36.004ZM155.659 39.636H159.915C159.819 38.484 159.067 37.444 157.819 37.444C156.539 37.444 155.723 38.42 155.659 39.636ZM169.114 33.076H177.338V34.804H171.114V37.796H176.874V39.428H171.114V42.772H177.45V44.5H169.114V33.076ZM183.752 32.804C186.232 32.804 188.12 34.148 188.136 36.452H186.136V36.436C186.008 35.092 185.208 34.436 183.672 34.436C182.472 34.436 181.576 34.964 181.576 35.924C181.576 36.676 182.056 37.172 183.032 37.428L186.088 38.228C187.064 38.484 188.456 39.412 188.456 41.188C188.456 43.444 186.6 44.772 183.912 44.772C181.048 44.772 179.192 43.316 179.144 40.692H181.144C181.16 42.324 182.296 43.14 184.04 43.14C185.576 43.14 186.456 42.42 186.456 41.412C186.456 40.692 186.104 40.196 185.512 40.004C184.872 39.796 184.376 39.652 182.248 39.108C180.44 38.66 179.576 37.652 179.576 36.164C179.576 33.844 181.672 32.804 183.752 32.804ZM195.791 32.804C198.239 32.804 200.367 34.1 200.687 36.708H198.735C198.511 35.188 197.151 34.436 195.791 34.436C193.359 34.436 192.319 36.644 192.319 38.788C192.319 41.028 193.343 43.14 195.855 43.14C197.839 43.14 198.943 41.956 198.991 40.004H195.951V38.484H200.815V44.5H199.535L199.231 43.156C198.255 44.276 197.279 44.772 195.791 44.772C192.383 44.772 190.319 42.036 190.319 38.788C190.319 35.54 192.383 32.804 195.791 32.804ZM208.673 33.076H210.673V37.62H215.873V33.076H217.873V44.5H215.873V39.348H210.673V44.5H208.673V33.076ZM220.652 36.228H222.476V41.364C222.476 42.596 222.94 43.284 224.06 43.284C225.42 43.284 226.092 42.468 226.092 41.092V36.228H227.916V44.5H226.124V43.348H226.092C225.612 44.196 224.668 44.724 223.724 44.724C221.612 44.724 220.652 43.652 220.652 41.556V36.228ZM230.528 33.076H232.352V37.3H232.384C232.912 36.5 233.888 36.004 234.848 36.004C237.424 36.004 238.72 37.908 238.72 40.404C238.72 42.628 237.616 44.724 235.152 44.724C234.016 44.724 232.88 44.436 232.288 43.364H232.256V44.5H230.528V33.076ZM232.288 40.372C232.288 41.796 232.992 43.284 234.608 43.284C236.256 43.284 236.896 41.812 236.896 40.372C236.896 38.98 236.176 37.444 234.592 37.444C232.896 37.444 232.288 38.884 232.288 40.372Z" fill="white"/>
</svg>
