<svg width="52" height="52" viewBox="0 0 52 52" fill="none" xmlns="http://www.w3.org/2000/svg">
<path d="M0 0H52V52H0V0Z" fill="#E71316"/>
<path fill-rule="evenodd" clip-rule="evenodd" d="M34.0394 28.1704C34.4091 28.1704 34.5486 28.1595 34.7286 28.0727C34.9549 27.9647 35.1194 27.6864 35.1194 27.3681C35.1194 27.0487 34.9549 26.771 34.7286 26.663C34.5486 26.5755 34.4091 26.5647 34.0394 26.5647H31.184C30.9166 26.5647 30.5817 26.5647 30.3303 26.8173C30.0777 27.0693 30.0777 27.4035 30.0777 27.6715V32.7178C30.0777 33.1298 30.0829 33.2738 30.1914 33.4893C30.3194 33.747 30.6229 33.9321 30.9834 33.9321C31.3434 33.9321 31.6469 33.747 31.7754 33.4893C31.8834 33.2738 31.8886 33.1298 31.8886 32.7178V31.0613H33.576C33.9469 31.0613 34.0851 31.051 34.2651 30.9641C34.492 30.8555 34.6566 30.5778 34.6566 30.259C34.6566 29.9401 34.492 29.6618 34.2651 29.5544C34.0851 29.4664 33.9469 29.4561 33.576 29.4561H31.8886V28.1704H34.0394ZM25.9034 33.891C27.004 33.891 27.776 33.4687 28.28 32.6561C28.64 32.0698 28.64 31.4933 28.64 30.2275C28.64 28.9624 28.64 28.3864 28.28 27.7995C27.776 26.987 27.004 26.5647 25.9034 26.5647H24.2829C24.0154 26.5647 23.6811 26.5647 23.4291 26.8173C23.1766 27.0693 23.1766 27.4035 23.1766 27.6715V32.7847C23.1766 33.0521 23.1766 33.387 23.4291 33.6384C23.6811 33.891 24.0154 33.891 24.2829 33.891H25.9034ZM18.5383 31.2773H19.6394C21.2646 31.2773 22.1394 30.1253 22.1394 28.9213C22.1394 27.7178 21.2646 26.5647 19.6394 26.5647H17.8337C17.5663 26.5647 17.2314 26.5647 16.9794 26.8173C16.7274 27.0693 16.7274 27.4035 16.7274 27.6715V32.7178C16.7274 33.1298 16.7326 33.2738 16.8406 33.4893C16.9691 33.747 17.2726 33.9321 17.6331 33.9321C17.9931 33.9321 18.2966 33.747 18.4251 33.4893C18.5331 33.2738 18.5383 33.1298 18.5383 32.7178V31.2773ZM30.5594 20.7144H35.7143C36.9714 20.7144 38 21.743 38 23.0001V38.4287C38 39.6858 36.9714 40.7144 35.7143 40.7144H16.2857C15.028 40.7144 14 39.6858 14 38.4287V13.2858C14 12.0287 15.028 11.0001 16.2857 11.0001H25.988C27.2451 11.0001 28.2737 12.0287 28.2737 13.2858V18.4287C28.2737 19.6858 29.3023 20.7144 30.5594 20.7144ZM36.856 18.4286H31.6297C30.9577 18.4286 30.5703 17.9646 30.5703 17.3235V12.1429L36.856 18.4286ZM24.9883 28.1702H25.7809C26.2334 28.1702 26.4803 28.3348 26.6454 28.5816C26.7894 28.7873 26.8403 28.993 26.8403 30.2279C26.8403 31.4725 26.7894 31.6685 26.6454 31.8736C26.4803 32.121 26.2334 32.2856 25.7809 32.2856H24.9883V28.1702ZM19.5573 28.1704H18.5391V29.6727H19.5573C20.0511 29.6727 20.3396 29.307 20.3396 28.9213C20.3396 28.5355 20.0511 28.1704 19.5573 28.1704Z" fill="white"/>
</svg>
