<svg width="384" height="363" viewBox="0 0 384 363" fill="none" xmlns="http://www.w3.org/2000/svg">
<rect width="383.333" height="363" fill="#F5F5F5"/>
<g clip-path="url(#clip0_2416_5725)">
<path d="M59.1211 140.939C58.9311 135.618 55.0508 133.057 50.1846 133.057C45.8793 133.057 41.004 134.955 41.004 139.94C41.004 144.117 43.9346 145.452 47.8149 146.496L51.6499 147.35C54.3634 148.013 56.9864 148.966 56.9864 151.808C56.9864 155.232 53.1152 156.467 50.3203 156.467C46.3496 156.467 43.3738 154.378 43.1386 150.337H40.1538C40.6241 156.321 44.5225 159 50.1846 159C54.7071 159 59.9713 156.957 59.9713 151.636C59.9713 147.368 56.4257 145.37 53.0157 144.853L49.045 143.926C47.0099 143.409 43.9889 142.455 43.9889 139.795C43.9889 136.617 47.1094 135.572 49.7595 135.572C53.1604 135.572 56.0005 137.234 56.1362 140.939H59.1211Z" fill="#55585A"/>
<path d="M83.063 141.457C82.4027 135.854 78.3867 133.057 73.1859 133.057C65.7057 133.057 61.6445 138.996 61.6445 146.015C61.6445 153.034 65.7057 159 73.1859 159C78.6128 159 82.4479 155.368 83.2529 149.502H80.2771C79.8972 153.588 76.8672 156.485 73.1859 156.485C67.4604 156.485 64.6203 151.254 64.6203 146.033C64.6203 140.812 67.4604 135.591 73.1859 135.591C77.0571 135.591 79.2822 137.824 80.0872 141.475L83.063 141.457Z" fill="#55585A"/>
<path d="M86.3735 158.265H89.3493V133.766H86.3735V158.265Z" fill="#55585A"/>
<path d="M111.229 144.308H95.4362C95.9066 139.849 98.602 135.572 103.468 135.572C108.334 135.572 111.084 139.795 111.229 144.308ZM103.468 133.057C95.7166 133.057 92.4604 139.559 92.4604 146.015C92.4604 152.998 95.7166 159 103.468 159C109.619 159 112.839 155.767 114.114 150.21H111.129C110.225 153.915 107.819 156.485 103.468 156.485C97.7517 156.485 95.4815 151.209 95.4362 146.841H114.168C114.403 139.958 111.283 133.075 103.432 133.075L103.468 133.057Z" fill="#55585A"/>
<path d="M116.583 158.264H119.595V143.981C119.686 139.177 122.526 135.572 127.257 135.572C131.987 135.572 133.443 138.751 133.443 142.982V158.264H136.428V142.501C136.428 136.662 134.348 133.057 127.492 133.057C124.037 133.057 120.771 135.055 119.686 137.997H119.595V133.765H116.611V158.283L116.583 158.264Z" fill="#55585A"/>
<path d="M141.15 129.08V133.765H136.89V136.299H141.15V153.043C141.105 157.22 142.47 158.555 146.441 158.555C147.346 158.555 148.196 158.455 149.091 158.455V155.895C148.244 155.988 147.393 156.037 146.541 156.04C144.415 155.895 144.126 154.75 144.126 152.807V136.299H149.091V133.765H144.126V127.518L141.15 129.08Z" fill="#55585A"/>
<path d="M152.302 158.265H155.278V133.766H152.302V158.265Z" fill="#55585A"/>
<path d="M173.702 158.265H176.678V133.766H173.702V158.265Z" fill="#55585A"/>
<path d="M162.64 158.264H165.625V136.299H170.446V133.765H165.625V131.631C165.67 128.971 165.571 126.882 168.881 126.882C169.613 126.898 170.343 126.977 171.061 127.118V124.558C170.233 124.426 169.395 124.362 168.556 124.367C163.78 124.367 162.595 127.309 162.64 131.541V133.765H158.489V136.299H162.649V158.273L162.64 158.264Z" fill="#55585A"/>
<path d="M200.81 141.457C200.15 135.854 196.125 133.057 190.924 133.057C183.453 133.057 179.392 138.996 179.392 146.015C179.392 153.034 183.453 159 190.924 159C196.351 159 200.195 155.368 201 149.502H198.024C197.644 153.588 194.614 156.485 190.924 156.485C185.207 156.485 182.367 151.254 182.367 146.033C182.367 140.812 185.207 135.591 190.924 135.591C194.804 135.591 197.029 137.824 197.834 141.475L200.81 141.457Z" fill="#55585A"/>
<path d="M178.143 124.367L176.66 129.125H173.711L175.186 124.367H178.143Z" fill="#55585A"/>
<path d="M156.725 124.367L155.251 129.125H152.293L153.767 124.367H156.725Z" fill="#55585A"/>
<path d="M90.7965 124.367L89.3222 129.125H86.3735L87.8479 124.367H90.7965Z" fill="#55585A"/>
<path d="M180.902 104.881C180.902 109.158 178.767 113.571 173.946 113.571C169.125 113.571 166.991 109.158 166.991 104.881C166.991 100.604 169.125 96.2452 173.946 96.2452C178.767 96.2452 180.902 100.658 180.902 104.881ZM186.329 104.881C186.329 97.3802 181.806 91.9683 173.983 91.9683C166.159 91.9683 161.636 97.4165 161.636 104.881C161.636 112.345 166.159 117.848 173.983 117.848C181.806 117.848 186.329 112.399 186.329 104.881Z" fill="#E51E25"/>
<path d="M153.704 117.23H159.131V100.231C159.131 94.2473 156.101 91.9681 150.991 91.9681C149.472 91.9304 147.968 92.2867 146.626 93.0024C145.284 93.7182 144.149 94.7694 143.33 96.0543C142.244 93.2484 139.449 91.9681 136.474 91.9681C134.967 91.8826 133.466 92.2195 132.138 92.9411C130.811 93.6627 129.71 94.7406 128.957 96.0543H128.813V92.631H123.702V117.23H129.129V102.601C129.129 98.5242 131.689 96.245 134.475 96.245C137.74 96.245 138.78 98.0611 138.78 101.421V117.23H144.207V102.792C144.207 98.6604 145.763 96.245 149.408 96.245C153.614 96.245 153.858 98.9691 153.858 102.846V117.23H153.704Z" fill="#E51E25"/>
<path d="M118.338 97.0986C119.114 97.1323 119.887 97.2111 120.654 97.3347V92.1135C119.98 92.0114 119.3 91.9628 118.619 91.9682C115.308 91.9682 112.097 94.774 111.482 97.4164H111.383V92.631H106.327V117.23H111.754V105.498C111.754 100.05 114.684 97.0986 118.375 97.0986H118.338Z" fill="#E51E25"/>
<path d="M98.5477 102.747H85.9753C86.1109 99.1146 88.6887 96.2452 92.4062 96.2452C96.1237 96.2452 98.3668 99.3325 98.5477 102.747ZM92.4062 91.9683C85.1703 91.9683 80.5845 97.9523 80.5845 104.935C80.5845 112.481 84.8808 117.848 92.5419 117.848C97.8874 117.848 102.428 114.851 103.613 109.494H98.5025C97.598 112.218 95.6714 113.571 92.5419 113.571C88.0194 113.571 85.9753 110.156 85.9753 106.306H103.948C104.852 98.9511 100.113 91.9683 92.4062 91.9683Z" fill="#E51E25"/>
<mask id="mask0_2416_5725" style="mask-type:luminance" maskUnits="userSpaceOnUse" x="40" y="80" width="161" height="79">
<path d="M201 80.1816H40V158.982H201V80.1816Z" fill="white"/>
</mask>
<g mask="url(#mask0_2416_5725)">
<path d="M72.8058 117.23H78.2327V100.322C78.2327 94.8193 74.8771 91.9681 69.5767 91.9681C68.1266 91.94 66.6933 92.2829 65.4116 92.9644C64.1299 93.6459 63.042 94.6436 62.2503 95.8636H62.1599V85.6662V80.5993V80.1816L56.7329 82.9603V84.6401V87.3643V88.2723V117.23H62.1599V102.701C62.1599 99.069 64.4754 96.245 68.0662 96.245C71.232 96.245 72.7515 97.9067 72.842 101.748V117.23H72.8058Z" fill="#E51E25"/>
<path d="M50.8539 117.421C52.0388 117.421 53.1785 117.23 54.3543 117.13V112.953C53.6085 113.112 52.8458 113.176 52.084 113.144C49.6781 113.144 49.4881 112.009 49.4881 109.775V96.672H54.3543V92.6312H49.461V86.4746L44.034 89.2714V92.6312H40V96.672H44.0702V111.201C44.1607 115.278 45.2008 117.466 50.8268 117.466L50.8539 117.421Z" fill="#E51E25"/>
</g>
</g>
<path d="M44.272 268.576H46.4L50.8 280H48.656L47.584 276.976H43.024L41.952 280H39.888L44.272 268.576ZM45.344 270.544H45.296L43.568 275.456H47.056L45.344 270.544ZM59.765 271.504C61.909 271.504 63.317 272.608 63.493 274.496H61.669C61.525 273.504 60.837 272.944 59.781 272.944C58.373 272.944 57.509 273.952 57.509 275.952C57.509 277.552 58.277 278.784 59.701 278.784C60.741 278.784 61.477 278.144 61.669 276.896H63.493C63.141 279.072 61.797 280.224 59.701 280.224C57.285 280.224 55.685 278.592 55.685 275.952C55.685 273.312 57.157 271.504 59.765 271.504ZM68.7676 271.504C71.3596 271.504 72.9436 273.328 72.9436 275.856C72.9436 278.432 71.3596 280.224 68.7676 280.224C66.1756 280.224 64.5916 278.448 64.5916 275.856C64.5916 273.328 66.1756 271.504 68.7676 271.504ZM66.4156 275.856C66.4156 277.28 67.1516 278.784 68.7676 278.784C70.3836 278.784 71.1196 277.296 71.1196 275.856C71.1196 274.384 70.3996 272.944 68.7516 272.944C67.1676 272.944 66.4156 274.4 66.4156 275.856ZM78.78 271.504C79.74 271.504 80.732 271.92 81.1 272.88C81.74 271.968 82.588 271.504 83.708 271.504C85.516 271.504 86.46 272.416 86.46 274.224V280H84.636V275.008C84.636 273.84 84.524 272.944 83.132 272.944C81.804 272.944 81.372 273.904 81.372 275.088V280H79.548V274.624C79.548 273.6 79.228 272.944 78.108 272.944C76.956 272.944 76.284 273.984 76.284 275.04V280H74.46V271.728H76.188V272.88H76.236C76.876 271.936 77.628 271.504 78.78 271.504ZM92.7019 271.504C93.6619 271.504 94.6539 271.92 95.0219 272.88C95.6619 271.968 96.5099 271.504 97.6299 271.504C99.4379 271.504 100.382 272.416 100.382 274.224V280H98.5579V275.008C98.5579 273.84 98.4459 272.944 97.0539 272.944C95.7259 272.944 95.2939 273.904 95.2939 275.088V280H93.4699V274.624C93.4699 273.6 93.1499 272.944 92.0299 272.944C90.8779 272.944 90.2059 273.984 90.2059 275.04V280H88.3819V271.728H90.1099V272.88H90.1579C90.7979 271.936 91.5499 271.504 92.7019 271.504ZM102.352 268.576H104.176V270.304H102.352V268.576ZM102.352 271.728H104.176V280H102.352V271.728ZM106.707 269.248H108.531V271.728H110.179V273.088H108.531V277.6C108.531 278.464 108.739 278.64 109.443 278.64C109.779 278.64 110.115 278.608 110.179 278.576V279.984C109.459 280.064 109.251 280.08 108.995 280.08C107.251 280.08 106.707 279.52 106.707 277.856V273.088H105.331V271.728H106.707V269.248ZM115.811 271.504C116.771 271.504 117.763 271.92 118.131 272.88C118.771 271.968 119.619 271.504 120.739 271.504C122.547 271.504 123.491 272.416 123.491 274.224V280H121.667V275.008C121.667 273.84 121.555 272.944 120.163 272.944C118.835 272.944 118.403 273.904 118.403 275.088V280H116.579V274.624C116.579 273.6 116.259 272.944 115.139 272.944C113.987 272.944 113.315 273.984 113.315 275.04V280H111.491V271.728H113.219V272.88H113.267C113.907 271.936 114.659 271.504 115.811 271.504ZM129.013 271.504C131.349 271.504 132.949 273.424 132.949 275.712C132.949 275.92 132.933 276.128 132.917 276.336H126.837C126.837 277.696 127.621 278.784 129.061 278.784C130.069 278.784 130.741 278.368 131.077 277.408H132.805C132.437 279.184 130.869 280.224 129.061 280.224C126.453 280.224 125.013 278.4 125.013 275.888C125.013 273.504 126.549 271.504 129.013 271.504ZM126.837 275.136H131.093C130.997 273.984 130.245 272.944 128.997 272.944C127.717 272.944 126.901 273.92 126.837 275.136ZM138.656 271.504C140.56 271.504 141.568 272.592 141.568 274.256V280H139.744V274.832C139.744 273.776 139.376 272.944 138.128 272.944C136.848 272.944 136.128 274 136.128 275.072V280H134.304V271.728H136.032V272.944L136.064 272.976C136.656 272.016 137.6 271.504 138.656 271.504ZM144.035 269.248H145.859V271.728H147.507V273.088H145.859V277.6C145.859 278.464 146.067 278.64 146.771 278.64C147.107 278.64 147.443 278.608 147.507 278.576V279.984C146.787 280.064 146.579 280.08 146.323 280.08C144.579 280.08 144.035 279.52 144.035 277.856V273.088H142.659V271.728H144.035V269.248ZM153.817 269.248H155.641V271.728H157.289V273.088H155.641V277.6C155.641 278.464 155.849 278.64 156.553 278.64C156.889 278.64 157.225 278.608 157.289 278.576V279.984C156.569 280.064 156.361 280.08 156.105 280.08C154.361 280.08 153.817 279.52 153.817 277.856V273.088H152.441V271.728H153.817V269.248ZM162.252 271.504C164.844 271.504 166.428 273.328 166.428 275.856C166.428 278.432 164.844 280.224 162.252 280.224C159.66 280.224 158.076 278.448 158.076 275.856C158.076 273.328 159.66 271.504 162.252 271.504ZM159.9 275.856C159.9 277.28 160.636 278.784 162.252 278.784C163.868 278.784 164.604 277.296 164.604 275.856C164.604 274.384 163.884 272.944 162.236 272.944C160.652 272.944 159.9 274.4 159.9 275.856ZM176.014 271.504C178.014 271.504 179.326 272.448 179.326 273.856V278.208C179.326 278.64 179.422 278.784 179.822 278.784C179.918 278.784 180.078 278.784 180.206 278.752V280.016C179.742 280.144 179.262 280.224 179.054 280.224C178.254 280.224 177.774 279.904 177.646 279.216C176.99 279.872 175.79 280.224 174.782 280.224C173.15 280.224 171.95 279.328 171.95 277.808C171.95 276.256 172.862 275.648 174.094 275.392C174.718 275.264 175.406 275.184 176.174 275.088C177.278 274.96 177.614 274.704 177.614 274.064C177.614 273.344 177.038 272.944 175.902 272.944C174.782 272.944 174.158 273.424 174.078 274.256H172.254C172.382 272.448 173.694 271.504 176.014 271.504ZM173.774 277.648C173.774 278.336 174.35 278.784 175.342 278.784C176.59 278.784 177.502 278.16 177.502 277.264V275.856C177.006 276.16 176.766 276.16 175.502 276.32C174.302 276.464 173.774 276.896 173.774 277.648ZM185.64 271.504C187.544 271.504 188.552 272.592 188.552 274.256V280H186.728V274.832C186.728 273.776 186.36 272.944 185.112 272.944C183.832 272.944 183.112 274 183.112 275.072V280H181.288V271.728H183.016V272.944L183.048 272.976C183.64 272.016 184.584 271.504 185.64 271.504ZM194.092 271.504C196.092 271.504 197.404 272.448 197.404 273.856V278.208C197.404 278.64 197.5 278.784 197.9 278.784C197.996 278.784 198.156 278.784 198.284 278.752V280.016C197.82 280.144 197.34 280.224 197.132 280.224C196.332 280.224 195.852 279.904 195.724 279.216C195.068 279.872 193.868 280.224 192.86 280.224C191.228 280.224 190.028 279.328 190.028 277.808C190.028 276.256 190.94 275.648 192.172 275.392C192.796 275.264 193.484 275.184 194.252 275.088C195.356 274.96 195.692 274.704 195.692 274.064C195.692 273.344 195.116 272.944 193.98 272.944C192.86 272.944 192.236 273.424 192.156 274.256H190.332C190.46 272.448 191.772 271.504 194.092 271.504ZM191.852 277.648C191.852 278.336 192.428 278.784 193.42 278.784C194.668 278.784 195.58 278.16 195.58 277.264V275.856C195.084 276.16 194.844 276.16 193.58 276.32C192.38 276.464 191.852 276.896 191.852 277.648ZM199.414 268.576H201.238V280H199.414V268.576ZM202.314 271.728H204.314L206.474 277.904H206.506L208.602 271.728H210.506L207.322 280.368C206.986 281.312 206.666 281.936 206.41 282.288C205.914 283.008 205.274 283.28 204.346 283.28C203.962 283.28 203.546 283.248 203.098 283.184V281.648C203.37 281.68 203.594 281.76 203.962 281.76C204.554 281.76 204.922 281.504 205.098 281.008L205.45 279.968L202.314 271.728ZM212.067 269.248H213.891V271.728H215.539V273.088H213.891V277.6C213.891 278.464 214.099 278.64 214.803 278.64C215.139 278.64 215.475 278.608 215.539 278.576V279.984C214.819 280.064 214.611 280.08 214.355 280.08C212.611 280.08 212.067 279.52 212.067 277.856V273.088H210.691V271.728H212.067V269.248ZM216.899 268.576H218.723V270.304H216.899V268.576ZM216.899 271.728H218.723V280H216.899V271.728ZM224.39 271.504C226.534 271.504 227.942 272.608 228.118 274.496H226.294C226.15 273.504 225.462 272.944 224.406 272.944C222.998 272.944 222.134 273.952 222.134 275.952C222.134 277.552 222.902 278.784 224.326 278.784C225.366 278.784 226.102 278.144 226.294 276.896H228.118C227.766 279.072 226.422 280.224 224.326 280.224C221.91 280.224 220.31 278.592 220.31 275.952C220.31 273.312 221.782 271.504 224.39 271.504ZM233.217 271.504C235.217 271.504 236.529 272.448 236.529 273.856V278.208C236.529 278.64 236.625 278.784 237.025 278.784C237.121 278.784 237.281 278.784 237.409 278.752V280.016C236.945 280.144 236.465 280.224 236.257 280.224C235.457 280.224 234.977 279.904 234.849 279.216C234.193 279.872 232.993 280.224 231.985 280.224C230.353 280.224 229.153 279.328 229.153 277.808C229.153 276.256 230.065 275.648 231.297 275.392C231.921 275.264 232.609 275.184 233.377 275.088C234.481 274.96 234.817 274.704 234.817 274.064C234.817 273.344 234.241 272.944 233.105 272.944C231.985 272.944 231.361 273.424 231.281 274.256H229.457C229.585 272.448 230.897 271.504 233.217 271.504ZM230.977 277.648C230.977 278.336 231.553 278.784 232.545 278.784C233.793 278.784 234.705 278.16 234.705 277.264V275.856C234.209 276.16 233.969 276.16 232.705 276.32C231.505 276.464 230.977 276.896 230.977 277.648ZM238.539 268.576H240.363V280H238.539V268.576ZM251.172 271.504C253.764 271.504 255.044 273.488 255.044 275.904C255.044 278.08 253.956 280.224 251.476 280.224C250.436 280.224 249.268 279.856 248.708 278.928H248.676V283.056H246.852V271.728H248.58V272.848H248.612C249.14 271.888 250.116 271.504 251.172 271.504ZM248.612 275.872C248.612 277.296 249.316 278.784 250.932 278.784C252.58 278.784 253.22 277.312 253.22 275.872C253.22 274.496 252.532 272.944 250.916 272.944C249.22 272.944 248.612 274.384 248.612 275.872ZM260.745 271.504C261.097 271.504 261.161 271.504 261.433 271.552V273.312C261.161 273.264 260.905 273.232 260.649 273.232C259.289 273.232 258.409 274.416 258.409 276V280H256.585V271.728H258.297V273.328H258.329C258.585 272.272 259.817 271.504 260.745 271.504ZM265.623 271.504C267.959 271.504 269.559 273.424 269.559 275.712C269.559 275.92 269.543 276.128 269.527 276.336H263.447C263.447 277.696 264.231 278.784 265.671 278.784C266.679 278.784 267.351 278.368 267.687 277.408H269.415C269.047 279.184 267.479 280.224 265.671 280.224C263.062 280.224 261.623 278.4 261.623 275.888C261.623 273.504 263.159 271.504 265.623 271.504ZM263.447 275.136H267.703C267.607 273.984 266.855 272.944 265.607 272.944C264.327 272.944 263.511 273.92 263.447 275.136ZM274.593 271.504C276.737 271.504 278.145 272.608 278.321 274.496H276.497C276.353 273.504 275.665 272.944 274.609 272.944C273.201 272.944 272.337 273.952 272.337 275.952C272.337 277.552 273.105 278.784 274.529 278.784C275.569 278.784 276.305 278.144 276.497 276.896H278.321C277.969 279.072 276.625 280.224 274.529 280.224C272.113 280.224 270.513 278.592 270.513 275.952C270.513 273.312 271.985 271.504 274.593 271.504ZM279.852 268.576H281.676V270.304H279.852V268.576ZM279.852 271.728H281.676V280H279.852V271.728ZM286.847 271.504C288.815 271.504 290.127 272.4 290.303 274.048H288.399C288.255 273.296 287.711 272.944 286.719 272.944C285.823 272.944 285.215 273.248 285.215 273.792C285.215 274.368 285.711 274.688 287.311 274.992C289.855 275.456 290.575 276.256 290.575 277.536C290.575 279.264 288.991 280.224 286.879 280.224C284.703 280.224 283.263 279.248 283.215 277.344H285.039C285.151 278.32 285.775 278.784 286.911 278.784C288.031 278.784 288.751 278.464 288.751 277.744C288.751 277.168 288.383 276.736 286.079 276.336C284.703 276.096 283.391 275.488 283.391 273.872C283.391 272.32 284.911 271.504 286.847 271.504ZM292.008 268.576H293.832V270.304H292.008V268.576ZM292.008 271.728H293.832V280H292.008V271.728ZM299.611 271.504C302.203 271.504 303.787 273.328 303.787 275.856C303.787 278.432 302.203 280.224 299.611 280.224C297.019 280.224 295.435 278.448 295.435 275.856C295.435 273.328 297.019 271.504 299.611 271.504ZM297.259 275.856C297.259 277.28 297.995 278.784 299.611 278.784C301.227 278.784 301.963 277.296 301.963 275.856C301.963 274.384 301.243 272.944 299.595 272.944C298.011 272.944 297.259 274.4 297.259 275.856ZM309.656 271.504C311.56 271.504 312.568 272.592 312.568 274.256V280H310.744V274.832C310.744 273.776 310.376 272.944 309.128 272.944C307.848 272.944 307.128 274 307.128 275.072V280H305.304V271.728H307.032V272.944L307.064 272.976C307.656 272.016 308.6 271.504 309.656 271.504Z" fill="black"/>
<defs>
<clipPath id="clip0_2416_5725">
<rect width="161" height="79" fill="white" transform="translate(40 80)"/>
</clipPath>
</defs>
</svg>
