<svg width="384" height="363" viewBox="0 0 384 363" fill="none" xmlns="http://www.w3.org/2000/svg">
<rect width="383.333" height="363" fill="#F5F5F5"/>
<path fill-rule="evenodd" clip-rule="evenodd" d="M81.6316 80H48.8421C48.4737 80 48.1053 80.3684 48.4737 80.7368C48.4737 81.4737 49.5789 81.4737 49.5789 81.4737C50.6842 81.4737 51.4211 81.4737 52.1579 81.8421C52.8947 82.2105 53.2632 82.9474 52.8947 83.6842L40 122H54.7368L59.5263 108C62.4737 108 66.1579 108 69.1053 107.632C69.3476 107.591 69.5944 107.551 69.8441 107.51L69.8451 107.51C71.8731 107.178 74.0969 106.814 75.7368 106.158C77.9474 105.421 81.6316 103.579 82.7368 101.368C83.4737 100.263 87.8947 87.7368 87.8947 84.7895C88.2632 80.3684 81.6316 80 81.6316 80ZM73.8947 84.0526C73.8947 85.1579 68.3684 102.474 67.6316 102.842C66.8947 103.579 66.5263 103.947 64.6842 104.316C63.2105 105.053 61.7369 105.053 59.8948 105.053L66.8947 82.9474H73.1579C73.1579 83.1 73.2843 83.1894 73.4324 83.2941C73.6419 83.4422 73.8947 83.621 73.8947 84.0526ZM123.633 80.3688H90.8435C90.4751 80.3688 90.1067 80.7372 90.1067 81.1056C90.1067 81.8425 91.212 81.8425 91.212 81.8425C92.3172 81.8425 93.0541 81.8425 93.7909 82.2109C94.5278 82.2109 94.8962 83.3161 94.5278 83.6846L82.0014 121.632H96.7383L101.528 107.632C104.475 107.632 108.159 107.632 111.107 107.264C111.349 107.223 111.596 107.183 111.847 107.142C113.875 106.81 116.098 106.446 117.738 105.79C119.949 105.053 123.633 103.211 125.107 101C125.844 99.8951 130.265 87.3688 130.265 84.4214C130.265 80.3688 123.633 80.3688 123.633 80.3688ZM115.896 84.053C115.896 85.1583 110.37 102.474 109.633 102.842C108.896 103.579 108.528 103.948 106.686 104.316C105.212 104.685 103.738 104.685 101.896 104.685L109.265 82.5793H115.159C115.159 83.2046 115.513 83.4761 115.754 83.6608C115.938 83.8025 116.056 83.893 115.896 84.053ZM132.841 80.3688H165.262C165.262 80.3688 172.262 81.1056 172.999 84.7898C172.999 87.2287 168.415 100.231 165.844 107.525C164.919 110.147 164.255 112.032 164.157 112.421C163.052 115.369 160.841 117.211 158.262 118.316C156.052 119.421 150.157 121.632 147.578 121.632H123.999L136.526 83.6846C136.894 83.3161 136.526 82.2109 135.789 82.2109C135.052 81.8425 134.315 81.8425 133.21 81.8425C133.21 81.8425 132.105 81.8425 132.105 81.1056C132.105 80.7372 132.473 80.3688 132.841 80.3688ZM146.841 117.211C147.578 116.474 157.526 85.5267 157.526 84.4214C157.526 83.9898 157.273 83.811 157.063 83.6629C156.915 83.5581 156.789 83.4688 156.789 83.3161H150.894L139.105 119.053C140.947 119.053 142.42 119.053 143.894 118.685C144.999 118.316 146.105 117.948 146.841 117.211Z" fill="#55595B"/>
<path d="M41.168 268.576H43.168V273.12H48.368V268.576H50.368V280H48.368V274.848H43.168V280H41.168V268.576ZM56.1069 271.504C58.4429 271.504 60.0429 273.424 60.0429 275.712C60.0429 275.92 60.0269 276.128 60.0109 276.336H53.9309C53.9309 277.696 54.7149 278.784 56.1549 278.784C57.1629 278.784 57.8349 278.368 58.1709 277.408H59.8989C59.5309 279.184 57.9629 280.224 56.1549 280.224C53.5469 280.224 52.1069 278.4 52.1069 275.888C52.1069 273.504 53.6429 271.504 56.1069 271.504ZM53.9309 275.136H58.1869C58.0909 273.984 57.3389 272.944 56.0909 272.944C54.8109 272.944 53.9949 273.92 53.9309 275.136ZM61.4455 268.576H63.2695V280H61.4455V268.576ZM69.6249 271.504C72.2169 271.504 73.4969 273.488 73.4969 275.904C73.4969 278.08 72.4089 280.224 69.9289 280.224C68.8889 280.224 67.7209 279.856 67.1609 278.928H67.1289V283.056H65.3049V271.728H67.0329V272.848H67.0649C67.5929 271.888 68.5689 271.504 69.6249 271.504ZM67.0649 275.872C67.0649 277.296 67.7689 278.784 69.3849 278.784C71.0329 278.784 71.6729 277.312 71.6729 275.872C71.6729 274.496 70.9849 272.944 69.3689 272.944C67.6729 272.944 67.0649 274.384 67.0649 275.872ZM75.0861 268.576H76.9101V270.304H75.0861V268.576ZM75.0861 271.728H76.9101V280H75.0861V271.728ZM83.2495 271.504C85.1535 271.504 86.1615 272.592 86.1615 274.256V280H84.3375V274.832C84.3375 273.776 83.9695 272.944 82.7215 272.944C81.4415 272.944 80.7215 274 80.7215 275.072V280H78.8975V271.728H80.6255V272.944L80.6575 272.976C81.2495 272.016 82.1935 271.504 83.2495 271.504ZM91.429 271.504C92.549 271.504 93.445 271.968 93.877 272.864H93.909V271.728H95.733V279.648C95.733 281.952 94.389 283.28 91.685 283.28C89.605 283.28 88.117 282.352 87.973 280.704H89.797C89.957 281.504 90.501 281.92 91.781 281.92C93.205 281.92 93.909 281.184 93.909 279.856V278.544H93.877C93.333 279.472 92.437 280 91.397 280C89.061 280 87.685 278.384 87.685 275.664C87.685 273.28 89.221 271.504 91.429 271.504ZM89.509 275.824C89.509 277.392 90.341 278.56 91.685 278.56C93.061 278.56 93.909 277.424 93.909 275.68C93.909 274.032 93.077 272.944 91.685 272.944C90.309 272.944 89.509 274.112 89.509 275.824ZM107.991 268.576H109.815V280H108.087V278.88H108.055C107.559 279.792 106.615 280.224 105.495 280.224C103.127 280.224 101.623 278.544 101.623 275.808C101.623 273.072 103.159 271.504 105.207 271.504C106.391 271.504 107.463 272 107.959 272.8H107.991V268.576ZM103.447 275.952C103.447 277.552 104.311 278.784 105.735 278.784C107.191 278.784 108.055 277.504 108.055 275.856C108.055 274.064 107.207 272.944 105.751 272.944C104.295 272.944 103.447 274.192 103.447 275.952ZM115.404 271.504C117.74 271.504 119.34 273.424 119.34 275.712C119.34 275.92 119.324 276.128 119.308 276.336H113.228C113.228 277.696 114.012 278.784 115.452 278.784C116.46 278.784 117.132 278.368 117.468 277.408H119.196C118.828 279.184 117.26 280.224 115.452 280.224C112.844 280.224 111.404 278.4 111.404 275.888C111.404 273.504 112.94 271.504 115.404 271.504ZM113.228 275.136H117.484C117.388 273.984 116.636 272.944 115.388 272.944C114.108 272.944 113.292 273.92 113.228 275.136ZM120.742 268.576H122.566V280H120.742V268.576ZM124.602 268.576H126.426V270.304H124.602V268.576ZM124.602 271.728H126.426V280H124.602V271.728ZM127.597 271.728H129.581L131.677 278.08H131.709L133.725 271.728H135.613L132.653 280H130.605L127.597 271.728ZM140.31 271.504C142.646 271.504 144.246 273.424 144.246 275.712C144.246 275.92 144.23 276.128 144.214 276.336H138.134C138.134 277.696 138.918 278.784 140.358 278.784C141.366 278.784 142.038 278.368 142.374 277.408H144.102C143.734 279.184 142.166 280.224 140.358 280.224C137.75 280.224 136.31 278.4 136.31 275.888C136.31 273.504 137.846 271.504 140.31 271.504ZM138.134 275.136H142.39C142.294 273.984 141.542 272.944 140.294 272.944C139.014 272.944 138.198 273.92 138.134 275.136ZM149.761 271.504C150.113 271.504 150.177 271.504 150.449 271.552V273.312C150.177 273.264 149.921 273.232 149.665 273.232C148.305 273.232 147.425 274.416 147.425 276V280H145.601V271.728H147.313V273.328H147.345C147.601 272.272 148.833 271.504 149.761 271.504ZM155.727 268.576H157.551V280H155.727V268.576ZM159.586 268.576H161.41V270.304H159.586V268.576ZM159.586 271.728H161.41V280H159.586V271.728ZM165.766 280H163.942V273.088H162.582V271.728H163.942V270.976C163.942 269.28 164.694 268.576 166.246 268.576C166.79 268.576 167.222 268.608 167.51 268.688V270.112C167.318 270.048 166.966 270.016 166.678 270.016C166.038 270.016 165.766 270.336 165.766 270.8V271.728H167.318V273.088H165.766V280ZM172.044 271.504C174.38 271.504 175.98 273.424 175.98 275.712C175.98 275.92 175.964 276.128 175.948 276.336H169.868C169.868 277.696 170.652 278.784 172.092 278.784C173.1 278.784 173.772 278.368 174.108 277.408H175.836C175.468 279.184 173.9 280.224 172.092 280.224C169.484 280.224 168.044 278.4 168.044 275.888C168.044 273.504 169.58 271.504 172.044 271.504ZM169.868 275.136H174.124C174.028 273.984 173.276 272.944 172.028 272.944C170.748 272.944 169.932 273.92 169.868 275.136ZM177.159 274.784H181.815V276.512H177.159V274.784ZM187.234 271.504C189.378 271.504 190.786 272.608 190.962 274.496H189.138C188.994 273.504 188.306 272.944 187.25 272.944C185.842 272.944 184.978 273.952 184.978 275.952C184.978 277.552 185.746 278.784 187.17 278.784C188.21 278.784 188.946 278.144 189.138 276.896H190.962C190.61 279.072 189.266 280.224 187.17 280.224C184.754 280.224 183.154 278.592 183.154 275.952C183.154 273.312 184.626 271.504 187.234 271.504ZM192.444 268.576H194.268V272.816H194.3C194.828 271.984 195.756 271.504 196.796 271.504C198.7 271.504 199.708 272.608 199.708 274.256V280H197.884V274.88C197.884 273.824 197.564 272.944 196.268 272.944C195.004 272.944 194.268 273.984 194.268 275.072V280H192.444V268.576ZM205.248 271.504C207.248 271.504 208.56 272.448 208.56 273.856V278.208C208.56 278.64 208.656 278.784 209.056 278.784C209.152 278.784 209.312 278.784 209.44 278.752V280.016C208.976 280.144 208.496 280.224 208.288 280.224C207.488 280.224 207.008 279.904 206.88 279.216C206.224 279.872 205.024 280.224 204.016 280.224C202.384 280.224 201.184 279.328 201.184 277.808C201.184 276.256 202.096 275.648 203.328 275.392C203.952 275.264 204.64 275.184 205.408 275.088C206.512 274.96 206.848 274.704 206.848 274.064C206.848 273.344 206.272 272.944 205.136 272.944C204.016 272.944 203.392 273.424 203.312 274.256H201.488C201.616 272.448 202.928 271.504 205.248 271.504ZM203.008 277.648C203.008 278.336 203.584 278.784 204.576 278.784C205.824 278.784 206.736 278.16 206.736 277.264V275.856C206.24 276.16 206 276.16 204.736 276.32C203.536 276.464 203.008 276.896 203.008 277.648ZM214.875 271.504C216.779 271.504 217.786 272.592 217.786 274.256V280H215.963V274.832C215.963 273.776 215.595 272.944 214.347 272.944C213.067 272.944 212.347 274 212.347 275.072V280H210.523V271.728H212.251V272.944L212.283 272.976C212.875 272.016 213.819 271.504 214.875 271.504ZM223.054 271.504C224.174 271.504 225.07 271.968 225.502 272.864H225.534V271.728H227.358V279.648C227.358 281.952 226.014 283.28 223.31 283.28C221.23 283.28 219.742 282.352 219.598 280.704H221.422C221.582 281.504 222.126 281.92 223.406 281.92C224.83 281.92 225.534 281.184 225.534 279.856V278.544H225.502C224.958 279.472 224.062 280 223.022 280C220.686 280 219.31 278.384 219.31 275.664C219.31 273.28 220.846 271.504 223.054 271.504ZM221.134 275.824C221.134 277.392 221.966 278.56 223.31 278.56C224.686 278.56 225.534 277.424 225.534 275.68C225.534 274.032 224.702 272.944 223.31 272.944C221.934 272.944 221.134 274.112 221.134 275.824ZM229.242 268.576H231.066V270.304H229.242V268.576ZM229.242 271.728H231.066V280H229.242V271.728ZM237.406 271.504C239.31 271.504 240.318 272.592 240.318 274.256V280H238.494V274.832C238.494 273.776 238.126 272.944 236.878 272.944C235.598 272.944 234.878 274 234.878 275.072V280H233.054V271.728H234.782V272.944L234.814 272.976C235.406 272.016 236.35 271.504 237.406 271.504ZM245.585 271.504C246.705 271.504 247.601 271.968 248.033 272.864H248.065V271.728H249.889V279.648C249.889 281.952 248.545 283.28 245.841 283.28C243.761 283.28 242.273 282.352 242.129 280.704H243.953C244.113 281.504 244.657 281.92 245.937 281.92C247.361 281.92 248.065 281.184 248.065 279.856V278.544H248.033C247.489 279.472 246.593 280 245.553 280C243.217 280 241.841 278.384 241.841 275.664C241.841 273.28 243.377 271.504 245.585 271.504ZM243.665 275.824C243.665 277.392 244.497 278.56 245.841 278.56C247.217 278.56 248.065 277.424 248.065 275.68C248.065 274.032 247.233 272.944 245.841 272.944C244.465 272.944 243.665 274.112 243.665 275.824ZM256.723 269.248H258.547V271.728H260.195V273.088H258.547V277.6C258.547 278.464 258.755 278.64 259.459 278.64C259.795 278.64 260.131 278.608 260.195 278.576V279.984C259.475 280.064 259.267 280.08 259.011 280.08C257.267 280.08 256.723 279.52 256.723 277.856V273.088H255.347V271.728H256.723V269.248ZM261.507 268.576H263.331V272.816H263.363C263.891 271.984 264.819 271.504 265.859 271.504C267.763 271.504 268.771 272.608 268.771 274.256V280H266.947V274.88C266.947 273.824 266.627 272.944 265.331 272.944C264.067 272.944 263.331 273.984 263.331 275.072V280H261.507V268.576ZM274.294 271.504C276.63 271.504 278.23 273.424 278.23 275.712C278.23 275.92 278.214 276.128 278.198 276.336H272.118C272.118 277.696 272.902 278.784 274.342 278.784C275.35 278.784 276.022 278.368 276.358 277.408H278.086C277.718 279.184 276.15 280.224 274.342 280.224C271.734 280.224 270.294 278.4 270.294 275.888C270.294 273.504 271.83 271.504 274.294 271.504ZM272.118 275.136H276.374C276.278 273.984 275.526 272.944 274.278 272.944C272.998 272.944 272.182 273.92 272.118 275.136ZM283.745 271.504C284.097 271.504 284.161 271.504 284.433 271.552V273.312C284.161 273.264 283.905 273.232 283.649 273.232C282.289 273.232 281.409 274.416 281.409 276V280H279.585V271.728H281.297V273.328H281.329C281.585 272.272 282.817 271.504 283.745 271.504ZM288.514 271.504C290.514 271.504 291.826 272.448 291.826 273.856V278.208C291.826 278.64 291.922 278.784 292.322 278.784C292.418 278.784 292.578 278.784 292.706 278.752V280.016C292.242 280.144 291.762 280.224 291.554 280.224C290.754 280.224 290.274 279.904 290.146 279.216C289.49 279.872 288.29 280.224 287.282 280.224C285.65 280.224 284.45 279.328 284.45 277.808C284.45 276.256 285.362 275.648 286.594 275.392C287.218 275.264 287.906 275.184 288.674 275.088C289.778 274.96 290.114 274.704 290.114 274.064C290.114 273.344 289.538 272.944 288.402 272.944C287.282 272.944 286.658 273.424 286.578 274.256H284.754C284.882 272.448 286.194 271.504 288.514 271.504ZM286.274 277.648C286.274 278.336 286.85 278.784 287.842 278.784C289.09 278.784 290.002 278.16 290.002 277.264V275.856C289.506 276.16 289.266 276.16 288.002 276.32C286.802 276.464 286.274 276.896 286.274 277.648ZM298.156 271.504C300.748 271.504 302.028 273.488 302.028 275.904C302.028 278.08 300.94 280.224 298.46 280.224C297.42 280.224 296.252 279.856 295.692 278.928H295.66V283.056H293.836V271.728H295.564V272.848H295.596C296.124 271.888 297.1 271.504 298.156 271.504ZM295.596 275.872C295.596 277.296 296.3 278.784 297.916 278.784C299.564 278.784 300.204 277.312 300.204 275.872C300.204 274.496 299.516 272.944 297.9 272.944C296.204 272.944 295.596 274.384 295.596 275.872ZM303.617 268.576H305.441V270.304H303.617V268.576ZM303.617 271.728H305.441V280H303.617V271.728ZM311.029 271.504C313.365 271.504 314.965 273.424 314.965 275.712C314.965 275.92 314.949 276.128 314.933 276.336H308.853C308.853 277.696 309.637 278.784 311.077 278.784C312.085 278.784 312.757 278.368 313.093 277.408H314.821C314.453 279.184 312.885 280.224 311.077 280.224C308.469 280.224 307.029 278.4 307.029 275.888C307.029 273.504 308.565 271.504 311.029 271.504ZM308.853 275.136H313.109C313.013 273.984 312.261 272.944 311.013 272.944C309.733 272.944 308.917 273.92 308.853 275.136ZM319.503 271.504C321.471 271.504 322.783 272.4 322.959 274.048H321.055C320.911 273.296 320.367 272.944 319.375 272.944C318.479 272.944 317.871 273.248 317.871 273.792C317.871 274.368 318.367 274.688 319.967 274.992C322.511 275.456 323.231 276.256 323.231 277.536C323.231 279.264 321.647 280.224 319.535 280.224C317.359 280.224 315.919 279.248 315.871 277.344H317.695C317.807 278.32 318.431 278.784 319.567 278.784C320.687 278.784 321.407 278.464 321.407 277.744C321.407 277.168 321.039 276.736 318.735 276.336C317.359 276.096 316.047 275.488 316.047 273.872C316.047 272.32 317.567 271.504 319.503 271.504Z" fill="black"/>
</svg>
