<svg width="384" height="363" viewBox="0 0 384 363" fill="none" xmlns="http://www.w3.org/2000/svg">
<rect x="0.666016" width="383.333" height="363" fill="#F5F5F5"/>
<mask id="mask0_2416_5731" style="mask-type:luminance" maskUnits="userSpaceOnUse" x="40" y="80" width="169" height="47">
<path d="M208.849 80H40.666V126.69H208.849V80Z" fill="white"/>
</mask>
<g mask="url(#mask0_2416_5731)">
<path d="M59.7723 105.142C59.7749 104.041 59.6284 102.943 59.3369 101.881C59.0746 100.875 58.6352 99.924 58.0392 99.0723C57.4779 98.2531 56.7398 97.5704 55.8793 97.0746C54.9724 96.5679 53.947 96.3115 52.9084 96.3318C51.905 96.2744 50.9031 96.4684 49.9937 96.8963C49.0843 97.3241 48.2961 97.9723 47.7007 98.782C46.4476 100.668 45.8313 102.906 45.942 105.168C45.9327 106.345 46.0879 107.517 46.403 108.651C46.6708 109.652 47.1351 110.589 47.769 111.409C48.3626 112.163 49.107 112.785 49.9545 113.236C50.8698 113.696 51.8841 113.925 52.9084 113.901C54.0142 113.937 55.1089 113.671 56.0757 113.133C56.9246 112.635 57.6533 111.956 58.21 111.144C58.7926 110.292 59.2124 109.34 59.4479 108.335C59.6874 107.288 59.8077 106.217 59.8064 105.142H59.7723ZM40.666 92.7121H45.8481V96.0672H45.942C46.6494 94.6987 47.7987 93.6096 49.2032 92.9767C50.6068 92.3465 52.1297 92.0262 53.6682 92.0376C55.4314 91.9951 57.1817 92.348 58.7905 93.0706C60.1994 93.7238 61.4383 94.6938 62.4103 95.905C63.3992 97.1496 64.1332 98.5769 64.5702 100.105C65.0599 101.768 65.3044 103.494 65.2959 105.228C65.2727 106.872 65.0286 108.506 64.5702 110.085C64.1707 111.579 63.5024 112.988 62.5981 114.243C61.6769 115.513 60.4579 116.538 59.0483 117.227C57.6387 117.916 56.0815 118.249 54.5134 118.196C53.7089 118.197 52.906 118.126 52.1144 117.982C51.3223 117.84 50.5489 117.608 49.8094 117.291C49.0795 116.97 48.3938 116.557 47.769 116.061C47.1549 115.585 46.6265 115.008 46.2067 114.354H46.1128V126.733H40.666V92.7121Z" fill="#58595B"/>
</g>
<path d="M83.8473 105.091C82.9249 105.666 81.8755 106.006 80.791 106.081C79.5702 106.192 78.3579 106.363 77.1456 106.585C76.5673 106.676 75.9966 106.81 75.4382 106.986C74.9219 107.15 74.4349 107.395 73.9954 107.712C73.5718 108.02 73.2339 108.432 73.0136 108.907C72.7604 109.482 72.6408 110.106 72.6636 110.734C72.6436 111.294 72.8322 111.842 73.1929 112.271C73.5385 112.685 73.9695 113.02 74.4564 113.253C74.9755 113.499 75.5276 113.669 76.0955 113.756C76.6254 113.851 77.1624 113.899 77.7005 113.901C78.362 113.896 79.0207 113.816 79.6641 113.662C80.3741 113.495 81.0499 113.206 81.6618 112.809C82.2783 112.432 82.8103 111.932 83.2241 111.34C83.653 110.694 83.8708 109.93 83.8473 109.155V105.091ZM89.3282 112.006C89.2929 112.501 89.3809 112.997 89.5843 113.449C89.7045 113.604 89.863 113.725 90.0442 113.799C90.2253 113.874 90.4229 113.901 90.6173 113.876H91.1979C91.4567 113.874 91.7146 113.843 91.9662 113.782V117.564C91.7698 117.632 91.5223 117.7 91.2235 117.786L90.2844 117.999C89.9685 118.059 89.6441 118.11 89.3282 118.144C89.0123 118.179 88.7306 118.144 88.4745 118.144C87.5198 118.203 86.5671 118.002 85.717 117.564C85.3256 117.293 84.9951 116.944 84.7466 116.538C84.4982 116.132 84.3373 115.679 84.2742 115.208C83.1466 116.29 81.7723 117.081 80.2702 117.513C78.7854 117.975 77.2408 118.216 75.6857 118.23C74.5966 118.237 73.5122 118.085 72.4672 117.777C71.4882 117.495 70.5683 117.038 69.7524 116.428C68.9634 115.821 68.3238 115.042 67.8827 114.149C67.403 113.154 67.166 112.06 67.1912 110.956C67.1378 109.656 67.4325 108.365 68.0449 107.217C68.5735 106.286 69.3356 105.509 70.2561 104.963C71.2071 104.4 72.2461 104.002 73.3295 103.785C74.4649 103.546 75.6089 103.358 76.7444 103.23C77.7347 103.042 78.6738 102.905 79.5702 102.82C80.3745 102.758 81.1716 102.623 81.9521 102.419C82.5576 102.273 83.1177 101.98 83.5827 101.565C83.807 101.317 83.9781 101.025 84.0852 100.708C84.1924 100.39 84.2335 100.055 84.2059 99.7211C84.2257 99.1126 84.0491 98.5139 83.7022 98.0136C83.3738 97.576 82.9468 97.222 82.4558 96.9806C81.9306 96.7268 81.3688 96.5569 80.791 96.477C80.2249 96.402 79.6546 96.3621 79.0836 96.3574C77.7533 96.3056 76.4366 96.6407 75.293 97.3221C74.7927 97.6459 74.3768 98.0844 74.0799 98.601C73.7829 99.1177 73.6135 99.6978 73.5856 100.293H68.1218C68.1587 98.8913 68.5524 97.522 69.2658 96.3147C69.911 95.2753 70.7875 94.3988 71.8269 93.7536C72.9117 93.0958 74.106 92.6389 75.3528 92.4047C76.6834 92.1472 78.0356 92.0186 79.3909 92.0205C80.5992 92.0198 81.8042 92.1486 82.9851 92.4047C84.1094 92.6415 85.1859 93.0657 86.1694 93.6597C87.1045 94.2154 87.8944 94.9849 88.4745 95.905C89.0735 96.9095 89.3699 98.0656 89.3282 99.2345V112.04V112.006Z" fill="#58595B"/>
<path d="M151.743 102.931C151.682 102.078 151.498 101.238 151.197 100.438C150.909 99.6706 150.484 98.9619 149.942 98.3465C149.406 97.7467 148.756 97.2592 148.03 96.9122C147.244 96.5365 146.382 96.3467 145.511 96.3573C144.612 96.3462 143.721 96.5175 142.89 96.861C142.131 97.1823 141.445 97.6559 140.875 98.2526C140.304 98.8635 139.847 99.5719 139.527 100.344C139.194 101.159 139.009 102.026 138.98 102.905L151.743 102.931ZM138.937 106.534C138.935 107.477 139.073 108.415 139.347 109.317C139.594 110.175 140.009 110.977 140.568 111.673C141.14 112.365 141.861 112.92 142.677 113.295C143.609 113.717 144.625 113.921 145.648 113.893C147.013 113.961 148.366 113.6 149.515 112.86C150.554 112.088 151.32 111.006 151.701 109.769H156.883C156.372 112.287 154.933 114.52 152.853 116.027C151.842 116.76 150.713 117.314 149.515 117.666C148.259 118.036 146.957 118.22 145.648 118.213C143.874 118.247 142.111 117.922 140.466 117.256C139.012 116.651 137.709 115.733 136.65 114.567C135.584 113.375 134.783 111.969 134.302 110.444C133.756 108.736 133.488 106.952 133.508 105.159C133.506 103.452 133.794 101.758 134.362 100.148C134.895 98.6166 135.708 97.198 136.76 95.9646C137.81 94.7541 139.101 93.777 140.551 93.0961C142.114 92.3684 143.822 92.0064 145.545 92.0375C147.37 92.0094 149.173 92.4317 150.796 93.2669C152.308 94.0462 153.629 95.1513 154.663 96.5025C155.707 97.8838 156.465 99.4599 156.891 101.138C157.358 102.897 157.479 104.729 157.25 106.534H138.937Z" fill="#58595B"/>
<path d="M172.028 113.876C173.133 113.903 174.226 113.638 175.196 113.108C176.075 112.612 176.832 111.923 177.407 111.093C177.992 110.238 178.422 109.287 178.679 108.284C178.953 107.242 179.091 106.169 179.088 105.091C179.086 104.022 178.949 102.958 178.679 101.924C178.425 100.919 177.995 99.968 177.407 99.1151C176.823 98.2987 176.069 97.6198 175.196 97.1259C174.216 96.6212 173.13 96.3579 172.028 96.3579C170.926 96.3579 169.84 96.6212 168.861 97.1259C167.988 97.6198 167.233 98.2987 166.65 99.1151C166.062 99.968 165.631 100.919 165.378 101.924C165.115 102.959 164.98 104.023 164.976 105.091C164.975 106.168 165.11 107.241 165.378 108.284C165.634 109.287 166.065 110.238 166.65 111.093C167.225 111.923 167.981 112.612 168.861 113.108C169.831 113.638 170.923 113.903 172.028 113.876ZM172.028 118.196C170.213 118.228 168.41 117.894 166.727 117.214C165.236 116.601 163.894 115.675 162.791 114.499C161.696 113.31 160.862 111.906 160.341 110.376C159.759 108.675 159.47 106.888 159.487 105.091C159.472 103.314 159.761 101.547 160.341 99.8663C160.86 98.3328 161.694 96.9252 162.791 95.7343C163.894 94.5583 165.236 93.6325 166.727 93.0195C170.14 91.7103 173.917 91.7103 177.33 93.0195C178.821 93.6325 180.163 94.5583 181.265 95.7343C182.362 96.9252 183.197 98.3328 183.716 99.8663C184.296 101.547 184.585 103.314 184.569 105.091C184.587 106.888 184.298 108.675 183.716 110.376C183.195 111.906 182.36 113.31 181.265 114.499C180.163 115.675 178.821 116.601 177.33 117.214C175.647 117.894 173.843 118.228 172.028 118.196Z" fill="#58595B"/>
<path d="M187.053 92.7118H192.244V96.3572L192.338 96.4511C193.133 95.1135 194.255 94.0001 195.599 93.2155C196.954 92.4281 198.497 92.0211 200.064 92.0373C202.4 91.9073 204.698 92.6634 206.501 94.1546C208.066 95.5603 208.849 97.6719 208.849 100.489V117.564H203.376V101.923C203.308 99.9769 202.898 98.5598 202.13 97.6548C201.662 97.1846 201.098 96.8225 200.475 96.5939C199.853 96.3653 199.188 96.2758 198.527 96.3315C197.67 96.3186 196.82 96.4904 196.034 96.8352C195.318 97.1588 194.68 97.6335 194.165 98.2268C193.639 98.8446 193.231 99.5536 192.961 100.318C192.666 101.14 192.519 102.007 192.526 102.88V117.564H187.053V92.7118Z" fill="#58595B"/>
<path d="M125.552 117.564H131.05V100.489C131.05 94.8974 127.635 92.0033 122.223 92.0033C120.744 91.9755 119.282 92.3236 117.974 93.0149C116.666 93.7062 115.554 94.7182 114.744 95.956H114.65V85.5748V80.4525V80L109.135 82.8258V84.5333V87.2481V88.2213V117.564H114.633V102.88C114.633 99.2173 116.998 96.3231 120.66 96.3231C123.896 96.3231 125.433 98.0306 125.535 101.915V117.564H125.552Z" fill="#58595B"/>
<path d="M102.724 117.829C103.936 117.829 105.089 117.641 106.292 117.538V113.295C105.533 113.458 104.755 113.524 103.979 113.492C101.52 113.492 101.332 112.331 101.332 110.077V96.7502H106.292V92.6523H101.332V86.3945L95.8258 89.2374V92.6523H91.6768V96.7502H95.8258V111.468C95.9283 115.617 96.9869 117.829 102.724 117.829Z" fill="#58595B"/>
<path d="M41.882 268.576H50.106V270.304H43.882V273.296H49.642V274.928H43.882V278.272H50.218V280H41.882V268.576ZM56.0561 271.504C57.9601 271.504 58.9681 272.592 58.9681 274.256V280H57.1441V274.832C57.1441 273.776 56.7761 272.944 55.5281 272.944C54.2481 272.944 53.5281 274 53.5281 275.072V280H51.7041V271.728H53.4321V272.944L53.4641 272.976C54.0561 272.016 55.0001 271.504 56.0561 271.504ZM66.8596 268.576H68.6836V280H66.9556V278.88H66.9236C66.4276 279.792 65.4836 280.224 64.3636 280.224C61.9956 280.224 60.4916 278.544 60.4916 275.808C60.4916 273.072 62.0276 271.504 64.0756 271.504C65.2596 271.504 66.3316 272 66.8276 272.8H66.8596V268.576ZM62.3156 275.952C62.3156 277.552 63.1796 278.784 64.6036 278.784C66.0596 278.784 66.9236 277.504 66.9236 275.856C66.9236 274.064 66.0756 272.944 64.6196 272.944C63.1636 272.944 62.3156 274.192 62.3156 275.952ZM70.4969 274.784H75.1529V276.512H70.4969V274.784ZM77.4356 269.248H79.2596V271.728H80.9076V273.088H79.2596V277.6C79.2596 278.464 79.4676 278.64 80.1716 278.64C80.5076 278.64 80.8436 278.608 80.9076 278.576V279.984C80.1876 280.064 79.9796 280.08 79.7236 280.08C77.9796 280.08 77.4356 279.52 77.4356 277.856V273.088H76.0596V271.728H77.4356V269.248ZM85.8711 271.504C88.4631 271.504 90.0471 273.328 90.0471 275.856C90.0471 278.432 88.4631 280.224 85.8711 280.224C83.2791 280.224 81.6951 278.448 81.6951 275.856C81.6951 273.328 83.2791 271.504 85.8711 271.504ZM83.5191 275.856C83.5191 277.28 84.2551 278.784 85.8711 278.784C87.4871 278.784 88.2231 277.296 88.2231 275.856C88.2231 274.384 87.5031 272.944 85.8551 272.944C84.2711 272.944 83.5191 274.4 83.5191 275.856ZM91.3875 274.784H96.0435V276.512H91.3875V274.784ZM101.382 271.504C103.718 271.504 105.318 273.424 105.318 275.712C105.318 275.92 105.302 276.128 105.286 276.336H99.2063C99.2063 277.696 99.9903 278.784 101.43 278.784C102.438 278.784 103.11 278.368 103.446 277.408H105.174C104.806 279.184 103.238 280.224 101.43 280.224C98.8223 280.224 97.3823 278.4 97.3823 275.888C97.3823 273.504 98.9183 271.504 101.382 271.504ZM99.2063 275.136H103.462C103.366 273.984 102.614 272.944 101.366 272.944C100.086 272.944 99.2703 273.92 99.2063 275.136ZM111.025 271.504C112.929 271.504 113.937 272.592 113.937 274.256V280H112.113V274.832C112.113 273.776 111.745 272.944 110.497 272.944C109.217 272.944 108.497 274 108.497 275.072V280H106.673V271.728H108.401V272.944L108.433 272.976C109.025 272.016 109.969 271.504 111.025 271.504ZM121.828 268.576H123.652V280H121.924V278.88H121.892C121.396 279.792 120.452 280.224 119.332 280.224C116.964 280.224 115.46 278.544 115.46 275.808C115.46 273.072 116.996 271.504 119.044 271.504C120.228 271.504 121.3 272 121.796 272.8H121.828V268.576ZM117.284 275.952C117.284 277.552 118.148 278.784 119.572 278.784C121.028 278.784 121.892 277.504 121.892 275.856C121.892 274.064 121.044 272.944 119.588 272.944C118.132 272.944 117.284 274.192 117.284 275.952ZM134.463 271.504C137.055 271.504 138.335 273.488 138.335 275.904C138.335 278.08 137.247 280.224 134.767 280.224C133.727 280.224 132.559 279.856 131.999 278.928H131.967V283.056H130.143V271.728H131.871V272.848H131.903C132.431 271.888 133.407 271.504 134.463 271.504ZM131.903 275.872C131.903 277.296 132.607 278.784 134.223 278.784C135.871 278.784 136.511 277.312 136.511 275.872C136.511 274.496 135.823 272.944 134.207 272.944C132.511 272.944 131.903 274.384 131.903 275.872ZM139.876 268.576H141.7V272.816H141.732C142.26 271.984 143.188 271.504 144.228 271.504C146.132 271.504 147.14 272.608 147.14 274.256V280H145.316V274.88C145.316 273.824 144.996 272.944 143.7 272.944C142.436 272.944 141.7 273.984 141.7 275.072V280H139.876V268.576ZM152.68 271.504C154.68 271.504 155.992 272.448 155.992 273.856V278.208C155.992 278.64 156.088 278.784 156.488 278.784C156.584 278.784 156.744 278.784 156.872 278.752V280.016C156.408 280.144 155.928 280.224 155.72 280.224C154.92 280.224 154.44 279.904 154.312 279.216C153.656 279.872 152.456 280.224 151.448 280.224C149.816 280.224 148.616 279.328 148.616 277.808C148.616 276.256 149.528 275.648 150.76 275.392C151.384 275.264 152.072 275.184 152.84 275.088C153.944 274.96 154.28 274.704 154.28 274.064C154.28 273.344 153.704 272.944 152.568 272.944C151.448 272.944 150.824 273.424 150.744 274.256H148.92C149.048 272.448 150.36 271.504 152.68 271.504ZM150.44 277.648C150.44 278.336 151.016 278.784 152.008 278.784C153.256 278.784 154.168 278.16 154.168 277.264V275.856C153.672 276.16 153.432 276.16 152.168 276.32C150.968 276.464 150.44 276.896 150.44 277.648ZM162.114 271.504C162.466 271.504 162.53 271.504 162.802 271.552V273.312C162.53 273.264 162.274 273.232 162.018 273.232C160.658 273.232 159.778 274.416 159.778 276V280H157.954V271.728H159.666V273.328H159.698C159.954 272.272 161.186 271.504 162.114 271.504ZM167.899 271.504C168.859 271.504 169.851 271.92 170.219 272.88C170.859 271.968 171.707 271.504 172.827 271.504C174.635 271.504 175.579 272.416 175.579 274.224V280H173.755V275.008C173.755 273.84 173.643 272.944 172.251 272.944C170.923 272.944 170.491 273.904 170.491 275.088V280H168.667V274.624C168.667 273.6 168.347 272.944 167.227 272.944C166.075 272.944 165.403 273.984 165.403 275.04V280H163.579V271.728H165.307V272.88H165.355C165.995 271.936 166.747 271.504 167.899 271.504ZM181.117 271.504C183.117 271.504 184.429 272.448 184.429 273.856V278.208C184.429 278.64 184.525 278.784 184.925 278.784C185.021 278.784 185.181 278.784 185.309 278.752V280.016C184.845 280.144 184.365 280.224 184.157 280.224C183.357 280.224 182.877 279.904 182.749 279.216C182.093 279.872 180.893 280.224 179.885 280.224C178.253 280.224 177.053 279.328 177.053 277.808C177.053 276.256 177.965 275.648 179.197 275.392C179.821 275.264 180.509 275.184 181.277 275.088C182.381 274.96 182.717 274.704 182.717 274.064C182.717 273.344 182.141 272.944 181.005 272.944C179.885 272.944 179.261 273.424 179.181 274.256H177.357C177.485 272.448 178.797 271.504 181.117 271.504ZM178.877 277.648C178.877 278.336 179.453 278.784 180.445 278.784C181.693 278.784 182.605 278.16 182.605 277.264V275.856C182.109 276.16 181.869 276.16 180.605 276.32C179.405 276.464 178.877 276.896 178.877 277.648ZM194.029 271.504C195.997 271.504 197.309 272.4 197.485 274.048H195.581C195.437 273.296 194.893 272.944 193.901 272.944C193.005 272.944 192.397 273.248 192.397 273.792C192.397 274.368 192.893 274.688 194.493 274.992C197.037 275.456 197.757 276.256 197.757 277.536C197.757 279.264 196.173 280.224 194.061 280.224C191.885 280.224 190.445 279.248 190.397 277.344H192.221C192.333 278.32 192.957 278.784 194.093 278.784C195.213 278.784 195.933 278.464 195.933 277.744C195.933 277.168 195.565 276.736 193.261 276.336C191.885 276.096 190.573 275.488 190.573 273.872C190.573 272.32 192.093 271.504 194.029 271.504ZM202.742 271.504C205.078 271.504 206.678 273.424 206.678 275.712C206.678 275.92 206.662 276.128 206.646 276.336H200.566C200.566 277.696 201.35 278.784 202.79 278.784C203.798 278.784 204.47 278.368 204.806 277.408H206.534C206.166 279.184 204.598 280.224 202.79 280.224C200.182 280.224 198.742 278.4 198.742 275.888C198.742 273.504 200.278 271.504 202.742 271.504ZM200.566 275.136H204.822C204.726 273.984 203.974 272.944 202.726 272.944C201.446 272.944 200.63 273.92 200.566 275.136ZM212.192 271.504C212.544 271.504 212.608 271.504 212.88 271.552V273.312C212.608 273.264 212.352 273.232 212.096 273.232C210.736 273.232 209.856 274.416 209.856 276V280H208.032V271.728H209.744V273.328H209.776C210.032 272.272 211.264 271.504 212.192 271.504ZM212.982 271.728H214.966L217.062 278.08H217.094L219.11 271.728H220.998L218.038 280H215.99L212.982 271.728ZM222.143 268.576H223.967V270.304H222.143V268.576ZM222.143 271.728H223.967V280H222.143V271.728ZM229.634 271.504C231.778 271.504 233.186 272.608 233.362 274.496H231.538C231.394 273.504 230.706 272.944 229.65 272.944C228.242 272.944 227.378 273.952 227.378 275.952C227.378 277.552 228.146 278.784 229.57 278.784C230.61 278.784 231.346 278.144 231.538 276.896H233.362C233.01 279.072 231.666 280.224 229.57 280.224C227.154 280.224 225.554 278.592 225.554 275.952C225.554 273.312 227.026 271.504 229.634 271.504ZM238.445 271.504C240.781 271.504 242.381 273.424 242.381 275.712C242.381 275.92 242.365 276.128 242.349 276.336H236.269C236.269 277.696 237.053 278.784 238.493 278.784C239.501 278.784 240.173 278.368 240.509 277.408H242.237C241.869 279.184 240.301 280.224 238.493 280.224C235.885 280.224 234.445 278.4 234.445 275.888C234.445 273.504 235.981 271.504 238.445 271.504ZM236.269 275.136H240.525C240.429 273.984 239.677 272.944 238.429 272.944C237.149 272.944 236.333 273.92 236.269 275.136ZM246.919 271.504C248.887 271.504 250.199 272.4 250.375 274.048H248.471C248.327 273.296 247.783 272.944 246.791 272.944C245.895 272.944 245.287 273.248 245.287 273.792C245.287 274.368 245.783 274.688 247.383 274.992C249.927 275.456 250.647 276.256 250.647 277.536C250.647 279.264 249.063 280.224 246.951 280.224C244.775 280.224 243.335 279.248 243.287 277.344H245.111C245.223 278.32 245.847 278.784 246.983 278.784C248.103 278.784 248.823 278.464 248.823 277.744C248.823 277.168 248.455 276.736 246.151 276.336C244.775 276.096 243.463 275.488 243.463 273.872C243.463 272.32 244.983 271.504 246.919 271.504ZM259.669 271.504C261.637 271.504 262.949 272.4 263.125 274.048H261.221C261.077 273.296 260.533 272.944 259.541 272.944C258.645 272.944 258.037 273.248 258.037 273.792C258.037 274.368 258.533 274.688 260.133 274.992C262.677 275.456 263.397 276.256 263.397 277.536C263.397 279.264 261.813 280.224 259.701 280.224C257.525 280.224 256.085 279.248 256.037 277.344H257.861C257.973 278.32 258.597 278.784 259.733 278.784C260.853 278.784 261.573 278.464 261.573 277.744C261.573 277.168 261.205 276.736 258.901 276.336C257.525 276.096 256.213 275.488 256.213 273.872C256.213 272.32 257.733 271.504 259.669 271.504ZM268.574 271.504C271.166 271.504 272.75 273.328 272.75 275.856C272.75 278.432 271.166 280.224 268.574 280.224C265.982 280.224 264.398 278.448 264.398 275.856C264.398 273.328 265.982 271.504 268.574 271.504ZM266.222 275.856C266.222 277.28 266.958 278.784 268.574 278.784C270.19 278.784 270.926 277.296 270.926 275.856C270.926 274.384 270.206 272.944 268.558 272.944C266.974 272.944 266.222 274.4 266.222 275.856ZM274.315 268.576H276.139V280H274.315V268.576ZM278.126 271.728H279.95V276.864C279.95 278.096 280.414 278.784 281.534 278.784C282.894 278.784 283.566 277.968 283.566 276.592V271.728H285.39V280H283.598V278.848H283.566C283.086 279.696 282.142 280.224 281.198 280.224C279.086 280.224 278.126 279.152 278.126 277.056V271.728ZM287.858 269.248H289.682V271.728H291.33V273.088H289.682V277.6C289.682 278.464 289.89 278.64 290.594 278.64C290.93 278.64 291.266 278.608 291.33 278.576V279.984C290.61 280.064 290.402 280.08 290.146 280.08C288.402 280.08 287.858 279.52 287.858 277.856V273.088H286.482V271.728H287.858V269.248ZM292.69 268.576H294.514V270.304H292.69V268.576ZM292.69 271.728H294.514V280H292.69V271.728ZM300.293 271.504C302.885 271.504 304.469 273.328 304.469 275.856C304.469 278.432 302.885 280.224 300.293 280.224C297.701 280.224 296.117 278.448 296.117 275.856C296.117 273.328 297.701 271.504 300.293 271.504ZM297.941 275.856C297.941 277.28 298.677 278.784 300.293 278.784C301.909 278.784 302.645 277.296 302.645 275.856C302.645 274.384 301.925 272.944 300.277 272.944C298.693 272.944 297.941 274.4 297.941 275.856ZM310.337 271.504C312.241 271.504 313.249 272.592 313.249 274.256V280H311.425V274.832C311.425 273.776 311.057 272.944 309.809 272.944C308.529 272.944 307.809 274 307.809 275.072V280H305.985V271.728H307.713V272.944L307.745 272.976C308.337 272.016 309.281 271.504 310.337 271.504ZM318.357 271.504C320.325 271.504 321.637 272.4 321.813 274.048H319.909C319.765 273.296 319.221 272.944 318.229 272.944C317.333 272.944 316.725 273.248 316.725 273.792C316.725 274.368 317.221 274.688 318.821 274.992C321.365 275.456 322.085 276.256 322.085 277.536C322.085 279.264 320.501 280.224 318.389 280.224C316.213 280.224 314.773 279.248 314.725 277.344H316.549C316.661 278.32 317.285 278.784 318.421 278.784C319.541 278.784 320.261 278.464 320.261 277.744C320.261 277.168 319.893 276.736 317.589 276.336C316.213 276.096 314.901 275.488 314.901 273.872C314.901 272.32 316.421 271.504 318.357 271.504Z" fill="black"/>
</svg>
