<svg width="384" height="363" viewBox="0 0 384 363" fill="none" xmlns="http://www.w3.org/2000/svg">
<rect x="0.666016" width="383.333" height="363" fill="#F5F5F5"/>
<path d="M41.0176 117.293H46.9689V90.2988H41.0176V117.293Z" fill="#E51E25"/>
<path d="M50.5947 117.293H56.5461V101.367C56.5461 97.3997 59.1046 94.2664 63.0351 94.2664C66.5391 94.2664 68.2077 96.1204 68.3097 100.329V117.293H74.2703V98.7531C74.2703 92.6905 70.5623 89.5573 64.7129 89.5573C63.013 89.5479 61.3407 89.9868 59.8646 90.8299C58.3885 91.6729 57.1607 92.8903 56.305 94.3591L56.2031 94.2572V90.2989H50.5947V117.293Z" fill="#E51E25"/>
<path d="M85.1343 117.293H91.818L101.477 90.2988H95.3127L88.7403 111.027H88.6291L81.7878 90.2988H75.3174L85.1343 117.293Z" fill="#E51E25"/>
<path d="M103.952 117.293H109.903V90.2988H103.952V117.293Z" fill="#E51E25"/>
<path d="M112.889 94.739H117.376V110.665C117.478 115.152 118.627 117.562 124.847 117.562C126.145 117.562 127.406 117.349 128.704 117.247V112.612C127.882 112.788 127.041 112.86 126.201 112.825C123.54 112.825 123.327 111.564 123.327 109.117V94.739H128.732V90.2987H123.355V83.3926L117.376 86.4888V90.2894H112.889V94.739Z" fill="#E51E25"/>
<path d="M132.504 117.293H138.465V104.454C138.465 98.4934 141.7 95.184 145.769 95.184C146.627 95.2154 147.481 95.3021 148.328 95.4436V89.6962C147.586 89.5822 146.835 89.5295 146.084 89.5386C142.432 89.5386 138.882 92.6255 138.196 95.4899H138.094V90.2987H132.532V117.293H132.504Z" fill="#E51E25"/>
<mask id="mask0_2416_5730" style="mask-type:luminance" maskUnits="userSpaceOnUse" x="40" y="80" width="221" height="48">
<path d="M260.541 80H40.666V128H260.541V80Z" fill="white"/>
</mask>
<g mask="url(#mask0_2416_5730)">
<path d="M170.01 103.768C170.01 108.468 167.665 113.325 162.335 113.325C157.005 113.325 154.687 108.468 154.687 103.768C154.687 99.0681 157.042 94.2663 162.363 94.2663C167.684 94.2663 170.038 99.1238 170.038 103.768H170.01ZM175.971 103.768C175.971 95.5177 171.002 89.5664 162.335 89.5664C153.667 89.5664 148.708 95.5177 148.708 103.768C148.708 112.018 153.667 118.007 162.335 118.007C171.002 118.007 176.008 112.074 176.008 103.768H175.971Z" fill="#E51E25"/>
<path d="M198.979 103.175C198.979 107.81 196.995 112.575 191.721 112.575C186.761 112.575 184.62 108.088 184.62 103.648C184.62 99.2072 186.474 94.2477 191.721 94.2477C196.967 94.2477 198.979 98.5398 198.979 103.175ZM204.93 115.865V90.2987H198.979V94.0067H198.877C197.357 90.9754 194.242 89.5664 190.886 89.5664C183.211 89.5664 178.668 95.8329 178.668 103.091C178.668 110.822 182.219 117.293 190.775 117.293C192.426 117.295 194.047 116.856 195.471 116.022C196.896 115.187 198.071 113.988 198.877 112.547H198.979V116.672C198.979 121.112 196.838 123.559 192.036 123.559C189.004 123.559 186.288 122.985 185.547 119.592H179.595C180.115 125.914 186.223 128 191.646 128C200.156 128 204.912 123.977 204.912 115.884L204.93 115.865Z" fill="#E51E25"/>
</g>
<path d="M228.207 101.423H214.302C214.46 97.3995 217.278 94.2663 221.403 94.2663C225.528 94.2663 227.984 97.6591 228.188 101.423H228.207ZM221.431 89.5664C213.384 89.5664 208.369 96.1481 208.369 103.824C208.369 112.167 213.125 118.025 221.588 118.025C227.484 118.025 232.499 114.734 233.806 108.839H228.161C227.122 111.814 225.027 113.325 221.588 113.325C216.619 113.325 214.33 109.617 214.33 105.335H234.168C235.159 97.242 229.94 89.5757 221.431 89.5757V89.5664Z" fill="#E51E25"/>
<path d="M236.838 117.293H242.752V101.367C242.752 97.3997 245.311 94.2664 249.241 94.2664C252.745 94.2664 254.414 96.1204 254.516 100.329V117.293H260.467V98.7531C260.467 92.6905 256.759 89.5572 250.91 89.5572C249.21 89.5488 247.538 89.9882 246.062 90.8311C244.586 91.6741 243.358 92.8909 242.502 94.3591L242.4 94.2571V90.2988H236.764V117.293H236.838Z" fill="#E51E25"/>
<path d="M111.683 80L109.912 85.6825L103.942 85.6732L105.704 80H111.683Z" fill="#E51E25"/>
<path d="M48.7673 80L46.9967 85.6825L41.0269 85.6732L42.7882 80H48.7673Z" fill="#E51E25"/>
<path d="M44.938 268.576H47.066L51.466 280H49.322L48.25 276.976H43.69L42.618 280H40.554L44.938 268.576ZM46.01 270.544H45.962L44.234 275.456H47.722L46.01 270.544ZM55.9779 271.504C58.1219 271.504 59.5299 272.608 59.7059 274.496H57.8819C57.7379 273.504 57.0499 272.944 55.9939 272.944C54.5859 272.944 53.7219 273.952 53.7219 275.952C53.7219 277.552 54.4899 278.784 55.9139 278.784C56.9539 278.784 57.6899 278.144 57.8819 276.896H59.7059C59.3539 279.072 58.0099 280.224 55.9139 280.224C53.4979 280.224 51.8979 278.592 51.8979 275.952C51.8979 273.312 53.3699 271.504 55.9779 271.504ZM64.8685 271.504C67.0125 271.504 68.4205 272.608 68.5965 274.496H66.7725C66.6285 273.504 65.9405 272.944 64.8845 272.944C63.4765 272.944 62.6125 273.952 62.6125 275.952C62.6125 277.552 63.3805 278.784 64.8045 278.784C65.8445 278.784 66.5805 278.144 66.7725 276.896H68.5965C68.2445 279.072 66.9005 280.224 64.8045 280.224C62.3885 280.224 60.7885 278.592 60.7885 275.952C60.7885 273.312 62.2605 271.504 64.8685 271.504ZM73.6791 271.504C76.0151 271.504 77.6151 273.424 77.6151 275.712C77.6151 275.92 77.5991 276.128 77.5831 276.336H71.5031C71.5031 277.696 72.2871 278.784 73.7271 278.784C74.7351 278.784 75.4071 278.368 75.7431 277.408H77.4711C77.1031 279.184 75.5351 280.224 73.7271 280.224C71.1191 280.224 69.6791 278.4 69.6791 275.888C69.6791 273.504 71.2151 271.504 73.6791 271.504ZM71.5031 275.136H75.7591C75.6631 273.984 74.9111 272.944 73.6631 272.944C72.3831 272.944 71.5671 273.92 71.5031 275.136ZM79.0178 268.576H80.8418V280H79.0178V268.576ZM86.4291 271.504C88.7651 271.504 90.3651 273.424 90.3651 275.712C90.3651 275.92 90.3491 276.128 90.3331 276.336H84.2531C84.2531 277.696 85.0371 278.784 86.4771 278.784C87.4851 278.784 88.1571 278.368 88.4931 277.408H90.2211C89.8531 279.184 88.2851 280.224 86.4771 280.224C83.8691 280.224 82.4291 278.4 82.4291 275.888C82.4291 273.504 83.9651 271.504 86.4291 271.504ZM84.2531 275.136H88.5091C88.4131 273.984 87.6611 272.944 86.4131 272.944C85.1331 272.944 84.3171 273.92 84.2531 275.136ZM95.8798 271.504C96.2318 271.504 96.2958 271.504 96.5678 271.552V273.312C96.2958 273.264 96.0398 273.232 95.7838 273.232C94.4238 273.232 93.5438 274.416 93.5438 276V280H91.7198V271.728H93.4318V273.328H93.4638C93.7198 272.272 94.9518 271.504 95.8798 271.504ZM100.648 271.504C102.648 271.504 103.96 272.448 103.96 273.856V278.208C103.96 278.64 104.056 278.784 104.456 278.784C104.552 278.784 104.712 278.784 104.84 278.752V280.016C104.376 280.144 103.896 280.224 103.688 280.224C102.888 280.224 102.408 279.904 102.28 279.216C101.624 279.872 100.424 280.224 99.4163 280.224C97.7843 280.224 96.5843 279.328 96.5843 277.808C96.5843 276.256 97.4963 275.648 98.7283 275.392C99.3523 275.264 100.04 275.184 100.808 275.088C101.912 274.96 102.248 274.704 102.248 274.064C102.248 273.344 101.672 272.944 100.536 272.944C99.4163 272.944 98.7923 273.424 98.7123 274.256H96.8883C97.0163 272.448 98.3283 271.504 100.648 271.504ZM98.4083 277.648C98.4083 278.336 98.9843 278.784 99.9763 278.784C101.224 278.784 102.136 278.16 102.136 277.264V275.856C101.64 276.16 101.4 276.16 100.136 276.32C98.9363 276.464 98.4083 276.896 98.4083 277.648ZM106.467 269.248H108.291V271.728H109.939V273.088H108.291V277.6C108.291 278.464 108.499 278.64 109.203 278.64C109.539 278.64 109.875 278.608 109.939 278.576V279.984C109.219 280.064 109.011 280.08 108.755 280.08C107.011 280.08 106.467 279.52 106.467 277.856V273.088H105.091V271.728H106.467V269.248ZM111.299 268.576H113.123V270.304H111.299V268.576ZM111.299 271.728H113.123V280H111.299V271.728ZM119.462 271.504C121.366 271.504 122.374 272.592 122.374 274.256V280H120.55V274.832C120.55 273.776 120.182 272.944 118.934 272.944C117.654 272.944 116.934 274 116.934 275.072V280H115.11V271.728H116.838V272.944L116.87 272.976C117.462 272.016 118.406 271.504 119.462 271.504ZM127.642 271.504C128.762 271.504 129.658 271.968 130.09 272.864H130.122V271.728H131.946V279.648C131.946 281.952 130.602 283.28 127.898 283.28C125.818 283.28 124.33 282.352 124.186 280.704H126.01C126.17 281.504 126.714 281.92 127.994 281.92C129.418 281.92 130.122 281.184 130.122 279.856V278.544H130.09C129.546 279.472 128.65 280 127.61 280C125.274 280 123.898 278.384 123.898 275.664C123.898 273.28 125.434 271.504 127.642 271.504ZM125.722 275.824C125.722 277.392 126.554 278.56 127.898 278.56C129.274 278.56 130.122 277.424 130.122 275.68C130.122 274.032 129.29 272.944 127.898 272.944C126.522 272.944 125.722 274.112 125.722 275.824ZM144.203 268.576H146.027V280H144.299V278.88H144.267C143.771 279.792 142.827 280.224 141.707 280.224C139.339 280.224 137.835 278.544 137.835 275.808C137.835 273.072 139.371 271.504 141.419 271.504C142.603 271.504 143.675 272 144.171 272.8H144.203V268.576ZM139.659 275.952C139.659 277.552 140.523 278.784 141.947 278.784C143.403 278.784 144.267 277.504 144.267 275.856C144.267 274.064 143.419 272.944 141.963 272.944C140.507 272.944 139.659 274.192 139.659 275.952ZM148.065 268.576H149.889V270.304H148.065V268.576ZM148.065 271.728H149.889V280H148.065V271.728ZM155.06 271.504C157.028 271.504 158.34 272.4 158.516 274.048H156.612C156.468 273.296 155.924 272.944 154.932 272.944C154.036 272.944 153.428 273.248 153.428 273.792C153.428 274.368 153.924 274.688 155.524 274.992C158.068 275.456 158.788 276.256 158.788 277.536C158.788 279.264 157.204 280.224 155.092 280.224C152.916 280.224 151.476 279.248 151.428 277.344H153.252C153.364 278.32 153.988 278.784 155.124 278.784C156.244 278.784 156.964 278.464 156.964 277.744C156.964 277.168 156.596 276.736 154.292 276.336C152.916 276.096 151.604 275.488 151.604 273.872C151.604 272.32 153.124 271.504 155.06 271.504ZM163.853 271.504C165.997 271.504 167.405 272.608 167.581 274.496H165.757C165.613 273.504 164.925 272.944 163.869 272.944C162.461 272.944 161.597 273.952 161.597 275.952C161.597 277.552 162.365 278.784 163.789 278.784C164.829 278.784 165.565 278.144 165.757 276.896H167.581C167.229 279.072 165.885 280.224 163.789 280.224C161.373 280.224 159.773 278.592 159.773 275.952C159.773 273.312 161.245 271.504 163.853 271.504ZM172.856 271.504C175.448 271.504 177.032 273.328 177.032 275.856C177.032 278.432 175.448 280.224 172.856 280.224C170.264 280.224 168.68 278.448 168.68 275.856C168.68 273.328 170.264 271.504 172.856 271.504ZM170.504 275.856C170.504 277.28 171.24 278.784 172.856 278.784C174.472 278.784 175.208 277.296 175.208 275.856C175.208 274.384 174.488 272.944 172.84 272.944C171.256 272.944 170.504 274.4 170.504 275.856ZM177.732 271.728H179.716L181.812 278.08H181.844L183.86 271.728H185.748L182.788 280H180.74L177.732 271.728ZM190.445 271.504C192.781 271.504 194.381 273.424 194.381 275.712C194.381 275.92 194.365 276.128 194.349 276.336H188.269C188.269 277.696 189.053 278.784 190.493 278.784C191.501 278.784 192.173 278.368 192.509 277.408H194.237C193.869 279.184 192.301 280.224 190.493 280.224C187.885 280.224 186.445 278.4 186.445 275.888C186.445 273.504 187.981 271.504 190.445 271.504ZM188.269 275.136H192.525C192.429 273.984 191.677 272.944 190.429 272.944C189.149 272.944 188.333 273.92 188.269 275.136ZM199.895 271.504C200.247 271.504 200.311 271.504 200.583 271.552V273.312C200.311 273.264 200.055 273.232 199.799 273.232C198.439 273.232 197.559 274.416 197.559 276V280H195.735V271.728H197.447V273.328H197.479C197.735 272.272 198.967 271.504 199.895 271.504ZM200.605 271.728H202.605L204.765 277.904H204.797L206.893 271.728H208.797L205.613 280.368C205.277 281.312 204.957 281.936 204.701 282.288C204.205 283.008 203.565 283.28 202.637 283.28C202.253 283.28 201.837 283.248 201.389 283.184V281.648C201.661 281.68 201.885 281.76 202.253 281.76C202.845 281.76 203.213 281.504 203.389 281.008L203.741 279.968L200.605 271.728ZM218.427 271.504C218.779 271.504 218.843 271.504 219.115 271.552V273.312C218.843 273.264 218.587 273.232 218.331 273.232C216.971 273.232 216.091 274.416 216.091 276V280H214.267V271.728H215.979V273.328H216.011C216.267 272.272 217.499 271.504 218.427 271.504ZM223.304 271.504C225.64 271.504 227.24 273.424 227.24 275.712C227.24 275.92 227.224 276.128 227.208 276.336H221.128C221.128 277.696 221.912 278.784 223.352 278.784C224.36 278.784 225.032 278.368 225.368 277.408H227.096C226.728 279.184 225.16 280.224 223.352 280.224C220.744 280.224 219.304 278.4 219.304 275.888C219.304 273.504 220.84 271.504 223.304 271.504ZM221.128 275.136H225.384C225.288 273.984 224.536 272.944 223.288 272.944C222.008 272.944 221.192 273.92 221.128 275.136ZM231.779 271.504C233.747 271.504 235.059 272.4 235.235 274.048H233.331C233.187 273.296 232.643 272.944 231.651 272.944C230.755 272.944 230.147 273.248 230.147 273.792C230.147 274.368 230.643 274.688 232.243 274.992C234.787 275.456 235.507 276.256 235.507 277.536C235.507 279.264 233.923 280.224 231.811 280.224C229.635 280.224 228.195 279.248 228.147 277.344H229.971C230.083 278.32 230.707 278.784 231.843 278.784C232.963 278.784 233.683 278.464 233.683 277.744C233.683 277.168 233.315 276.736 231.011 276.336C229.635 276.096 228.323 275.488 228.323 273.872C228.323 272.32 229.843 271.504 231.779 271.504ZM240.492 271.504C242.828 271.504 244.428 273.424 244.428 275.712C244.428 275.92 244.412 276.128 244.396 276.336H238.316C238.316 277.696 239.1 278.784 240.54 278.784C241.548 278.784 242.22 278.368 242.556 277.408H244.284C243.916 279.184 242.348 280.224 240.54 280.224C237.932 280.224 236.492 278.4 236.492 275.888C236.492 273.504 238.028 271.504 240.492 271.504ZM238.316 275.136H242.572C242.476 273.984 241.724 272.944 240.476 272.944C239.196 272.944 238.38 273.92 238.316 275.136ZM249.398 271.504C251.398 271.504 252.71 272.448 252.71 273.856V278.208C252.71 278.64 252.806 278.784 253.206 278.784C253.302 278.784 253.462 278.784 253.59 278.752V280.016C253.126 280.144 252.646 280.224 252.438 280.224C251.638 280.224 251.158 279.904 251.03 279.216C250.374 279.872 249.174 280.224 248.166 280.224C246.534 280.224 245.334 279.328 245.334 277.808C245.334 276.256 246.246 275.648 247.478 275.392C248.102 275.264 248.79 275.184 249.558 275.088C250.662 274.96 250.998 274.704 250.998 274.064C250.998 273.344 250.422 272.944 249.286 272.944C248.166 272.944 247.542 273.424 247.462 274.256H245.638C245.766 272.448 247.078 271.504 249.398 271.504ZM247.158 277.648C247.158 278.336 247.734 278.784 248.726 278.784C249.974 278.784 250.886 278.16 250.886 277.264V275.856C250.39 276.16 250.15 276.16 248.886 276.32C247.686 276.464 247.158 276.896 247.158 277.648ZM258.833 271.504C259.185 271.504 259.249 271.504 259.521 271.552V273.312C259.249 273.264 258.993 273.232 258.737 273.232C257.377 273.232 256.497 274.416 256.497 276V280H254.673V271.728H256.385V273.328H256.417C256.673 272.272 257.905 271.504 258.833 271.504ZM263.79 271.504C265.934 271.504 267.342 272.608 267.518 274.496H265.694C265.55 273.504 264.862 272.944 263.806 272.944C262.398 272.944 261.534 273.952 261.534 275.952C261.534 277.552 262.302 278.784 263.726 278.784C264.766 278.784 265.502 278.144 265.694 276.896H267.518C267.166 279.072 265.822 280.224 263.726 280.224C261.31 280.224 259.71 278.592 259.71 275.952C259.71 273.312 261.182 271.504 263.79 271.504ZM269.001 268.576H270.825V272.816H270.857C271.385 271.984 272.313 271.504 273.353 271.504C275.257 271.504 276.265 272.608 276.265 274.256V280H274.441V274.88C274.441 273.824 274.121 272.944 272.825 272.944C271.561 272.944 270.825 273.984 270.825 275.072V280H269.001V268.576Z" fill="black"/>
</svg>
