<svg width="384" height="363" viewBox="0 0 384 363" fill="none" xmlns="http://www.w3.org/2000/svg">
<rect x="0.333008" width="383.333" height="363" fill="#F5F5F5"/>
<g clip-path="url(#clip0_2416_5728)">
<path d="M58.9698 135.927C58.9698 140.445 56.903 145.215 51.8448 145.215C46.1849 145.215 44.2053 140.445 44.2053 135.927C44.2053 131.41 46.1849 126.648 51.8448 126.648C56.903 126.648 58.9698 131.419 58.9698 135.927ZM61.6297 135.927C61.6297 129.77 58.464 124.416 51.8448 124.416C48.5919 124.416 45.4262 126.055 44.2925 129.177H44.2053V116.698H41.5454V146.811H43.996V142.677H44.0832C44.7534 144.156 45.8506 145.401 47.2338 146.251C48.6169 147.101 50.2228 147.518 51.8448 147.448C58.464 147.448 61.6297 142.093 61.6297 135.927Z" fill="#1C1C4C"/>
<path d="M64.5859 146.811H67.2458V125.043H64.5859V146.811Z" fill="#1C1C4C"/>
<path d="M88.0105 135.927C88.0105 140.575 85.4814 145.215 80.3796 145.215C75.2779 145.215 72.7401 140.575 72.7401 135.927C72.7401 131.279 75.2692 126.648 80.3796 126.648C85.4901 126.648 88.0105 131.288 88.0105 135.927ZM90.6267 135.927C90.6267 129.692 86.9988 124.416 80.336 124.416C73.6732 124.416 70.0366 129.648 70.0366 135.927C70.0366 142.206 73.6645 147.447 80.336 147.447C87.0076 147.447 90.6267 142.215 90.6267 135.927Z" fill="#1C1C4C"/>
<path d="M109.481 131.453C109.316 126.727 105.853 124.477 101.51 124.477C97.6731 124.477 93.3301 126.16 93.3301 130.581C93.3301 134.296 95.9463 135.474 99.4347 136.407L102.853 137.166C105.26 137.759 107.624 138.596 107.624 141.125C107.624 144.168 104.135 145.267 101.676 145.267C98.1266 145.267 95.4754 143.41 95.2574 139.825H92.6411C93.0597 145.136 96.5219 147.5 101.58 147.5C105.635 147.5 110.301 145.686 110.301 140.959C110.301 137.166 107.135 135.395 104.092 134.924L100.507 134.07C98.6934 133.599 95.9987 132.761 95.9987 130.398C95.9987 127.572 98.7806 126.639 101.144 126.639C104.179 126.639 106.708 128.113 106.839 131.41L109.481 131.453Z" fill="#1C1C4C"/>
<path d="M119.074 146.732L118.141 149.218C117.269 151.241 116.711 152.636 114.348 152.636C113.738 152.625 113.13 152.554 112.534 152.427V154.66C113.193 154.836 113.876 154.907 114.557 154.869C117.888 154.869 118.778 153.814 120.295 150.151L129.749 125.043H127.133L120.426 143.61L113.249 125.043H110.423L119.144 146.732H119.074Z" fill="#1C1C4C"/>
<path d="M146.824 131.453C146.659 126.727 143.197 124.477 138.853 124.477C135.008 124.477 130.665 126.16 130.665 130.581C130.665 134.296 133.281 135.474 136.769 136.407L140.188 137.166C142.586 137.759 144.949 138.596 144.949 141.125C144.949 144.168 141.461 145.267 139.002 145.267C135.461 145.267 132.801 143.41 132.592 139.825H129.976C130.403 145.136 133.856 147.5 138.923 147.5C142.97 147.5 147.644 145.686 147.644 140.959C147.644 137.166 144.478 135.395 141.444 134.924L137.842 134.07C136.028 133.599 133.324 132.761 133.324 130.398C133.324 127.572 136.106 126.639 138.47 126.639C141.513 126.639 144.042 128.113 144.165 131.41L146.824 131.453Z" fill="#1C1C4C"/>
<path d="M151.865 120.892V125.043H148.071V127.285H151.865V142.171C151.865 145.886 153.042 147.064 156.592 147.064C157.394 147.064 158.153 146.985 158.955 146.985V144.709C158.196 144.789 157.433 144.829 156.67 144.831C154.778 144.709 154.525 143.689 154.525 141.962V127.285H158.938V125.043H154.507V119.479L151.847 120.892H151.865Z" fill="#1C1C4C"/>
<path d="M176.458 134.253H162.365C162.792 130.285 165.191 126.491 169.542 126.491C173.894 126.491 176.327 130.25 176.458 134.253ZM169.542 124.259C162.618 124.259 159.714 130.032 159.714 135.77C159.714 141.971 162.618 147.291 169.542 147.291C175.028 147.291 177.888 144.421 179.031 139.442H176.414C175.542 142.73 173.467 145.006 169.586 145.006C164.476 145.006 162.452 140.323 162.409 136.442H179.162C179.371 130.337 176.589 124.232 169.569 124.232L169.542 124.259Z" fill="#1C1C4C"/>
<mask id="mask0_2416_5728" style="mask-type:luminance" maskUnits="userSpaceOnUse" x="40" y="80" width="192" height="75">
<path d="M231.792 80H40.333V154.869H231.792V80Z" fill="white"/>
</mask>
<g mask="url(#mask0_2416_5728)">
<path d="M181.865 146.654H184.481V134.506C184.481 129.954 186.383 126.491 190.979 126.491C194.354 126.491 195.583 128.942 195.54 131.89V146.654H198.156V134.34C198.156 130.285 199.464 126.491 204.069 126.491C207.862 126.491 209.214 128.436 209.214 132.02V146.654H211.874V131.89C211.874 126.744 209.423 124.259 204.653 124.259C203.21 124.21 201.784 124.588 200.554 125.345C199.324 126.102 198.345 127.204 197.737 128.515C196.935 125.645 194.362 124.259 191.493 124.259C190.016 124.203 188.554 124.581 187.289 125.344C186.023 126.108 185.008 127.225 184.368 128.558H184.237V124.887H181.795V146.689L181.865 146.654Z" fill="#1C1C4C"/>
<path d="M231.033 131.261C230.859 126.535 227.406 124.285 223.054 124.285C219.217 124.285 214.874 125.968 214.874 130.389C214.874 134.104 217.49 135.282 220.978 136.215L224.397 136.974C226.804 137.558 229.167 138.404 229.167 140.933C229.167 143.977 225.679 145.067 223.22 145.067C219.679 145.067 217.019 143.218 216.81 139.625H214.193C214.612 144.945 218.074 147.308 223.132 147.308C227.188 147.308 231.853 145.494 231.853 140.767C231.853 136.974 228.688 135.203 225.653 134.732L222.103 133.93C220.289 133.468 217.595 132.622 217.595 130.267C217.595 127.433 220.377 126.509 222.74 126.509C225.775 126.509 228.304 127.982 228.435 131.279L231.033 131.261Z" fill="#1C1C4C"/>
<path d="M54.9754 102.796C54.9754 105.831 51.6789 106.93 49.5685 106.93C47.8853 106.93 45.1382 106.293 45.1382 104.139C45.1382 101.61 46.9958 100.852 49.0627 100.512C51.1295 100.171 53.4929 100.18 54.9754 99.2034V102.796ZM62.1353 110.174V106.843C61.7464 106.908 61.3523 106.937 60.958 106.93C60.0859 106.93 59.8156 106.459 59.8156 105.282V94.058C59.8156 89.4621 55.3417 87.7354 51.0946 87.7354C46.2807 87.7354 41.5016 89.3749 41.1789 94.9912H45.9842C46.2022 92.6278 48.0946 91.5028 50.7981 91.5028C52.7342 91.5028 55.3068 91.965 55.3068 94.4592C55.3068 97.2848 52.2284 96.901 48.7749 97.5377C44.6935 98.026 40.333 98.9156 40.333 104.357C40.333 108.613 43.8737 110.724 47.7981 110.724C50.3708 110.724 53.4493 109.921 55.3504 108.107C55.7342 110.096 57.0946 110.724 59.0656 110.724C60.1083 110.674 61.1402 110.49 62.1353 110.174Z" fill="#1C1C4C"/>
</g>
<path d="M80.9724 99.247C80.9724 103.049 79.3241 106.93 74.9375 106.93C71.0567 106.93 68.8328 103.634 68.8328 99.247C68.8328 94.6074 70.8997 91.529 74.9375 91.529C78.9753 91.529 80.9724 95.2877 80.9724 99.247ZM85.7863 99.3342C85.7863 92.9592 82.4462 87.7354 75.5741 87.7354C72.7921 87.7354 70.1758 88.7906 68.8241 91.276H68.7369V88.3197H64.1846V118.189H68.9898V107.305H69.1119C70.6293 109.712 73.6293 110.724 76.4113 110.724C82.8648 110.724 85.8212 105.195 85.8212 99.3342H85.7863Z" fill="#1C1C4C"/>
<path d="M105.016 99.247C105.016 103.049 103.377 106.93 98.9901 106.93C95.1093 106.93 92.8855 103.634 92.8855 99.247C92.8855 94.6074 94.9524 91.529 98.9901 91.529C103.028 91.529 105.016 95.2877 105.016 99.247ZM109.83 99.3342C109.83 92.9592 106.499 87.7354 99.6181 87.7354C96.8361 87.7354 94.2198 88.7906 92.8681 91.276H92.7896V88.3197H88.2285V118.189H93.0425V107.305H93.121C94.6384 109.712 97.6384 110.724 100.42 110.724C106.874 110.724 109.83 105.195 109.83 99.3342Z" fill="#1C1C4C"/>
<path d="M112.037 110.131H116.842V80.0088H112.037V110.131Z" fill="#1C1C4C"/>
<path d="M120.557 110.131H125.362V88.3198H120.557V110.131Z" fill="#1C1C4C"/>
<path d="M143.685 97.3113H132.461C132.451 96.5528 132.592 95.7998 132.876 95.0964C133.16 94.3931 133.581 93.7534 134.116 93.215C134.65 92.6766 135.287 92.2502 135.988 91.9607C136.689 91.6713 137.441 91.5246 138.199 91.5293C141.444 91.5293 143.519 94.2677 143.685 97.3113ZM138.199 87.7183C131.702 87.7183 127.656 93.0293 127.656 99.2299C127.656 105.936 131.493 110.707 138.33 110.707C143.092 110.707 147.147 108.09 148.194 103.285H143.641C142.769 105.683 141.112 106.913 138.33 106.913C134.319 106.913 132.461 103.869 132.461 100.46H148.473C149.275 93.9188 145.063 87.7183 138.182 87.7183H138.199Z" fill="#1C1C4C"/>
<path d="M167.755 99.186C167.755 102.988 165.941 106.913 161.65 106.913C157.359 106.913 155.615 103.198 155.615 99.439C155.615 95.5233 157.22 91.5116 161.72 91.5116C165.426 91.5116 167.746 94.3808 167.746 99.186H167.755ZM172.403 110.113V80H167.589V91.1453H167.502C166.028 88.7471 162.993 87.7355 160.246 87.7355C155.484 87.7355 150.801 91.2238 150.801 99.0727C150.801 105.613 154.133 110.715 161.005 110.715C163.752 110.715 166.49 109.66 167.755 107.174H167.842V110.122L172.403 110.113Z" fill="#1C1C4C"/>
<path d="M126.792 80L125.371 84.5872L120.54 84.5785L121.97 80H126.792Z" fill="#1C1C4C"/>
</g>
<path d="M40.461 268.576H49.709V270.304H46.077V280H44.077V270.304H40.461V268.576ZM50.7774 268.576H52.6014V272.816H52.6334C53.1614 271.984 54.0894 271.504 55.1294 271.504C57.0334 271.504 58.0414 272.608 58.0414 274.256V280H56.2174V274.88C56.2174 273.824 55.8974 272.944 54.6014 272.944C53.3374 272.944 52.6014 273.984 52.6014 275.072V280H50.7774V268.576ZM63.5649 271.504C65.9009 271.504 67.5009 273.424 67.5009 275.712C67.5009 275.92 67.4849 276.128 67.4689 276.336H61.3889C61.3889 277.696 62.1729 278.784 63.6129 278.784C64.6209 278.784 65.2929 278.368 65.6289 277.408H67.3569C66.9889 279.184 65.4209 280.224 63.6129 280.224C61.0049 280.224 59.5649 278.4 59.5649 275.888C59.5649 273.504 61.1009 271.504 63.5649 271.504ZM61.3889 275.136H65.6449C65.5489 273.984 64.7969 272.944 63.5489 272.944C62.2689 272.944 61.4529 273.92 61.3889 275.136ZM77.6766 271.504C80.2686 271.504 81.5486 273.488 81.5486 275.904C81.5486 278.08 80.4606 280.224 77.9806 280.224C76.9406 280.224 75.7726 279.856 75.2126 278.928H75.1806V283.056H73.3566V271.728H75.0846V272.848H75.1166C75.6446 271.888 76.6206 271.504 77.6766 271.504ZM75.1166 275.872C75.1166 277.296 75.8206 278.784 77.4366 278.784C79.0846 278.784 79.7246 277.312 79.7246 275.872C79.7246 274.496 79.0366 272.944 77.4206 272.944C75.7246 272.944 75.1166 274.384 75.1166 275.872ZM86.7059 271.504C88.7059 271.504 90.0179 272.448 90.0179 273.856V278.208C90.0179 278.64 90.1139 278.784 90.5139 278.784C90.6099 278.784 90.7699 278.784 90.8979 278.752V280.016C90.4339 280.144 89.9539 280.224 89.7459 280.224C88.9459 280.224 88.4659 279.904 88.3379 279.216C87.6819 279.872 86.4819 280.224 85.4739 280.224C83.8419 280.224 82.6419 279.328 82.6419 277.808C82.6419 276.256 83.5539 275.648 84.7859 275.392C85.4099 275.264 86.0979 275.184 86.8659 275.088C87.9699 274.96 88.3059 274.704 88.3059 274.064C88.3059 273.344 87.7299 272.944 86.5939 272.944C85.4739 272.944 84.8499 273.424 84.7699 274.256H82.9459C83.0739 272.448 84.3859 271.504 86.7059 271.504ZM84.4659 277.648C84.4659 278.336 85.0419 278.784 86.0339 278.784C87.2819 278.784 88.1939 278.16 88.1939 277.264V275.856C87.6979 276.16 87.4579 276.16 86.1939 276.32C84.9939 276.464 84.4659 276.896 84.4659 277.648ZM92.5245 269.248H94.3485V271.728H95.9965V273.088H94.3485V277.6C94.3485 278.464 94.5565 278.64 95.2605 278.64C95.5965 278.64 95.9325 278.608 95.9965 278.576V279.984C95.2765 280.064 95.0685 280.08 94.8125 280.08C93.0685 280.08 92.5245 279.52 92.5245 277.856V273.088H91.1485V271.728H92.5245V269.248ZM97.3086 268.576H99.1326V272.816H99.1646C99.6926 271.984 100.621 271.504 101.661 271.504C103.565 271.504 104.573 272.608 104.573 274.256V280H102.749V274.88C102.749 273.824 102.429 272.944 101.133 272.944C99.8686 272.944 99.1326 273.984 99.1326 275.072V280H97.3086V268.576ZM111.493 269.248H113.317V271.728H114.965V273.088H113.317V277.6C113.317 278.464 113.525 278.64 114.229 278.64C114.565 278.64 114.901 278.608 114.965 278.576V279.984C114.245 280.064 114.037 280.08 113.781 280.08C112.037 280.08 111.493 279.52 111.493 277.856V273.088H110.117V271.728H111.493V269.248ZM119.929 271.504C122.521 271.504 124.105 273.328 124.105 275.856C124.105 278.432 122.521 280.224 119.929 280.224C117.337 280.224 115.753 278.448 115.753 275.856C115.753 273.328 117.337 271.504 119.929 271.504ZM117.577 275.856C117.577 277.28 118.313 278.784 119.929 278.784C121.545 278.784 122.281 277.296 122.281 275.856C122.281 274.384 121.561 272.944 119.913 272.944C118.329 272.944 117.577 274.4 117.577 275.856ZM133.418 271.504C134.538 271.504 135.434 271.968 135.866 272.864H135.898V271.728H137.722V279.648C137.722 281.952 136.378 283.28 133.674 283.28C131.594 283.28 130.106 282.352 129.962 280.704H131.786C131.946 281.504 132.49 281.92 133.77 281.92C135.194 281.92 135.898 281.184 135.898 279.856V278.544H135.866C135.322 279.472 134.426 280 133.386 280C131.05 280 129.674 278.384 129.674 275.664C129.674 273.28 131.21 271.504 133.418 271.504ZM131.498 275.824C131.498 277.392 132.33 278.56 133.674 278.56C135.05 278.56 135.898 277.424 135.898 275.68C135.898 274.032 135.066 272.944 133.674 272.944C132.298 272.944 131.498 274.112 131.498 275.824ZM143.159 271.504C145.495 271.504 147.095 273.424 147.095 275.712C147.095 275.92 147.079 276.128 147.063 276.336H140.983C140.983 277.696 141.767 278.784 143.207 278.784C144.215 278.784 144.887 278.368 145.223 277.408H146.951C146.583 279.184 145.015 280.224 143.207 280.224C140.599 280.224 139.159 278.4 139.159 275.888C139.159 273.504 140.695 271.504 143.159 271.504ZM140.983 275.136H145.239C145.143 273.984 144.391 272.944 143.143 272.944C141.863 272.944 141.047 273.92 140.983 275.136ZM152.801 271.504C154.705 271.504 155.713 272.592 155.713 274.256V280H153.889V274.832C153.889 273.776 153.521 272.944 152.273 272.944C150.993 272.944 150.273 274 150.273 275.072V280H148.449V271.728H150.177V272.944L150.209 272.976C150.801 272.016 151.745 271.504 152.801 271.504ZM161.429 271.504C164.021 271.504 165.605 273.328 165.605 275.856C165.605 278.432 164.021 280.224 161.429 280.224C158.837 280.224 157.253 278.448 157.253 275.856C157.253 273.328 158.837 271.504 161.429 271.504ZM159.077 275.856C159.077 277.28 159.813 278.784 161.429 278.784C163.045 278.784 163.781 277.296 163.781 275.856C163.781 274.384 163.061 272.944 161.413 272.944C159.829 272.944 159.077 274.4 159.077 275.856ZM171.441 271.504C172.401 271.504 173.393 271.92 173.761 272.88C174.401 271.968 175.249 271.504 176.369 271.504C178.177 271.504 179.121 272.416 179.121 274.224V280H177.297V275.008C177.297 273.84 177.185 272.944 175.793 272.944C174.465 272.944 174.033 273.904 174.033 275.088V280H172.209V274.624C172.209 273.6 171.889 272.944 170.769 272.944C169.617 272.944 168.945 273.984 168.945 275.04V280H167.121V271.728H168.849V272.88H168.897C169.537 271.936 170.289 271.504 171.441 271.504ZM181.091 268.576H182.915V270.304H181.091V268.576ZM181.091 271.728H182.915V280H181.091V271.728ZM188.582 271.504C190.726 271.504 192.134 272.608 192.31 274.496H190.486C190.342 273.504 189.654 272.944 188.598 272.944C187.19 272.944 186.326 273.952 186.326 275.952C186.326 277.552 187.094 278.784 188.518 278.784C189.558 278.784 190.294 278.144 190.486 276.896H192.31C191.958 279.072 190.614 280.224 188.518 280.224C186.102 280.224 184.502 278.592 184.502 275.952C184.502 273.312 185.974 271.504 188.582 271.504ZM204.214 268.576H206.038V280H204.31V278.88H204.278C203.782 279.792 202.838 280.224 201.718 280.224C199.35 280.224 197.846 278.544 197.846 275.808C197.846 273.072 199.382 271.504 201.43 271.504C202.614 271.504 203.686 272 204.182 272.8H204.214V268.576ZM199.67 275.952C199.67 277.552 200.534 278.784 201.958 278.784C203.414 278.784 204.278 277.504 204.278 275.856C204.278 274.064 203.43 272.944 201.974 272.944C200.518 272.944 199.67 274.192 199.67 275.952ZM208.075 268.576H209.899V270.304H208.075V268.576ZM208.075 271.728H209.899V280H208.075V271.728ZM215.071 271.504C217.039 271.504 218.351 272.4 218.527 274.048H216.623C216.479 273.296 215.935 272.944 214.943 272.944C214.047 272.944 213.439 273.248 213.439 273.792C213.439 274.368 213.935 274.688 215.535 274.992C218.079 275.456 218.799 276.256 218.799 277.536C218.799 279.264 217.215 280.224 215.103 280.224C212.927 280.224 211.487 279.248 211.439 277.344H213.263C213.375 278.32 213.999 278.784 215.135 278.784C216.255 278.784 216.975 278.464 216.975 277.744C216.975 277.168 216.607 276.736 214.303 276.336C212.927 276.096 211.615 275.488 211.615 273.872C211.615 272.32 213.135 271.504 215.071 271.504ZM223.864 271.504C226.008 271.504 227.416 272.608 227.592 274.496H225.768C225.624 273.504 224.936 272.944 223.88 272.944C222.472 272.944 221.608 273.952 221.608 275.952C221.608 277.552 222.376 278.784 223.8 278.784C224.84 278.784 225.576 278.144 225.768 276.896H227.592C227.24 279.072 225.896 280.224 223.8 280.224C221.384 280.224 219.784 278.592 219.784 275.952C219.784 273.312 221.256 271.504 223.864 271.504ZM232.866 271.504C235.458 271.504 237.042 273.328 237.042 275.856C237.042 278.432 235.458 280.224 232.866 280.224C230.274 280.224 228.69 278.448 228.69 275.856C228.69 273.328 230.274 271.504 232.866 271.504ZM230.514 275.856C230.514 277.28 231.25 278.784 232.866 278.784C234.482 278.784 235.218 277.296 235.218 275.856C235.218 274.384 234.498 272.944 232.85 272.944C231.266 272.944 230.514 274.4 230.514 275.856ZM237.743 271.728H239.727L241.823 278.08H241.855L243.871 271.728H245.759L242.799 280H240.751L237.743 271.728ZM250.456 271.504C252.792 271.504 254.392 273.424 254.392 275.712C254.392 275.92 254.376 276.128 254.36 276.336H248.28C248.28 277.696 249.064 278.784 250.504 278.784C251.512 278.784 252.184 278.368 252.52 277.408H254.248C253.88 279.184 252.312 280.224 250.504 280.224C247.896 280.224 246.456 278.4 246.456 275.888C246.456 273.504 247.992 271.504 250.456 271.504ZM248.28 275.136H252.536C252.44 273.984 251.688 272.944 250.44 272.944C249.16 272.944 248.344 273.92 248.28 275.136ZM259.906 271.504C260.258 271.504 260.322 271.504 260.594 271.552V273.312C260.322 273.264 260.066 273.232 259.81 273.232C258.45 273.232 257.57 274.416 257.57 276V280H255.746V271.728H257.458V273.328H257.49C257.746 272.272 258.978 271.504 259.906 271.504ZM261.419 268.576H263.243V270.304H261.419V268.576ZM261.419 271.728H263.243V280H261.419V271.728ZM268.831 271.504C271.167 271.504 272.767 273.424 272.767 275.712C272.767 275.92 272.751 276.128 272.735 276.336H266.655C266.655 277.696 267.439 278.784 268.879 278.784C269.887 278.784 270.559 278.368 270.895 277.408H272.623C272.255 279.184 270.687 280.224 268.879 280.224C266.271 280.224 264.831 278.4 264.831 275.888C264.831 273.504 266.367 271.504 268.831 271.504ZM266.655 275.136H270.911C270.815 273.984 270.063 272.944 268.815 272.944C267.535 272.944 266.719 273.92 266.655 275.136ZM277.305 271.504C279.273 271.504 280.585 272.4 280.761 274.048H278.857C278.713 273.296 278.169 272.944 277.177 272.944C276.281 272.944 275.673 273.248 275.673 273.792C275.673 274.368 276.169 274.688 277.769 274.992C280.313 275.456 281.033 276.256 281.033 277.536C281.033 279.264 279.449 280.224 277.337 280.224C275.161 280.224 273.721 279.248 273.673 277.344H275.497C275.609 278.32 276.233 278.784 277.369 278.784C278.489 278.784 279.209 278.464 279.209 277.744C279.209 277.168 278.841 276.736 276.537 276.336C275.161 276.096 273.849 275.488 273.849 273.872C273.849 272.32 275.369 271.504 277.305 271.504Z" fill="black"/>
<defs>
<clipPath id="clip0_2416_5728">
<rect width="191.86" height="75" fill="white" transform="translate(40.333 80)"/>
</clipPath>
</defs>
</svg>
